<svg width="644" height="105" viewBox="0 0 644 105" fill="none" xmlns="http://www.w3.org/2000/svg">
<g filter="url(#filter0_d_197_81)">
<rect x="4" y="1.61572" width="635.76" height="95.0587" transform="rotate(-0.145614 4 1.61572)" fill="#B14444"/>
</g>
<path d="M84.53 65V39.16H92.396C94.3213 39.16 95.8413 39.4387 96.956 39.996C98.096 40.5533 98.9067 41.3387 99.388 42.352C99.8947 43.3653 100.148 44.556 100.148 45.924V46.988C100.148 48.9893 99.2867 50.522 97.564 51.586C98.78 52.0673 99.7047 52.764 100.338 53.676C100.971 54.588 101.288 55.6773 101.288 56.944V58.008C101.288 59.4013 101.035 60.63 100.528 61.694C100.021 62.7327 99.1853 63.5433 98.02 64.126C96.8547 64.7087 95.2967 65 93.346 65H84.53ZM92.396 43.34H89.09V49.8H92.396C93.4093 49.8 94.1693 49.572 94.676 49.116C95.208 48.6347 95.474 47.9887 95.474 47.178V45.924C95.474 45.1133 95.208 44.48 94.676 44.024C94.1693 43.568 93.4093 43.34 92.396 43.34ZM93.346 53.98H89.09V60.82H93.346C94.41 60.82 95.2207 60.5667 95.778 60.06C96.3353 59.5533 96.614 58.8693 96.614 58.008V56.754C96.614 55.8927 96.3353 55.2213 95.778 54.74C95.2207 54.2333 94.41 53.98 93.346 53.98ZM117.665 65V62.454C116.499 63.4673 115.41 64.2147 114.397 64.696C113.383 65.152 112.357 65.38 111.319 65.38C109.596 65.38 108.266 64.7973 107.329 63.632C106.391 62.4413 105.923 60.782 105.923 58.654V45.734H110.293V58.122C110.293 60.25 111.078 61.314 112.649 61.314C113.282 61.314 113.966 61.162 114.701 60.858C115.461 60.554 116.373 59.9713 117.437 59.11V45.734H121.807V65H117.665ZM139.413 64.354C138.755 64.658 137.995 64.8987 137.133 65.076C136.272 65.2787 135.398 65.38 134.511 65.38C133.042 65.38 131.864 65.076 130.977 64.468C130.091 63.86 129.445 63.0113 129.039 61.922C128.659 60.8327 128.469 59.5913 128.469 58.198V49.534H125.353V45.734H128.469V40.718H132.839V45.734H138.843V49.534H132.839V58.198C132.839 59.3633 133.055 60.174 133.485 60.63C133.941 61.0607 134.587 61.276 135.423 61.276C135.829 61.276 136.259 61.238 136.715 61.162C137.197 61.0607 137.729 60.896 138.311 60.668L139.413 64.354ZM174.512 45.734L169.572 65H164.822L161.63 50.522L158.248 65H153.498L148.558 45.734H153.042L154.904 53.372L156.196 60.326L159.464 45.734H163.872L167.254 60.478L168.47 53.41L170.294 45.734H174.512ZM192.811 63.898C191.493 64.43 190.252 64.81 189.087 65.038C187.921 65.266 186.819 65.38 185.781 65.38C182.918 65.38 180.752 64.5693 179.283 62.948C177.813 61.3267 177.079 59.1733 177.079 56.488V54.208C177.079 52.4093 177.408 50.8513 178.067 49.534C178.725 48.2167 179.663 47.1907 180.879 46.456C182.095 45.7213 183.526 45.354 185.173 45.354C186.515 45.354 187.769 45.6327 188.935 46.19C190.125 46.722 191.088 47.5707 191.823 48.736C192.583 49.876 192.963 51.3453 192.963 53.144C192.963 53.676 192.925 54.246 192.849 54.854C192.773 55.4367 192.646 56.0573 192.469 56.716H181.297C181.347 58.2867 181.74 59.4647 182.475 60.25C183.209 61.0353 184.387 61.428 186.009 61.428C186.87 61.428 187.757 61.3267 188.669 61.124C189.606 60.9213 190.569 60.6173 191.557 60.212L192.811 63.898ZM185.173 49.04C184.007 49.04 183.095 49.42 182.437 50.18C181.803 50.9147 181.436 51.9787 181.335 53.372H188.631C188.656 53.2453 188.669 53.1313 188.669 53.03C188.669 52.9033 188.669 52.7893 188.669 52.688C188.669 51.472 188.327 50.56 187.643 49.952C186.959 49.344 186.135 49.04 185.173 49.04ZM201.835 39.16V39.882C201.835 41.7313 201.569 43.492 201.037 45.164C200.505 46.836 199.606 48.66 198.339 50.636L195.603 49.154C196.211 47.9127 196.654 46.8107 196.933 45.848C197.212 44.8853 197.389 43.8847 197.465 42.846C197.541 41.8073 197.579 40.5787 197.579 39.16H201.835ZM216.324 49.724C215.133 49.724 213.993 49.914 212.904 50.294C211.84 50.6487 210.814 51.2313 209.826 52.042V65H205.456V45.734H209.598V48.698C210.89 47.482 212.043 46.6207 213.056 46.114C214.069 45.6073 215.159 45.354 216.324 45.354V49.724ZM234.781 63.898C233.464 64.43 232.223 64.81 231.057 65.038C229.892 65.266 228.79 65.38 227.751 65.38C224.889 65.38 222.723 64.5693 221.253 62.948C219.784 61.3267 219.049 59.1733 219.049 56.488V54.208C219.049 52.4093 219.379 50.8513 220.037 49.534C220.696 48.2167 221.633 47.1907 222.849 46.456C224.065 45.7213 225.497 45.354 227.143 45.354C228.486 45.354 229.74 45.6327 230.905 46.19C232.096 46.722 233.059 47.5707 233.793 48.736C234.553 49.876 234.933 51.3453 234.933 53.144C234.933 53.676 234.895 54.246 234.819 54.854C234.743 55.4367 234.617 56.0573 234.439 56.716H223.267C223.318 58.2867 223.711 59.4647 224.445 60.25C225.18 61.0353 226.358 61.428 227.979 61.428C228.841 61.428 229.727 61.3267 230.639 61.124C231.577 60.9213 232.539 60.6173 233.527 60.212L234.781 63.898ZM227.143 49.04C225.978 49.04 225.066 49.42 224.407 50.18C223.774 50.9147 223.407 51.9787 223.305 53.372H230.601C230.627 53.2453 230.639 53.1313 230.639 53.03C230.639 52.9033 230.639 52.7893 230.639 52.688C230.639 51.472 230.297 50.56 229.613 49.952C228.929 49.344 228.106 49.04 227.143 49.04ZM256.999 49.42C256.366 49.42 255.644 49.572 254.833 49.876C254.023 50.18 253.06 50.7753 251.945 51.662V65H247.575V36.88H251.945V48.128C253.111 47.14 254.2 46.4307 255.213 46C256.227 45.5693 257.265 45.354 258.329 45.354C260.179 45.354 261.585 45.9493 262.547 47.14C263.51 48.3053 263.991 49.952 263.991 52.08V65H259.621V52.612C259.621 50.484 258.747 49.42 256.999 49.42ZM284.397 63.898C283.079 64.43 281.838 64.81 280.673 65.038C279.507 65.266 278.405 65.38 277.367 65.38C274.504 65.38 272.338 64.5693 270.869 62.948C269.399 61.3267 268.665 59.1733 268.665 56.488V54.208C268.665 52.4093 268.994 50.8513 269.653 49.534C270.311 48.2167 271.249 47.1907 272.465 46.456C273.681 45.7213 275.112 45.354 276.759 45.354C278.101 45.354 279.355 45.6327 280.521 46.19C281.711 46.722 282.674 47.5707 283.409 48.736C284.169 49.876 284.549 51.3453 284.549 53.144C284.549 53.676 284.511 54.246 284.435 54.854C284.359 55.4367 284.232 56.0573 284.055 56.716H272.883C272.933 58.2867 273.326 59.4647 274.061 60.25C274.795 61.0353 275.973 61.428 277.595 61.428C278.456 61.428 279.343 61.3267 280.255 61.124C281.192 60.9213 282.155 60.6173 283.143 60.212L284.397 63.898ZM276.759 49.04C275.593 49.04 274.681 49.42 274.023 50.18C273.389 50.9147 273.022 51.9787 272.921 53.372H280.217C280.242 53.2453 280.255 53.1313 280.255 53.03C280.255 52.9033 280.255 52.7893 280.255 52.688C280.255 51.472 279.913 50.56 279.229 49.952C278.545 49.344 277.721 49.04 276.759 49.04ZM300.451 49.724C299.26 49.724 298.12 49.914 297.031 50.294C295.967 50.6487 294.941 51.2313 293.953 52.042V65H289.583V45.734H293.725V48.698C295.017 47.482 296.17 46.6207 297.183 46.114C298.196 45.6073 299.286 45.354 300.451 45.354V49.724ZM318.908 63.898C317.591 64.43 316.35 64.81 315.184 65.038C314.019 65.266 312.917 65.38 311.878 65.38C309.016 65.38 306.85 64.5693 305.38 62.948C303.911 61.3267 303.176 59.1733 303.176 56.488V54.208C303.176 52.4093 303.506 50.8513 304.164 49.534C304.823 48.2167 305.76 47.1907 306.976 46.456C308.192 45.7213 309.624 45.354 311.27 45.354C312.613 45.354 313.867 45.6327 315.032 46.19C316.223 46.722 317.186 47.5707 317.92 48.736C318.68 49.876 319.06 51.3453 319.06 53.144C319.06 53.676 319.022 54.246 318.946 54.854C318.87 55.4367 318.744 56.0573 318.566 56.716H307.394C307.445 58.2867 307.838 59.4647 308.572 60.25C309.307 61.0353 310.485 61.428 312.106 61.428C312.968 61.428 313.854 61.3267 314.766 61.124C315.704 60.9213 316.666 60.6173 317.654 60.212L318.908 63.898ZM311.27 49.04C310.105 49.04 309.193 49.42 308.534 50.18C307.901 50.9147 307.534 51.9787 307.432 53.372H314.728C314.754 53.2453 314.766 53.1313 314.766 53.03C314.766 52.9033 314.766 52.7893 314.766 52.688C314.766 51.472 314.424 50.56 313.74 49.952C313.056 49.344 312.233 49.04 311.27 49.04ZM343.292 64.354C342.634 64.658 341.874 64.8987 341.012 65.076C340.151 65.2787 339.277 65.38 338.39 65.38C336.921 65.38 335.743 65.076 334.856 64.468C333.97 63.86 333.324 63.0113 332.918 61.922C332.538 60.8327 332.348 59.5913 332.348 58.198V49.534H329.232V45.734H332.348V40.718H336.718V45.734H342.722V49.534H336.718V58.198C336.718 59.3633 336.934 60.174 337.364 60.63C337.82 61.0607 338.466 61.276 339.302 61.276C339.708 61.276 340.138 61.238 340.594 61.162C341.076 61.0607 341.608 60.896 342.19 60.668L343.292 64.354ZM362.576 54.208V56.488C362.576 59.1733 361.841 61.3267 360.372 62.948C358.902 64.5693 356.825 65.38 354.14 65.38C351.454 65.38 349.377 64.5693 347.908 62.948C346.438 61.3267 345.704 59.1733 345.704 56.488V54.208C345.704 51.5227 346.426 49.382 347.87 47.786C349.339 46.1647 351.429 45.354 354.14 45.354C356.85 45.354 358.928 46.1647 360.372 47.786C361.841 49.382 362.576 51.5227 362.576 54.208ZM358.092 54.208C358.092 52.6627 357.75 51.4593 357.066 50.598C356.382 49.7113 355.406 49.268 354.14 49.268C352.873 49.268 351.898 49.7113 351.214 50.598C350.53 51.4593 350.188 52.6627 350.188 54.208V56.488C350.188 58.0333 350.53 59.2493 351.214 60.136C351.898 61.0227 352.873 61.466 354.14 61.466C355.406 61.466 356.382 61.0227 357.066 60.136C357.75 59.2493 358.092 58.0333 358.092 56.488V54.208ZM378.427 54.246V56.488C378.427 58.1093 378.718 59.3253 379.301 60.136C379.884 60.9467 380.821 61.352 382.113 61.352C382.746 61.352 383.456 61.276 384.241 61.124C385.052 60.9467 385.926 60.6807 386.863 60.326L388.117 64.012C386.977 64.468 385.9 64.81 384.887 65.038C383.874 65.266 382.873 65.38 381.885 65.38C379.352 65.38 377.414 64.5693 376.071 62.948C374.728 61.3267 374.057 59.1733 374.057 56.488V54.246C374.057 51.5353 374.728 49.382 376.071 47.786C377.414 46.1647 379.352 45.354 381.885 45.354C382.848 45.354 383.823 45.468 384.811 45.696C385.799 45.924 386.838 46.2533 387.927 46.684L386.673 50.446C384.849 49.7367 383.329 49.382 382.113 49.382C380.821 49.382 379.884 49.7873 379.301 50.598C378.718 51.3833 378.427 52.5993 378.427 54.246ZM401.54 49.42C400.907 49.42 400.185 49.572 399.374 49.876C398.564 50.18 397.601 50.7753 396.486 51.662V65H392.116V36.88L396.486 36.88V48.128C397.652 47.14 398.741 46.4307 399.754 46C400.768 45.5693 401.806 45.354 402.87 45.354C404.72 45.354 406.126 45.9493 407.088 47.14C408.051 48.3053 408.532 49.952 408.532 52.08V65H404.162V52.612C404.162 50.484 403.288 49.42 401.54 49.42ZM428.9 65.19C427.608 65.19 426.569 64.924 425.784 64.392C425.024 63.86 424.466 63.2013 424.112 62.416C423.022 63.4293 421.971 64.1767 420.958 64.658C419.944 65.1393 418.855 65.38 417.69 65.38C415.992 65.38 414.738 64.8353 413.928 63.746C413.142 62.6567 412.75 61.276 412.75 59.604C412.75 58.4893 412.952 57.514 413.358 56.678C413.788 55.8167 414.485 55.1453 415.448 54.664C416.41 54.1827 417.728 53.942 419.4 53.942C420.058 53.942 420.742 53.9927 421.452 54.094C422.161 54.17 422.87 54.2713 423.58 54.398V52.156C423.58 51.092 423.288 50.37 422.706 49.99C422.123 49.5847 421.338 49.382 420.35 49.382C419.59 49.382 418.754 49.4833 417.842 49.686C416.955 49.8887 415.992 50.2053 414.954 50.636L413.7 46.912C416.258 45.8733 418.576 45.354 420.654 45.354C422.528 45.354 423.972 45.6707 424.986 46.304C426.024 46.9373 426.746 47.7733 427.152 48.812C427.557 49.8507 427.76 50.9653 427.76 52.156V59.566C427.76 59.946 427.861 60.3133 428.064 60.668C428.292 60.9973 428.722 61.162 429.356 61.162H429.774V65.19H428.9ZM416.968 59.528C416.968 60.212 417.12 60.7567 417.424 61.162C417.728 61.542 418.171 61.732 418.754 61.732C419.336 61.732 419.995 61.58 420.73 61.276C421.464 60.972 422.414 60.2627 423.58 59.148V57.514C422.262 57.286 420.97 57.172 419.704 57.172C418.716 57.172 418.006 57.3747 417.576 57.78C417.17 58.1853 416.968 58.768 416.968 59.528ZM442.991 49.42C442.358 49.42 441.636 49.572 440.825 49.876C440.015 50.18 439.052 50.7753 437.937 51.662V65H433.567V45.734H437.709V48.318C438.9 47.2793 440.027 46.532 441.091 46.076C442.155 45.5947 443.232 45.354 444.321 45.354C446.171 45.354 447.577 45.9493 448.539 47.14C449.502 48.3053 449.983 49.952 449.983 52.08V65H445.613V52.612C445.613 50.484 444.739 49.42 442.991 49.42ZM471.757 66.938C471.757 68.99 470.946 70.586 469.325 71.726C467.729 72.8913 465.5 73.474 462.637 73.474C461.294 73.474 459.876 73.322 458.381 73.018C456.886 72.714 455.506 72.2073 454.239 71.498L455.493 68.04C456.709 68.648 457.912 69.0787 459.103 69.332C460.294 69.6107 461.459 69.75 462.599 69.75C464.195 69.75 465.411 69.5347 466.247 69.104C467.083 68.6733 467.501 68.1033 467.501 67.394C467.501 66.3047 466.855 65.76 465.563 65.76H461.003C459.762 65.76 458.761 65.5573 458.001 65.152C457.241 64.7467 456.684 64.2273 456.329 63.594C455.974 62.9353 455.797 62.2513 455.797 61.542C455.797 60.8073 455.949 60.1233 456.253 59.49C456.582 58.8313 457.026 58.2233 457.583 57.666C456.671 57.1087 455.936 56.3613 455.379 55.424C454.847 54.4867 454.581 53.3593 454.581 52.042C454.581 50.5473 454.898 49.306 455.531 48.318C456.164 47.33 457.026 46.5953 458.115 46.114C459.23 45.6073 460.458 45.354 461.801 45.354H462.447C462.954 45.354 463.448 45.392 463.929 45.468C464.41 45.5187 464.866 45.6073 465.297 45.734H472.175V49.458L468.375 48.85C468.755 49.2553 469.046 49.762 469.249 50.37C469.477 50.9527 469.591 51.6747 469.591 52.536C469.591 53.828 469.262 54.9427 468.603 55.88C467.97 56.792 467.108 57.5013 466.019 58.008C464.955 58.4893 463.764 58.73 462.447 58.73H461.801C461.294 58.73 460.813 58.692 460.357 58.616C460.078 58.92 459.876 59.2367 459.749 59.566C459.622 59.87 459.559 60.1613 459.559 60.44C459.559 61.3267 460.129 61.77 461.269 61.77H465.905C467.653 61.77 469.059 62.226 470.123 63.138C471.212 64.0247 471.757 65.2913 471.757 66.938ZM462.447 55.158C463.232 55.158 463.916 54.892 464.499 54.36C465.107 53.828 465.411 53.0553 465.411 52.042C465.411 51.0287 465.107 50.256 464.499 49.724C463.916 49.192 463.232 48.926 462.447 48.926H461.801C460.99 48.926 460.281 49.192 459.673 49.724C459.09 50.256 458.799 51.0287 458.799 52.042C458.799 53.0553 459.09 53.828 459.673 54.36C460.281 54.892 460.99 55.158 461.801 55.158H462.447ZM490.576 63.898C489.259 64.43 488.018 64.81 486.852 65.038C485.687 65.266 484.585 65.38 483.546 65.38C480.684 65.38 478.518 64.5693 477.048 62.948C475.579 61.3267 474.844 59.1733 474.844 56.488V54.208C474.844 52.4093 475.174 50.8513 475.832 49.534C476.491 48.2167 477.428 47.1907 478.644 46.456C479.86 45.7213 481.292 45.354 482.938 45.354C484.281 45.354 485.535 45.6327 486.7 46.19C487.891 46.722 488.854 47.5707 489.588 48.736C490.348 49.876 490.728 51.3453 490.728 53.144C490.728 53.676 490.69 54.246 490.614 54.854C490.538 55.4367 490.412 56.0573 490.234 56.716H479.062C479.113 58.2867 479.506 59.4647 480.24 60.25C480.975 61.0353 482.153 61.428 483.774 61.428C484.636 61.428 485.522 61.3267 486.434 61.124C487.372 60.9213 488.334 60.6173 489.322 60.212L490.576 63.898ZM482.938 49.04C481.773 49.04 480.861 49.42 480.202 50.18C479.569 50.9147 479.202 51.9787 479.1 53.372H486.396C486.422 53.2453 486.434 53.1313 486.434 53.03C486.434 52.9033 486.434 52.7893 486.434 52.688C486.434 51.472 486.092 50.56 485.408 49.952C484.724 49.344 483.901 49.04 482.938 49.04ZM514.96 64.354C514.301 64.658 513.541 64.8987 512.68 65.076C511.819 65.2787 510.945 65.38 510.058 65.38C508.589 65.38 507.411 65.076 506.524 64.468C505.637 63.86 504.991 63.0113 504.586 61.922C504.206 60.8327 504.016 59.5913 504.016 58.198V49.534H500.9V45.734H504.016V40.718H508.386V45.734H514.39V49.534H508.386V58.198C508.386 59.3633 508.601 60.174 509.032 60.63C509.488 61.0607 510.134 61.276 510.97 61.276C511.375 61.276 511.806 61.238 512.262 61.162C512.743 61.0607 513.275 60.896 513.858 60.668L514.96 64.354ZM527.898 49.42C527.264 49.42 526.542 49.572 525.732 49.876C524.921 50.18 523.958 50.7753 522.844 51.662V65H518.474V36.88H522.844V48.128C524.009 47.14 525.098 46.4307 526.112 46C527.125 45.5693 528.164 45.354 529.228 45.354C531.077 45.354 532.483 45.9493 533.446 47.14C534.408 48.3053 534.89 49.952 534.89 52.08V65H530.52V52.612C530.52 50.484 529.646 49.42 527.898 49.42ZM555.257 65.19C553.965 65.19 552.926 64.924 552.141 64.392C551.381 63.86 550.824 63.2013 550.469 62.416C549.38 63.4293 548.328 64.1767 547.315 64.658C546.302 65.1393 545.212 65.38 544.047 65.38C542.35 65.38 541.096 64.8353 540.285 63.746C539.5 62.6567 539.107 61.276 539.107 59.604C539.107 58.4893 539.31 57.514 539.715 56.678C540.146 55.8167 540.842 55.1453 541.805 54.664C542.768 54.1827 544.085 53.942 545.757 53.942C546.416 53.942 547.1 53.9927 547.809 54.094C548.518 54.17 549.228 54.2713 549.937 54.398V52.156C549.937 51.092 549.646 50.37 549.063 49.99C548.48 49.5847 547.695 49.382 546.707 49.382C545.947 49.382 545.111 49.4833 544.199 49.686C543.312 49.8887 542.35 50.2053 541.311 50.636L540.057 46.912C542.616 45.8733 544.934 45.354 547.011 45.354C548.886 45.354 550.33 45.6707 551.343 46.304C552.382 46.9373 553.104 47.7733 553.509 48.812C553.914 49.8507 554.117 50.9653 554.117 52.156V59.566C554.117 59.946 554.218 60.3133 554.421 60.668C554.649 60.9973 555.08 61.162 555.713 61.162H556.131V65.19H555.257ZM543.325 59.528C543.325 60.212 543.477 60.7567 543.781 61.162C544.085 61.542 544.528 61.732 545.111 61.732C545.694 61.732 546.352 61.58 547.087 61.276C547.822 60.972 548.772 60.2627 549.937 59.148V57.514C548.62 57.286 547.328 57.172 546.061 57.172C545.073 57.172 544.364 57.3747 543.933 57.78C543.528 58.1853 543.325 58.768 543.325 59.528ZM571.515 64.354C570.856 64.658 570.096 64.8987 569.235 65.076C568.374 65.2787 567.5 65.38 566.613 65.38C565.144 65.38 563.966 65.076 563.079 64.468C562.192 63.86 561.546 63.0113 561.141 61.922C560.761 60.8327 560.571 59.5913 560.571 58.198V49.534H557.455V45.734H560.571V40.718H564.941V45.734H570.945V49.534H564.941V58.198C564.941 59.3633 565.156 60.174 565.587 60.63C566.043 61.0607 566.689 61.276 567.525 61.276C567.93 61.276 568.361 61.238 568.817 61.162C569.298 61.0607 569.83 60.896 570.413 60.668L571.515 64.354ZM578.334 65H573.736V60.478H578.334V65Z" fill="#FFFCF7"/>
<defs>
<filter id="filter0_d_197_81" x="0" y="0" width="644" height="104.674" filterUnits="userSpaceOnUse" color-interpolation-filters="sRGB">
<feFlood flood-opacity="0" result="BackgroundImageFix"/>
<feColorMatrix in="SourceAlpha" type="matrix" values="0 0 0 0 0 0 0 0 0 0 0 0 0 0 0 0 0 0 127 0" result="hardAlpha"/>
<feOffset dy="4"/>
<feGaussianBlur stdDeviation="2"/>
<feComposite in2="hardAlpha" operator="out"/>
<feColorMatrix type="matrix" values="0 0 0 0 0 0 0 0 0 0 0 0 0 0 0 0 0 0 0.25 0"/>
<feBlend mode="normal" in2="BackgroundImageFix" result="effect1_dropShadow_197_81"/>
<feBlend mode="normal" in="SourceGraphic" in2="effect1_dropShadow_197_81" result="shape"/>
</filter>
</defs>
</svg>
