<svg width="457" height="143" viewBox="0 0 457 143" fill="none" xmlns="http://www.w3.org/2000/svg">
<g filter="url(#filter0_d_189_53)">
<rect x="4" y="41.5293" width="442.566" height="93.712" rx="8" transform="rotate(-5.3844 4 41.5293)" fill="#6CA96F"/>
</g>
<path d="M106.75 67.3805L100.331 83.5194L101.304 93.8477L96.764 94.2753L95.7984 84.0226L86.3964 69.2973L91.2389 68.8413L97.8336 79.289L102.059 67.8223L106.75 67.3805ZM125.078 80.7691L125.291 83.039C125.543 85.7125 125.014 87.9252 123.703 89.6772C122.392 91.4292 120.4 92.431 117.726 92.6828C115.053 92.9346 112.909 92.3223 111.294 90.8458C109.679 89.3694 108.746 87.2944 108.494 84.6209L108.28 82.351C108.028 79.6775 108.546 77.4786 109.834 75.7542C111.145 74.0022 113.15 72.9992 115.849 72.745C118.547 72.4909 120.692 73.1032 122.281 74.582C123.894 76.0332 124.826 78.0956 125.078 80.7691ZM120.613 81.1895C120.469 79.651 120.015 78.485 119.253 77.6916C118.489 76.873 117.477 76.523 116.216 76.6418C114.955 76.7605 114.025 77.2934 113.427 78.2403C112.827 79.1619 112.599 80.392 112.744 81.9306L112.958 84.2005C113.103 85.739 113.557 86.9176 114.322 87.7363C115.086 88.5549 116.098 88.9048 117.359 88.7861C118.62 88.6673 119.55 88.1345 120.148 87.1876C120.746 86.2407 120.972 84.998 120.827 83.4594L120.613 81.1895ZM142.393 89.9781L142.155 87.4433C141.089 88.5614 140.075 89.4076 139.111 89.9818C138.145 90.5308 137.145 90.854 136.111 90.9514C134.396 91.1129 133.017 90.6575 131.975 89.5852C130.93 88.4877 130.308 86.8796 130.108 84.761L128.897 71.8979L133.247 71.4882L134.409 83.8216C134.608 85.9402 135.49 86.9259 137.054 86.7786C137.684 86.7193 138.351 86.5038 139.054 86.1323C139.782 85.7583 140.636 85.0927 141.614 84.1354L140.36 70.8183L144.711 70.4086L146.517 89.5897L142.393 89.9781ZM153.906 62.9396L153.973 63.6584C154.147 65.4996 154.047 67.2774 153.674 68.992C153.301 70.7065 152.577 72.6068 151.501 74.6928L148.638 73.4739C149.127 72.181 149.465 71.0423 149.652 70.0577C149.84 69.0732 149.922 68.0603 149.901 67.0191C149.879 65.9779 149.801 64.751 149.668 63.3386L153.906 62.9396ZM169.321 72.0985C168.136 72.2102 167.019 72.5062 165.97 72.9867C164.944 73.4396 163.977 74.1159 163.069 75.0156L164.284 87.9165L159.933 88.3262L158.127 69.1451L162.251 68.7568L162.529 71.7077C163.701 70.3759 164.768 69.4103 165.729 68.8109C166.691 68.2114 167.751 67.8571 168.912 67.7478L169.321 72.0985ZM189.026 84.4795C187.765 85.1327 186.564 85.6274 185.426 85.9637C184.287 86.2999 183.2 86.5168 182.166 86.6141C179.316 86.8825 177.084 86.2785 175.469 84.8021C173.854 83.3257 172.921 81.2507 172.669 78.5772L172.455 76.3073C172.286 74.5165 172.468 72.9345 173 71.5612C173.533 70.1879 174.37 69.0786 175.511 68.2331C176.653 67.3877 178.044 66.8878 179.683 66.7334C181.02 66.6075 182.295 66.7673 183.507 67.213C184.742 67.631 185.78 68.3856 186.621 69.477C187.485 70.5407 188.001 71.9679 188.169 73.7587C188.219 74.2883 188.235 74.8594 188.216 75.4718C188.195 76.059 188.127 76.6888 188.012 77.3612L176.89 78.4087C177.087 79.9677 177.589 81.1037 178.394 81.8167C179.199 82.5297 180.408 82.8102 182.023 82.6582C182.88 82.5774 183.753 82.3934 184.642 82.1061C185.557 81.8165 186.487 81.4235 187.432 80.9273L189.026 84.4795ZM180.029 70.4031C178.869 70.5124 177.996 70.9762 177.412 71.7946C176.85 72.5854 176.584 73.6792 176.614 75.0759L183.878 74.3918C183.891 74.2633 183.893 74.1487 183.884 74.0478C183.872 73.9217 183.861 73.8082 183.851 73.7073C183.737 72.4966 183.311 71.6207 182.573 71.0795C181.835 70.5383 180.987 70.3129 180.029 70.4031ZM209.789 67.9821C209.158 68.0415 208.454 68.2606 207.675 68.6392C206.896 69.0179 205.994 69.7009 204.967 70.6881L206.218 83.9674L201.867 84.3771L200.061 65.196L204.184 64.8076L204.427 67.3802C205.515 66.2345 206.567 65.3848 207.584 64.831C208.598 64.2521 209.647 63.9115 210.732 63.8094C212.573 63.636 214.028 64.0968 215.099 65.192C216.166 66.2619 216.8 67.8562 216.999 69.9749L218.211 82.8379L213.86 83.2477L212.699 70.9142C212.499 68.7956 211.529 67.8183 209.789 67.9821ZM238.649 70.0734L238.863 72.3433C239.115 75.0168 238.585 77.2296 237.275 78.9815C235.964 80.7335 233.972 81.7353 231.298 81.9871C228.625 82.2389 226.48 81.6266 224.865 80.1502C223.251 78.6737 222.317 76.5988 222.065 73.9253L221.852 71.6553C221.6 68.9818 222.118 66.7829 223.406 65.0585C224.717 63.3065 226.722 62.3035 229.42 62.0493C232.119 61.7952 234.263 62.4075 235.853 63.8863C237.465 65.3375 238.398 67.3999 238.649 70.0734ZM234.185 70.4938C234.04 68.9553 233.587 67.7893 232.825 66.9959C232.061 66.1773 231.048 65.8273 229.787 65.9461C228.526 66.0649 227.597 66.5977 226.999 67.5446C226.399 68.4663 226.171 69.6964 226.316 71.2349L226.53 73.5048C226.675 75.0434 227.129 76.2219 227.893 77.0406C228.657 77.8592 229.67 78.2091 230.931 78.0904C232.192 77.9716 233.122 77.4388 233.719 76.4919C234.317 75.545 234.544 74.3023 234.399 72.7637L234.185 70.4938ZM256.018 78.6286C255.391 78.993 254.657 79.3038 253.816 79.5612C252.977 79.8437 252.117 80.0265 251.234 80.1097C249.771 80.2474 248.57 80.0552 247.63 79.533C246.69 79.0108 245.967 78.2265 245.462 77.18C244.981 76.131 244.676 74.913 244.545 73.5258L243.733 64.9L240.63 65.1921L240.274 61.4089L243.376 61.1167L242.906 56.1228L247.257 55.7131L247.727 60.707L253.705 60.144L254.061 63.9273L248.083 64.4902L248.896 73.1161C249.005 74.2763 249.295 75.0632 249.767 75.4768C250.261 75.8628 250.925 76.0166 251.757 75.9382C252.16 75.9002 252.586 75.822 253.033 75.7036C253.502 75.5576 254.016 75.3438 254.575 75.0621L256.018 78.6286ZM281.696 77.05C280.41 77.1712 279.351 77.0037 278.519 76.5477C277.712 76.0893 277.096 75.4858 276.669 74.7372C275.679 75.8482 274.703 76.6908 273.739 77.265C272.775 77.8392 271.713 78.181 270.553 78.2902C268.863 78.4494 267.564 78.0247 266.655 77.0162C265.771 76.0053 265.25 74.6675 265.093 73.0029C264.989 71.8931 265.099 70.9031 265.424 70.0327C265.772 69.1348 266.403 68.4011 267.316 67.8317C268.23 67.2622 269.519 66.8991 271.183 66.7423C271.839 66.6805 272.525 66.6668 273.24 66.7012C273.954 66.7104 274.67 66.7448 275.388 66.8044L275.177 64.5722C275.078 63.5129 274.72 62.8214 274.104 62.4977C273.486 62.1488 272.685 62.0207 271.702 62.1133C270.945 62.1846 270.122 62.3638 269.233 62.6511C268.369 62.936 267.441 63.3416 266.447 63.8677L264.849 60.2777C267.299 59.0037 269.558 58.2693 271.627 58.0746C273.493 57.8988 274.96 58.0787 276.028 58.6142C277.122 59.1474 277.919 59.912 278.42 60.9081C278.921 61.9041 279.227 62.9949 279.339 64.1803L280.034 71.5577C280.069 71.936 280.205 72.2922 280.44 72.6263C280.698 72.9328 281.142 73.0564 281.772 72.997L282.188 72.9578L282.566 76.9681L281.696 77.05ZM269.286 72.5317C269.35 73.2127 269.552 73.7407 269.893 74.1158C270.231 74.4656 270.69 74.6132 271.27 74.5585C271.851 74.5039 272.492 74.2908 273.195 73.9193C273.898 73.5477 274.777 72.7525 275.833 71.5334L275.68 69.9066C274.347 69.8032 273.05 69.8108 271.789 69.9296C270.805 70.0222 270.118 70.2905 269.727 70.7344C269.362 71.176 269.214 71.7751 269.286 72.5317ZM285.702 71.0238L283.575 48.4378L287.926 48.028L290.053 70.6141C290.089 70.9924 290.212 71.3498 290.421 71.6863C290.654 71.9952 291.048 72.1235 291.603 72.0712L292.208 72.0142L292.586 76.0245L291.526 76.1242C290.089 76.2596 288.965 76.0855 288.156 75.6019C287.348 75.1183 286.751 74.462 286.368 73.6329C286.01 72.8015 285.788 71.9318 285.702 71.0238ZM311.47 63.2155L311.684 65.4854C311.935 68.1589 311.406 70.3717 310.095 72.1236C308.784 73.8756 306.792 74.8774 304.118 75.1292C301.445 75.381 299.301 74.7687 297.686 73.2922C296.071 71.8158 295.138 69.7409 294.886 67.0674L294.672 64.7974C294.42 62.1239 294.938 59.925 296.226 58.2006C297.537 56.4486 299.542 55.4456 302.241 55.1914C304.939 54.9373 307.084 55.5496 308.673 57.0284C310.286 58.4796 311.218 60.542 311.47 63.2155ZM307.006 63.6359C306.861 62.0974 306.407 60.9314 305.646 60.138C304.881 59.3194 303.869 58.9694 302.608 59.0882C301.347 59.207 300.417 59.7398 299.819 60.6867C299.219 61.6083 298.991 62.8384 299.136 64.377L299.35 66.6469C299.495 68.1855 299.95 69.364 300.714 70.1827C301.478 71.0013 302.49 71.3512 303.751 71.2325C305.013 71.1137 305.942 70.5809 306.54 69.634C307.138 68.6871 307.364 67.4444 307.219 65.9058L307.006 63.6359ZM325.282 57.1055C324.651 57.1649 323.947 57.3839 323.168 57.7626C322.389 58.1413 321.487 58.8243 320.46 59.8115L321.711 73.0908L317.36 73.5005L315.554 54.3194L319.677 53.931L319.92 56.5036C321.008 55.3579 322.06 54.5082 323.076 53.9544C324.091 53.3754 325.14 53.0349 326.225 52.9327C328.066 52.7593 329.521 53.2202 330.591 54.3154C331.659 55.3853 332.293 56.9796 332.492 59.0982L333.704 71.9613L329.353 72.3711L328.191 60.0376C327.992 57.919 327.022 56.9416 325.282 57.1055ZM353.916 68.951C352.654 69.6041 351.454 70.0988 350.315 70.4351C349.176 70.7714 348.09 70.9882 347.056 71.0856C344.206 71.354 341.973 70.75 340.358 69.2735C338.743 67.7971 337.81 65.7221 337.558 63.0486L337.345 60.7787C337.176 58.9879 337.358 57.4059 337.89 56.0326C338.422 54.6593 339.259 53.55 340.401 52.7045C341.543 51.8591 342.933 51.3592 344.573 51.2048C345.91 51.0789 347.184 51.2388 348.397 51.6844C349.632 52.1024 350.67 52.8571 351.511 53.9484C352.374 55.0121 352.89 56.4393 353.059 58.2301C353.109 58.7597 353.124 59.3308 353.106 59.9432C353.085 60.5305 353.017 61.1603 352.902 61.8327L341.779 62.8802C341.977 64.4391 342.478 65.5751 343.283 66.2881C344.088 67.0011 345.298 67.2816 346.912 67.1296C347.77 67.0488 348.643 66.8648 349.532 66.5775C350.446 66.2879 351.376 65.8949 352.322 65.3988L353.916 68.951ZM344.918 54.8745C343.758 54.9838 342.886 55.4476 342.301 56.2661C341.74 57.0569 341.474 58.1506 341.503 59.5473L348.767 58.8632C348.781 58.7348 348.783 58.6201 348.773 58.5192C348.761 58.3931 348.751 58.2796 348.741 58.1787C348.627 56.968 348.201 56.0921 347.463 55.5509C346.725 55.0098 345.877 54.7843 344.918 54.8745Z" fill="#FFFCF7"/>
<defs>
<filter id="filter0_d_189_53" x="0.714844" y="0.714844" width="455.978" height="141.398" filterUnits="userSpaceOnUse" color-interpolation-filters="sRGB">
<feFlood flood-opacity="0" result="BackgroundImageFix"/>
<feColorMatrix in="SourceAlpha" type="matrix" values="0 0 0 0 0 0 0 0 0 0 0 0 0 0 0 0 0 0 127 0" result="hardAlpha"/>
<feOffset dy="4"/>
<feGaussianBlur stdDeviation="2"/>
<feComposite in2="hardAlpha" operator="out"/>
<feColorMatrix type="matrix" values="0 0 0 0 0 0 0 0 0 0 0 0 0 0 0 0 0 0 0.25 0"/>
<feBlend mode="normal" in2="BackgroundImageFix" result="effect1_dropShadow_189_53"/>
<feBlend mode="normal" in="SourceGraphic" in2="effect1_dropShadow_189_53" result="shape"/>
</filter>
</defs>
</svg>
