<svg width="740" height="144" viewBox="0 0 740 144" fill="none" xmlns="http://www.w3.org/2000/svg">
<g filter="url(#filter0_d_189_52)">
<rect x="8.15576" width="729.83" height="97.7397" rx="20" transform="rotate(3.02377 8.15576 0)" fill="#3C5A9A"/>
<path d="M67.5991 37.5131L73.8781 55.5389L81.9811 38.2719L86.9522 38.5341L85.5908 64.3382L81.2269 64.108L81.7474 54.2417L82.7931 45.2403L75.5432 60.7639L71.4828 60.5497L66.0604 44.3195L66.1511 53.4189L65.6306 63.2852L61.2666 63.0549L62.628 37.2508L67.5991 37.5131ZM106.827 64.3551C105.484 64.8169 104.224 65.131 103.048 65.2973C101.873 65.4636 100.766 65.5194 99.729 65.4647C96.8703 65.3138 94.75 64.3902 93.3681 62.6937C91.9862 60.9972 91.366 58.8081 91.5075 56.1265L91.6276 53.8497C91.7224 52.0535 92.1334 50.5151 92.8605 49.2343C93.5877 47.9535 94.5777 46.9783 95.8308 46.3087C97.0838 45.6391 98.5325 45.3477 100.177 45.4344C101.518 45.5052 102.755 45.8495 103.89 46.4675C105.051 47.0615 105.967 47.9597 106.639 49.1621C107.338 50.3405 107.64 51.8279 107.546 53.624C107.518 54.1553 107.45 54.7225 107.342 55.3256C107.235 55.9035 107.076 56.5166 106.864 57.165L95.7076 56.5765C95.6755 58.1476 96.0055 59.3447 96.6978 60.1676C97.3901 60.9906 98.5458 61.4447 100.165 61.5302C101.025 61.5755 101.916 61.5211 102.837 61.3667C103.784 61.2137 104.761 60.9609 105.769 60.6081L106.827 64.3551ZM99.9827 49.1153C98.819 49.0539 97.8882 49.3853 97.1904 50.1096C96.5192 50.8099 96.0964 51.853 95.9218 53.2391L103.208 53.6235C103.24 53.4983 103.258 53.3852 103.264 53.284C103.27 53.1575 103.276 53.0436 103.282 52.9424C103.346 51.7281 103.052 50.7994 102.401 50.1562C101.75 49.513 100.944 49.166 99.9827 49.1153ZM117.015 52.6396L116.312 65.959L111.948 65.7288L112.963 46.4896L117.1 46.7078L116.966 49.2502C118.209 48.2757 119.349 47.5875 120.385 47.1855C121.421 46.7835 122.47 46.6106 123.533 46.6666C125.886 46.7908 127.437 47.9127 128.188 50.0326C129.512 48.9862 130.73 48.2514 131.843 47.8281C132.956 47.4048 134.069 47.2225 135.183 47.2813C136.953 47.3747 138.276 48.0406 139.149 49.279C140.023 50.4921 140.405 52.1612 140.293 54.2862L139.612 67.1883L135.248 66.958L135.901 54.5872C136.013 52.4622 135.259 51.357 133.64 51.2715C133.008 51.2382 132.304 51.3533 131.529 51.6168C130.754 51.8803 129.799 52.4261 128.665 53.2542L127.962 66.5736L123.598 66.3434L124.251 53.9726C124.363 51.8476 123.609 50.7423 121.99 50.6569C121.358 50.6236 120.654 50.7386 119.879 51.0022C119.104 51.2657 118.15 51.8115 117.015 52.6396ZM161.691 57.5461L161.571 59.8229C161.43 62.5046 160.583 64.6162 159.03 66.1579C157.477 67.6995 155.36 68.3996 152.678 68.2582C149.997 68.1167 147.965 67.1977 146.583 65.5012C145.201 63.8047 144.581 61.6157 144.723 58.9341L144.843 56.6572C144.984 53.9756 145.818 51.876 147.344 50.3583C148.897 48.8166 151.027 48.1172 153.733 48.26C156.44 48.4028 158.472 49.3218 159.829 51.0169C161.212 52.6881 161.833 54.8645 161.691 57.5461ZM157.213 57.3099C157.295 55.7667 157.017 54.547 156.379 53.6508C155.743 52.7294 154.792 52.2353 153.527 52.1685C152.262 52.1018 151.265 52.4931 150.535 53.3425C149.807 54.1666 149.402 55.3503 149.32 56.8935L149.2 59.1703C149.119 60.7135 149.396 61.9458 150.033 62.8673C150.669 63.7888 151.62 64.2829 152.885 64.3496C154.149 64.4163 155.147 64.025 155.877 63.1756C156.606 62.3262 157.012 61.1299 157.093 59.5867L157.213 57.3099ZM177.674 53.8991C176.485 53.8363 175.336 53.966 174.228 54.2881C173.147 54.5862 172.092 55.114 171.062 55.8715L170.38 68.8115L166.016 68.5813L167.031 49.342L171.167 49.5603L171.011 52.5201C172.365 51.3739 173.562 50.5745 174.6 50.1219C175.639 49.6693 176.74 49.4737 177.904 49.5351L177.674 53.8991ZM186.376 46.7095L181.784 46.4673L182.022 41.9516L186.614 42.1938L186.376 46.7095ZM185.055 69.5857L180.691 69.3555L181.706 50.1162L186.07 50.3465L185.055 69.5857ZM203.334 66.7448L203.134 70.5396L189.397 69.8148L189.577 66.3996L198.333 54.7987L190.592 54.3903L190.792 50.5956L203.77 51.2803L203.589 54.6955L194.834 66.2964L203.334 66.7448ZM213.131 48.1211L208.54 47.8789L208.778 43.3632L213.37 43.6054L213.131 48.1211ZM211.81 70.9973L207.446 70.7671L208.461 51.5278L212.825 51.7581L211.81 70.9973ZM228.054 56.2526C227.422 56.2193 226.693 56.333 225.867 56.5939C225.042 56.8547 224.049 57.3985 222.889 58.2252L222.187 71.5447L217.823 71.3145L218.838 52.0752L222.974 52.2935L222.838 54.8739C224.082 53.8994 225.247 53.2125 226.333 52.8132C227.421 52.3886 228.509 52.205 229.597 52.2623C231.444 52.3598 232.816 53.0284 233.715 54.2681C234.615 55.4825 235.009 57.1523 234.897 59.2773L234.216 72.1794L229.852 71.9491L230.505 59.5783C230.617 57.4533 229.8 56.3447 228.054 56.2526ZM255.857 75.2618C255.749 77.3109 254.855 78.862 253.176 79.915C251.521 80.9946 249.264 81.459 246.405 81.3082C245.064 81.2375 243.656 81.011 242.179 80.6286C240.703 80.2463 239.351 79.6676 238.123 78.8925L239.557 75.5054C240.74 76.1766 241.919 76.6701 243.094 76.9858C244.269 77.3268 245.425 77.5273 246.563 77.5874C248.157 77.6715 249.383 77.5205 250.24 77.1345C251.098 76.7485 251.545 76.2013 251.583 75.4929C251.64 74.4051 251.024 73.8272 249.734 73.7591L245.18 73.5189C243.94 73.4535 242.952 73.1984 242.214 72.7535C241.477 72.3087 240.947 71.7608 240.627 71.1096C240.307 70.4332 240.166 69.7408 240.203 69.0324C240.242 68.2988 240.43 67.6238 240.767 67.0073C241.13 66.3669 241.605 65.7831 242.191 65.2559C241.31 64.6513 240.615 63.8663 240.108 62.9009C239.626 61.9369 239.42 60.7971 239.49 59.4816C239.568 57.989 239.95 56.7661 240.634 55.8128C241.319 54.8595 242.218 54.1713 243.331 53.748C244.471 53.3008 245.711 53.1125 247.052 53.1832L247.697 53.2173C248.203 53.244 248.694 53.3079 249.171 53.4092C249.649 53.4851 250.1 53.5977 250.523 53.7469L257.391 54.1093L257.195 57.8281L253.433 57.0207C253.791 57.4455 254.055 57.9668 254.225 58.5847C254.422 59.1785 254.498 59.9055 254.453 60.7657C254.385 62.0559 253.997 63.1517 253.29 64.053C252.609 64.9303 251.712 65.5933 250.597 66.0419C249.509 66.4665 248.308 66.6441 246.992 66.5747L246.347 66.5407C245.841 66.514 245.363 66.4507 244.911 66.3507C244.617 66.6396 244.398 66.9452 244.254 67.2674C244.111 67.5643 244.033 67.8519 244.018 68.1302C243.971 69.0156 244.517 69.4884 245.656 69.5484L250.285 69.7927C252.031 69.8848 253.411 70.4142 254.425 71.381C255.467 72.3238 255.944 73.6174 255.857 75.2618ZM247.18 63.0077C247.965 63.049 248.662 62.8194 249.272 62.3189C249.907 61.8196 250.251 61.0641 250.305 60.0521C250.358 59.0402 250.095 58.2526 249.516 57.6893C248.962 57.1274 248.293 56.8257 247.509 56.7843L246.864 56.7503C246.054 56.7076 245.332 56.9358 244.697 57.4351C244.087 57.9356 243.755 58.6919 243.702 59.7038C243.648 60.7157 243.899 61.5027 244.452 62.0646C245.032 62.6279 245.726 62.9309 246.535 62.9736L247.18 63.0077ZM292.699 55.972L286.751 74.951L282.008 74.7008L279.583 60.0747L275.443 74.3544L270.699 74.1042L266.781 54.6046L271.259 54.8409L272.716 62.5664L273.64 69.5788L277.672 55.1792L282.074 55.4115L284.675 70.3132L286.261 63.319L288.487 55.7498L292.699 55.972ZM311.664 65.4584L311.544 67.7352C311.403 70.4168 310.556 72.5284 309.003 74.0701C307.45 75.6118 305.333 76.3119 302.651 76.1704C299.97 76.0289 297.938 75.1099 296.556 73.4134C295.174 71.717 294.554 69.5279 294.696 66.8463L294.816 64.5695C294.957 61.8879 295.791 59.7882 297.317 58.2705C298.87 56.7288 301 56.0294 303.707 56.1722C306.413 56.315 308.445 57.234 309.802 58.9292C311.185 60.6004 311.806 62.7768 311.664 65.4584ZM307.187 65.2221C307.268 63.6789 306.99 62.4593 306.352 61.5631C305.716 60.6416 304.765 60.1475 303.5 60.0808C302.235 60.014 301.238 60.4054 300.508 61.2548C299.78 62.0789 299.375 63.2625 299.294 64.8057L299.173 67.0825C299.092 68.6257 299.369 69.8581 300.006 70.7795C300.642 71.701 301.593 72.1951 302.858 72.2618C304.123 72.3286 305.12 71.9372 305.85 71.0878C306.579 70.2384 306.985 69.0421 307.066 67.499L307.187 65.2221ZM327.647 61.8113C326.458 61.7486 325.309 61.8783 324.201 62.2003C323.12 62.4985 322.065 63.0263 321.035 63.7838L320.353 76.7238L315.989 76.4935L317.004 57.2543L321.14 57.4725L320.984 60.4324C322.338 59.2861 323.535 58.4867 324.573 58.0342C325.612 57.5816 326.713 57.386 327.877 57.4474L327.647 61.8113ZM341.934 77.8623L342.072 75.244C340.847 76.3463 339.793 77.0898 338.91 77.4745C338.054 77.8352 337.171 77.9916 336.26 77.9435C334.185 77.8341 332.608 76.9644 331.527 75.3345C330.471 73.706 330.018 71.475 330.168 68.6416L330.276 66.5925C330.421 63.835 331.232 61.6834 332.709 60.1377C334.186 58.592 336.24 57.8886 338.871 58.0274C339.529 58.0621 340.17 58.1594 340.796 58.3192C341.447 58.4804 342.083 58.6916 342.703 58.9526L343.188 49.7694L347.552 49.9996L346.07 78.0806L341.934 77.8623ZM334.645 68.8779C334.556 70.5728 334.769 71.8271 335.284 72.6407C335.824 73.4557 336.613 73.8905 337.651 73.9452C338.232 73.9759 338.861 73.8442 339.536 73.55C340.212 73.2305 341.044 72.6148 342.031 71.7029L342.495 62.8991C341.282 62.3278 340.157 62.0147 339.12 61.96C337.653 61.8826 336.579 62.2826 335.898 63.1599C335.218 64.0373 334.836 65.2602 334.753 66.8287L334.645 68.8779ZM357.652 75.2668C358.588 75.3162 359.368 75.2051 359.991 74.9336C360.615 74.6367 360.944 74.1721 360.978 73.5396C361.007 72.9831 360.827 72.5423 360.438 72.2174C360.076 71.8685 359.396 71.5409 358.397 71.2345L356.264 70.5512C354.617 70.033 353.416 69.2466 352.66 68.192C351.929 67.1387 351.6 65.9163 351.674 64.5249C351.76 62.8806 352.402 61.5318 353.599 60.4788C354.797 59.4257 356.584 58.9619 358.962 59.0874C359.923 59.1381 360.929 59.3053 361.98 59.5891C363.03 59.8728 364.124 60.2984 365.261 60.8657L363.813 64.5185C362.777 63.9565 361.834 63.5516 360.985 63.3038C360.135 63.056 359.382 62.9148 358.724 62.8801C356.928 62.7853 355.998 63.3451 355.934 64.5594C355.908 65.0401 356.04 65.4276 356.329 65.7219C356.643 66.0175 357.224 66.3018 358.072 66.5749L360.205 67.2582C362.027 67.8363 363.329 68.6407 364.112 69.6714C364.92 70.7034 365.284 71.9657 365.206 73.4583C365.112 75.2291 364.429 76.6391 363.156 77.6882C361.908 78.7386 359.994 79.1957 357.414 79.0595C355.213 78.9434 352.925 78.3153 350.549 77.1753L351.916 73.6324C353.08 74.1758 354.137 74.574 355.087 74.8271C356.038 75.0802 356.893 75.2268 357.652 75.2668ZM380.892 69.1487L380.774 71.3876C380.688 73.0067 380.915 74.2363 381.454 75.0766C381.994 75.9168 382.908 76.371 384.199 76.439C384.831 76.4724 385.543 76.4339 386.336 76.3235C387.154 76.1891 388.041 75.9695 388.996 75.6647L390.054 79.4117C388.892 79.807 387.798 80.0918 386.774 80.2661C385.751 80.4404 384.745 80.5015 383.759 80.4494C381.229 80.316 379.336 79.4043 378.081 77.7145C376.825 76.0247 376.268 73.839 376.41 71.1574L376.528 68.9185C376.671 66.2116 377.455 64.0966 378.88 62.5736C380.306 61.0252 382.284 60.3178 384.814 60.4512C385.775 60.502 386.743 60.6672 387.718 60.9469C388.692 61.2267 389.712 61.6103 390.777 62.0977L389.327 65.7884C387.543 64.984 386.043 64.5497 384.829 64.4857C383.539 64.4176 382.582 64.773 381.957 65.5518C381.334 66.3054 380.979 67.5043 380.892 69.1487ZM408.557 81.5675C407.267 81.4994 406.244 81.1791 405.488 80.6064C404.757 80.0351 404.235 79.348 403.922 78.5451C402.781 79.4996 401.692 80.1905 400.654 80.6178C399.617 81.0451 398.517 81.228 397.353 81.1666C395.658 81.0772 394.434 80.4672 393.682 79.3367C392.955 78.2075 392.636 76.8081 392.724 75.1384C392.783 74.0253 393.037 73.062 393.485 72.2485C393.961 71.411 394.692 70.7774 395.679 70.3474C396.665 69.9175 397.993 69.7465 399.663 69.8346C400.321 69.8693 401.001 69.956 401.704 70.0945C402.409 70.2078 403.112 70.3463 403.813 70.5102L403.931 68.2713C403.987 67.2088 403.735 66.4725 403.173 66.0623C402.612 65.6268 401.839 65.3831 400.852 65.331C400.093 65.291 399.253 65.3481 398.332 65.5024C397.435 65.6581 396.457 65.9236 395.397 66.299L394.341 62.5141C396.951 61.6117 399.293 61.2152 401.368 61.3246C403.24 61.4234 404.665 61.8157 405.644 62.5015C406.648 63.1887 407.325 64.0616 407.675 65.1202C408.025 66.1787 408.168 67.3025 408.106 68.4915L407.715 75.8912C407.695 76.2707 407.777 76.6429 407.961 77.0077C408.171 77.3486 408.592 77.5358 409.225 77.5691L409.642 77.5911L409.43 81.6135L408.557 81.5675ZM396.94 75.2847C396.904 75.9678 397.027 76.5197 397.309 76.9405C397.593 77.336 398.026 77.5491 398.608 77.5798C399.189 77.6105 399.855 77.4934 400.605 77.2285C401.355 76.9636 402.341 76.3053 403.563 75.2536L403.649 73.6219C402.346 73.3248 401.061 73.1429 399.797 73.0761C398.81 73.0241 398.091 73.1891 397.639 73.5712C397.213 73.9546 396.98 74.5258 396.94 75.2847ZM423.46 66.5618C422.828 66.5285 422.099 66.6422 421.273 66.9031C420.448 67.1639 419.455 67.7077 418.295 68.5344L417.593 81.8539L413.229 81.6237L414.244 62.3844L418.38 62.6027L418.244 65.1831C419.488 64.2086 420.653 63.5217 421.739 63.1224C422.827 62.6978 423.915 62.5141 425.003 62.5715C426.85 62.669 428.222 63.3375 429.121 64.5773C430.021 65.7917 430.415 67.4615 430.303 69.5865L429.622 82.4886L425.258 82.2583L425.911 69.8875C426.023 67.7625 425.206 66.6539 423.46 66.5618ZM459.644 75.4345C459.499 78.192 458.7 80.3442 457.249 81.8912C455.797 83.4382 453.756 84.1423 451.125 84.0035C448.393 83.8594 445.662 82.9543 442.934 81.2883L444.316 55.1047L448.68 55.3349L448.079 66.7191C449.304 65.6167 450.344 64.8979 451.199 64.5624C452.055 64.2017 452.926 64.0447 453.812 64.0914C455.835 64.1982 457.362 65.0652 458.393 66.6924C459.449 68.3209 459.902 70.5519 459.752 73.3853L459.644 75.4345ZM452.421 68.0897C451.814 68.0577 451.159 68.2007 450.458 68.5189C449.781 68.8383 448.922 69.4907 447.881 70.4758L447.426 79.0899C448.095 79.4042 448.704 79.6393 449.254 79.7951C449.829 79.9523 450.395 80.0456 450.951 80.0749C452.368 80.1497 453.404 79.7477 454.059 78.869C454.715 77.9903 455.083 76.7667 455.166 75.1982L455.274 73.1491C455.364 71.4541 455.151 70.1998 454.636 69.3862C454.146 68.5739 453.408 68.1418 452.421 68.0897ZM478.888 83.9842C477.544 84.4461 476.285 84.7601 475.109 84.9264C473.933 85.0927 472.827 85.1485 471.79 85.0938C468.931 84.9429 466.811 84.0193 465.429 82.3228C464.047 80.6263 463.427 78.4373 463.568 75.7556L463.688 73.4788C463.783 71.6826 464.194 70.1442 464.921 68.8634C465.648 67.5826 466.638 66.6074 467.891 65.9378C469.144 65.2682 470.593 64.9768 472.238 65.0635C473.578 65.1343 474.816 65.4786 475.95 66.0966C477.111 66.6906 478.028 67.5888 478.7 68.7912C479.399 69.9697 479.701 71.457 479.606 73.2531C479.578 73.7844 479.51 74.3516 479.402 74.9548C479.296 75.5326 479.137 76.1457 478.925 76.7941L467.768 76.2056C467.736 77.7767 468.066 78.9738 468.759 79.7967C469.451 80.6197 470.606 81.0738 472.226 81.1593C473.086 81.2046 473.976 81.1502 474.898 80.9958C475.845 80.8428 476.822 80.59 477.83 80.2372L478.888 83.9842ZM472.043 68.7444C470.88 68.683 469.949 69.0145 469.251 69.7387C468.58 70.439 468.157 71.4821 467.982 72.8682L475.268 73.2526C475.3 73.1274 475.319 73.0143 475.324 72.9131C475.331 72.7866 475.337 72.6727 475.342 72.5715C475.406 71.3572 475.113 70.4285 474.462 69.7853C473.811 69.1421 473.005 68.7951 472.043 68.7444ZM503.539 70.9008L497.544 70.5844L496.729 86.029L492.365 85.7987L493.18 70.3542L490.068 70.1901L490.268 66.3953L493.38 66.5595L493.486 64.5483C493.597 62.4485 494.219 60.7563 495.352 59.4716C496.487 58.1615 498.23 57.5685 500.583 57.6927C501.443 57.7381 502.324 57.8733 503.225 58.0984C504.127 58.3236 504.937 58.5946 505.656 58.9116L504.395 62.6123C503.202 62.1435 502.125 61.8837 501.164 61.833C500.152 61.7796 499.356 61.9659 498.775 62.3919C498.221 62.794 497.913 63.5895 497.85 64.7785L497.744 66.7897L503.74 67.106L503.539 70.9008ZM517.568 71.8312C516.379 71.7684 515.231 71.8981 514.123 72.2202C513.042 72.5183 511.986 73.0461 510.957 73.8036L510.274 86.7436L505.91 86.5134L506.925 67.2741L511.062 67.4923L510.905 70.4522C512.26 69.306 513.456 68.5066 514.495 68.054C515.533 67.6014 516.635 67.4058 517.798 67.4672L517.568 71.8312ZM532.045 87.8922L532.179 85.3497C530.962 86.3003 529.835 86.9892 528.798 87.4164C527.762 87.8184 526.725 87.992 525.688 87.9373C523.968 87.8466 522.67 87.1946 521.796 85.9815C520.922 84.7431 520.542 83.0614 520.654 80.9364L521.335 68.0343L525.699 68.2646L525.046 80.6353C524.934 82.7604 525.662 83.8643 527.23 83.947C527.863 83.9804 528.554 83.8647 529.304 83.5998C530.079 83.3362 531.02 82.8024 532.128 81.9984L532.833 68.6409L537.197 68.8712L536.182 88.1104L532.045 87.8922ZM547.759 85.2964C548.695 85.3458 549.474 85.2347 550.097 84.9632C550.722 84.6663 551.051 84.2017 551.084 83.5692C551.114 83.0127 550.934 82.5719 550.545 82.247C550.183 81.8981 549.503 81.5705 548.504 81.2641L546.371 80.5808C544.724 80.0626 543.523 79.2762 542.766 78.2216C542.036 77.1683 541.707 75.9459 541.78 74.5545C541.867 72.9102 542.509 71.5614 543.706 70.5084C544.903 69.4553 546.691 68.9915 549.069 69.117C550.03 69.1677 551.036 69.3349 552.087 69.6187C553.137 69.9024 554.231 70.328 555.368 70.8953L553.919 74.5481C552.884 73.9861 551.941 73.5812 551.091 73.3334C550.242 73.0856 549.488 72.9444 548.831 72.9097C547.035 72.8149 546.104 73.3747 546.04 74.589C546.015 75.0697 546.147 75.4572 546.436 75.7515C546.75 76.0471 547.331 76.3315 548.179 76.6045L550.312 77.2878C552.133 77.8659 553.436 78.6703 554.218 79.701C555.026 80.733 555.391 81.9953 555.312 83.4879C555.219 85.2588 554.536 86.6687 553.263 87.7178C552.015 88.7682 550.101 89.2253 547.52 89.0892C545.32 88.973 543.031 88.345 540.656 87.2049L542.023 83.662C543.186 84.2054 544.244 84.6036 545.194 84.8567C546.145 85.1098 547 85.2564 547.759 85.2964ZM571.104 89.3059C570.43 89.5748 569.658 89.7751 568.789 89.9068C567.918 90.0638 567.04 90.119 566.155 90.0722C564.687 89.9948 563.527 89.6292 562.674 88.9753C561.82 88.3215 561.22 87.4399 560.872 86.3308C560.55 85.2229 560.426 83.9733 560.499 82.5819L560.956 73.9299L557.844 73.7658L558.044 69.971L561.156 70.1352L561.42 65.1262L565.784 65.3564L565.52 70.3654L571.516 70.6818L571.315 74.4765L565.32 74.1602L564.863 82.8121C564.802 83.9758 564.974 84.7967 565.38 85.2748C565.813 85.7289 566.447 85.978 567.282 86.022C567.686 86.0434 568.118 86.0281 568.578 85.9762C569.064 85.9004 569.604 85.764 570.198 85.567L571.104 89.3059ZM586.236 75.4539C585.047 75.3912 583.899 75.5209 582.791 75.843C581.71 76.1411 580.654 76.6689 579.625 77.4264L578.942 90.3664L574.578 90.1361L575.593 70.8969L579.73 71.1151L579.574 74.075C580.928 72.9288 582.124 72.1294 583.163 71.6768C584.202 71.2242 585.303 71.0286 586.466 71.09L586.236 75.4539ZM603.815 91.8689C602.525 91.8008 601.502 91.4804 600.745 90.9078C600.015 90.3365 599.493 89.6494 599.18 88.8465C598.039 89.801 596.949 90.4919 595.912 90.9192C594.875 91.3465 593.774 91.5294 592.611 91.468C590.916 91.3786 589.692 90.7686 588.94 89.6381C588.213 88.5089 587.894 87.1094 587.982 85.4398C588.041 84.3267 588.294 83.3634 588.743 82.5499C589.219 81.7124 589.95 81.0787 590.936 80.6488C591.923 80.2188 593.251 80.0479 594.921 80.136C595.579 80.1707 596.259 80.2573 596.962 80.3959C597.666 80.5091 598.369 80.6477 599.071 80.8116L599.189 78.5727C599.245 77.5102 598.992 76.7738 598.43 76.3637C597.87 75.9282 597.096 75.6844 596.11 75.6324C595.351 75.5923 594.511 75.6495 593.589 75.8038C592.693 75.9595 591.715 76.225 590.655 76.6003L589.599 72.8154C592.209 71.913 594.551 71.5165 596.626 71.626C598.498 71.7247 599.923 72.117 600.901 72.8029C601.905 73.4901 602.582 74.3629 602.932 75.4215C603.282 76.4801 603.426 77.6039 603.363 78.7929L602.973 86.1926C602.953 86.5721 603.035 86.9443 603.218 87.3091C603.429 87.65 603.85 87.8371 604.483 87.8705L604.9 87.8925L604.688 91.9149L603.815 91.8689ZM592.198 85.5861C592.162 86.2692 592.285 86.8211 592.567 87.2419C592.851 87.6373 593.283 87.8504 593.865 87.8811C594.447 87.9118 595.113 87.7947 595.863 87.5299C596.612 87.265 597.598 86.6067 598.821 85.555L598.907 83.9232C597.603 83.6262 596.319 83.4443 595.054 83.3775C594.068 83.3255 593.349 83.4905 592.897 83.8726C592.471 84.256 592.238 84.8272 592.198 85.5861ZM620.094 91.8906C619.421 92.1594 618.649 92.3597 617.779 92.4914C616.909 92.6484 616.03 92.7036 615.145 92.6569C613.678 92.5795 612.517 92.2138 611.664 91.56C610.811 90.9061 610.21 90.0246 609.863 88.9154C609.541 87.8076 609.416 86.5579 609.49 85.1665L609.946 76.5146L606.835 76.3504L607.035 72.5557L610.146 72.7198L610.411 67.7108L614.775 67.941L614.51 72.9501L620.506 73.2664L620.306 77.0611L614.31 76.7448L613.854 85.3968C613.792 86.5605 613.965 87.3814 614.371 87.8594C614.803 88.3135 615.437 88.5626 616.272 88.6066C616.677 88.628 617.109 88.6127 617.568 88.5609C618.054 88.485 618.594 88.3486 619.188 88.1516L620.094 91.8906ZM629.254 70.0748L624.662 69.8326L624.901 65.3169L629.492 65.5591L629.254 70.0748ZM627.933 92.951L623.569 92.7208L624.584 73.4815L628.948 73.7118L627.933 92.951ZM644.177 78.2063C643.544 78.173 642.815 78.2867 641.99 78.5476C641.164 78.8085 640.172 79.3522 639.012 80.179L638.309 93.4984L633.945 93.2682L634.96 74.029L639.096 74.2472L638.96 76.8276C640.204 75.8531 641.369 75.1662 642.456 74.7669C643.544 74.3423 644.631 74.1587 645.719 74.2161C647.566 74.3135 648.939 74.9821 649.837 76.2218C650.737 77.4362 651.131 79.106 651.019 81.231L650.338 94.1331L645.974 93.9028L646.627 81.532C646.739 79.407 645.922 78.2984 644.177 78.2063ZM671.979 97.2155C671.871 99.2646 670.978 100.816 669.298 101.869C667.643 102.948 665.386 103.413 662.528 103.262C661.187 103.191 659.778 102.965 658.302 102.582C656.825 102.2 655.473 101.621 654.245 100.846L655.68 97.4591C656.862 98.1303 658.041 98.6238 659.217 98.9395C660.391 99.2805 661.548 99.481 662.686 99.5411C664.28 99.6252 665.505 99.4742 666.363 99.0882C667.22 98.7022 667.668 98.155 667.705 97.4466C667.763 96.3588 667.146 95.7809 665.856 95.7128L661.302 95.4726C660.063 95.4072 659.074 95.1521 658.337 94.7073C657.599 94.2624 657.07 93.7145 656.749 93.0633C656.429 92.3869 656.288 91.6945 656.326 90.9861C656.365 90.2525 656.552 89.5775 656.889 88.961C657.253 88.3206 657.728 87.7368 658.314 87.2096C657.432 86.605 656.738 85.82 656.231 84.8546C655.749 83.8906 655.543 82.7508 655.612 81.4353C655.691 79.9427 656.072 78.7198 656.757 77.7665C657.441 76.8132 658.34 76.125 659.453 75.7017C660.593 75.2545 661.834 75.0662 663.174 75.1369L663.819 75.171C664.325 75.1977 664.817 75.2616 665.293 75.3629C665.771 75.4389 666.222 75.5514 666.645 75.7006L673.514 76.063L673.318 79.7818L669.555 78.9744C669.913 79.3992 670.177 79.9205 670.348 80.5384C670.545 81.1322 670.621 81.8592 670.575 82.7194C670.507 84.0096 670.119 85.1054 669.412 86.0067C668.732 86.8841 667.834 87.547 666.72 87.9956C665.632 88.4202 664.43 88.5978 663.115 88.5284L662.47 88.4944C661.964 88.4677 661.485 88.4044 661.034 88.3045C660.739 88.5933 660.52 88.8989 660.376 89.2211C660.234 89.518 660.155 89.8056 660.141 90.0839C660.094 90.9693 660.64 91.4421 661.778 91.5021L666.408 91.7464C668.153 91.8385 669.533 92.3679 670.548 93.3347C671.589 94.2775 672.066 95.5711 671.979 97.2155ZM663.303 84.9614C664.087 85.0027 664.784 84.7731 665.394 84.2726C666.029 83.7734 666.374 83.0178 666.427 82.0058C666.48 80.9939 666.217 80.2063 665.638 79.643C665.085 79.0811 664.415 78.7794 663.631 78.738L662.986 78.704C662.177 78.6613 661.454 78.8895 660.819 79.3888C660.209 79.8893 659.878 80.6456 659.824 81.6575C659.771 82.6694 660.021 83.4564 660.575 84.0183C661.154 84.5816 661.848 84.8846 662.658 84.9273L663.303 84.9614ZM679.567 95.6751L674.975 95.4328L675.213 90.9171L679.805 91.1594L679.567 95.6751Z" fill="#FFFCF7"/>
</g>
<defs>
<filter id="filter0_d_189_52" x="0.0266113" y="1.02661" width="739.916" height="142.049" filterUnits="userSpaceOnUse" color-interpolation-filters="sRGB">
<feFlood flood-opacity="0" result="BackgroundImageFix"/>
<feColorMatrix in="SourceAlpha" type="matrix" values="0 0 0 0 0 0 0 0 0 0 0 0 0 0 0 0 0 0 127 0" result="hardAlpha"/>
<feOffset dy="4"/>
<feGaussianBlur stdDeviation="2"/>
<feComposite in2="hardAlpha" operator="out"/>
<feColorMatrix type="matrix" values="0 0 0 0 0 0 0 0 0 0 0 0 0 0 0 0 0 0 0.25 0"/>
<feBlend mode="normal" in2="BackgroundImageFix" result="effect1_dropShadow_189_52"/>
<feBlend mode="normal" in="SourceGraphic" in2="effect1_dropShadow_189_52" result="shape"/>
</filter>
</defs>
</svg>
