<svg width="1440" height="72" viewBox="0 0 1440 72" fill="none" xmlns="http://www.w3.org/2000/svg">
<line y1="0.5" x2="1440" y2="0.5" stroke="#352D24"/>
<line y1="71.5" x2="1440" y2="71.5" stroke="#352D24"/>
<path d="M-122.676 42.778C-120.975 42.778 -120.124 42.1473 -120.124 40.886C-120.124 40.3727 -120.256 39.9693 -120.52 39.676C-120.769 39.3827 -121.239 39.126 -121.928 38.906L-123.732 38.312C-125.888 37.608 -126.966 36.1927 -126.966 34.066C-126.966 32.834 -126.585 31.822 -125.822 31.03C-125.045 30.2233 -123.835 29.82 -122.192 29.82C-121.503 29.82 -120.821 29.9007 -120.146 30.062C-119.471 30.2087 -118.753 30.4507 -117.99 30.788L-118.804 33.054C-119.508 32.7753 -120.109 32.5773 -120.608 32.46C-121.092 32.328 -121.591 32.262 -122.104 32.262C-122.779 32.262 -123.314 32.3867 -123.71 32.636C-124.091 32.8707 -124.282 33.3033 -124.282 33.934C-124.282 34.4033 -124.15 34.792 -123.886 35.1C-123.607 35.3933 -123.153 35.6427 -122.522 35.848L-120.718 36.442C-119.633 36.8087 -118.819 37.344 -118.276 38.048C-117.719 38.7373 -117.44 39.654 -117.44 40.798C-117.44 42.118 -117.858 43.1887 -118.694 44.01C-119.53 44.8167 -120.843 45.22 -122.632 45.22C-123.336 45.22 -124.069 45.1393 -124.832 44.978C-125.58 44.802 -126.401 44.5087 -127.296 44.098L-126.482 41.832C-125.661 42.184 -124.964 42.4333 -124.392 42.58C-123.805 42.712 -123.233 42.778 -122.676 42.778ZM-112.345 37.278V45H-114.875V33.846H-112.477V35.32C-111.788 34.7187 -111.15 34.286 -110.563 34.022C-109.977 33.758 -109.375 33.626 -108.759 33.626C-107.395 33.626 -106.464 34.2273 -105.965 35.43C-105.232 34.7847 -104.55 34.3227 -103.919 34.044C-103.289 33.7653 -102.651 33.626 -102.005 33.626C-100.979 33.626 -100.194 33.9707 -99.6513 34.66C-99.1086 35.3347 -98.8373 36.288 -98.8373 37.52V45H-101.367V37.828C-101.367 36.596 -101.837 35.98 -102.775 35.98C-103.142 35.98 -103.545 36.068 -103.985 36.244C-104.425 36.42 -104.961 36.7647 -105.591 37.278V45H-108.121V37.828C-108.121 36.596 -108.591 35.98 -109.529 35.98C-109.896 35.98 -110.299 36.068 -110.739 36.244C-111.179 36.42 -111.715 36.7647 -112.345 37.278ZM-87.0484 45.11C-87.7964 45.11 -88.3977 44.956 -88.8524 44.648C-89.2924 44.34 -89.615 43.9587 -89.8204 43.504C-90.451 44.0907 -91.0597 44.5233 -91.6464 44.802C-92.233 45.0807 -92.8637 45.22 -93.5384 45.22C-94.521 45.22 -95.247 44.9047 -95.7164 44.274C-96.171 43.6433 -96.3984 42.844 -96.3984 41.876C-96.3984 41.2307 -96.281 40.666 -96.0464 40.182C-95.797 39.6833 -95.3937 39.2947 -94.8364 39.016C-94.279 38.7373 -93.5164 38.598 -92.5484 38.598C-92.167 38.598 -91.771 38.6273 -91.3604 38.686C-90.9497 38.73 -90.539 38.7887 -90.1284 38.862V37.564C-90.1284 36.948 -90.297 36.53 -90.6344 36.31C-90.9717 36.0753 -91.4264 35.958 -91.9984 35.958C-92.4384 35.958 -92.9224 36.0167 -93.4504 36.134C-93.9637 36.2513 -94.521 36.4347 -95.1224 36.684L-95.8484 34.528C-94.367 33.9267 -93.025 33.626 -91.8224 33.626C-90.737 33.626 -89.901 33.8093 -89.3144 34.176C-88.713 34.5427 -88.295 35.0267 -88.0604 35.628C-87.8257 36.2293 -87.7084 36.8747 -87.7084 37.564V41.854C-87.7084 42.074 -87.6497 42.2867 -87.5324 42.492C-87.4004 42.6827 -87.151 42.778 -86.7844 42.778H-86.5424V45.11H-87.0484ZM-93.9564 41.832C-93.9564 42.228 -93.8684 42.5433 -93.6924 42.778C-93.5164 42.998 -93.2597 43.108 -92.9224 43.108C-92.585 43.108 -92.2037 43.02 -91.7784 42.844C-91.353 42.668 -90.803 42.2573 -90.1284 41.612V40.666C-90.891 40.534 -91.639 40.468 -92.3724 40.468C-92.9444 40.468 -93.355 40.5853 -93.6044 40.82C-93.839 41.0547 -93.9564 41.392 -93.9564 41.832ZM-78.054 36.156C-78.7433 36.156 -79.4033 36.266 -80.034 36.486C-80.65 36.6913 -81.244 37.0287 -81.816 37.498V45H-84.346V33.846H-81.948V35.562C-81.2 34.858 -80.5327 34.3593 -79.946 34.066C-79.3593 33.7727 -78.7287 33.626 -78.054 33.626V36.156ZM-69.1282 44.626C-69.5095 44.802 -69.9495 44.9413 -70.4482 45.044C-70.9468 45.1613 -71.4528 45.22 -71.9662 45.22C-72.8168 45.22 -73.4988 45.044 -74.0122 44.692C-74.5255 44.34 -74.8995 43.8487 -75.1342 43.218C-75.3542 42.5873 -75.4642 41.8687 -75.4642 41.062V36.046H-77.2682V33.846H-75.4642V30.942H-72.9342V33.846H-69.4582V36.046H-72.9342V41.062C-72.9342 41.7367 -72.8095 42.206 -72.5602 42.47C-72.2962 42.7193 -71.9222 42.844 -71.4382 42.844C-71.2035 42.844 -70.9542 42.822 -70.6902 42.778C-70.4115 42.7193 -70.1035 42.624 -69.7662 42.492L-69.1282 44.626ZM-58.624 44.362C-59.3867 44.67 -60.1054 44.89 -60.78 45.022C-61.4547 45.154 -62.0927 45.22 -62.694 45.22C-64.3514 45.22 -65.6054 44.7507 -66.456 43.812C-67.3067 42.8733 -67.732 41.6267 -67.732 40.072V38.752C-67.732 37.7107 -67.5414 36.8087 -67.16 36.046C-66.7787 35.2833 -66.236 34.6893 -65.532 34.264C-64.828 33.8387 -63.9994 33.626 -63.046 33.626C-62.2687 33.626 -61.5427 33.7873 -60.868 34.11C-60.1787 34.418 -59.6214 34.9093 -59.196 35.584C-58.756 36.244 -58.536 37.0947 -58.536 38.136C-58.536 38.444 -58.558 38.774 -58.602 39.126C-58.646 39.4633 -58.7194 39.8227 -58.822 40.204H-65.29C-65.2607 41.1133 -65.0334 41.7953 -64.608 42.25C-64.1827 42.7047 -63.5007 42.932 -62.562 42.932C-62.0634 42.932 -61.55 42.8733 -61.022 42.756C-60.4794 42.6387 -59.922 42.4627 -59.35 42.228L-58.624 44.362ZM-63.046 35.76C-63.7207 35.76 -64.2487 35.98 -64.63 36.42C-64.9967 36.8453 -65.2094 37.4613 -65.268 38.268H-61.044C-61.0294 38.1947 -61.022 38.1287 -61.022 38.07C-61.022 37.9967 -61.022 37.9307 -61.022 37.872C-61.022 37.168 -61.22 36.64 -61.616 36.288C-62.012 35.936 -62.4887 35.76 -63.046 35.76ZM-49.3294 36.156C-50.0187 36.156 -50.6787 36.266 -51.3094 36.486C-51.9254 36.6913 -52.5194 37.0287 -53.0914 37.498V45H-55.6214V33.846H-53.2234V35.562C-52.4754 34.858 -51.808 34.3593 -51.2214 34.066C-50.6347 33.7727 -50.004 33.626 -49.3294 33.626V36.156ZM-39.7393 39.5V45H-42.3793V30.04H-37.3853C-35.8746 30.04 -34.7159 30.4287 -33.9093 31.206C-33.0879 31.9687 -32.6773 32.9953 -32.6773 34.286V35.232C-32.6773 36.0827 -32.8606 36.8307 -33.2273 37.476C-33.5939 38.1213 -34.1219 38.6127 -34.8113 38.95C-33.6086 41.0033 -32.5819 43.02 -31.7313 45H-34.7453C-35.4786 43.1667 -36.3513 41.3333 -37.3633 39.5H-39.7393ZM-37.3853 32.46H-39.7393V37.08H-37.3853C-36.7399 37.08 -36.2486 36.9187 -35.9113 36.596C-35.5593 36.2587 -35.3833 35.804 -35.3833 35.232V34.286C-35.3833 33.7287 -35.5593 33.2887 -35.9113 32.966C-36.2486 32.6287 -36.7399 32.46 -37.3853 32.46ZM-20.833 44.362C-21.5957 44.67 -22.3143 44.89 -22.989 45.022C-23.6637 45.154 -24.3017 45.22 -24.903 45.22C-26.5603 45.22 -27.8143 44.7507 -28.665 43.812C-29.5157 42.8733 -29.941 41.6267 -29.941 40.072V38.752C-29.941 37.7107 -29.7503 36.8087 -29.369 36.046C-28.9877 35.2833 -28.445 34.6893 -27.741 34.264C-27.037 33.8387 -26.2083 33.626 -25.255 33.626C-24.4777 33.626 -23.7517 33.7873 -23.077 34.11C-22.3877 34.418 -21.8303 34.9093 -21.405 35.584C-20.965 36.244 -20.745 37.0947 -20.745 38.136C-20.745 38.444 -20.767 38.774 -20.811 39.126C-20.855 39.4633 -20.9283 39.8227 -21.031 40.204H-27.499C-27.4697 41.1133 -27.2423 41.7953 -26.817 42.25C-26.3917 42.7047 -25.7097 42.932 -24.771 42.932C-24.2723 42.932 -23.759 42.8733 -23.231 42.756C-22.6883 42.6387 -22.131 42.4627 -21.559 42.228L-20.833 44.362ZM-25.255 35.76C-25.9297 35.76 -26.4577 35.98 -26.839 36.42C-27.2057 36.8453 -27.4183 37.4613 -27.477 38.268H-23.253C-23.2383 38.1947 -23.231 38.1287 -23.231 38.07C-23.231 37.9967 -23.231 37.9307 -23.231 37.872C-23.231 37.168 -23.429 36.64 -23.825 36.288C-24.221 35.936 -24.6977 35.76 -25.255 35.76ZM-13.0564 45.22C-13.423 45.22 -13.797 45.1833 -14.1784 45.11C-14.545 45.0367 -14.919 44.934 -15.3004 44.802V49.686H-17.8304V33.846H-15.4324V35.364C-14.743 34.6747 -14.1564 34.2127 -13.6724 33.978C-13.1884 33.7433 -12.6824 33.626 -12.1544 33.626C-10.937 33.626 -9.99836 34.0807 -9.33836 34.99C-8.67836 35.8993 -8.34836 37.1753 -8.34836 38.818V40.006C-8.34836 41.6047 -8.75169 42.8733 -9.55836 43.812C-10.365 44.7507 -11.531 45.22 -13.0564 45.22ZM-12.8364 35.98C-13.1737 35.98 -13.533 36.0827 -13.9144 36.288C-14.281 36.4787 -14.743 36.8527 -15.3004 37.41V42.514C-14.5817 42.8073 -13.9217 42.954 -13.3204 42.954C-12.4697 42.954 -11.861 42.69 -11.4944 42.162C-11.1277 41.634 -10.9444 40.9153 -10.9444 40.006V38.818C-10.9444 37.8353 -11.113 37.1167 -11.4504 36.662C-11.773 36.2073 -12.235 35.98 -12.8364 35.98ZM3.05761 44.362C2.29494 44.67 1.57628 44.89 0.90161 45.022C0.226943 45.154 -0.411057 45.22 -1.01239 45.22C-2.66972 45.22 -3.92372 44.7507 -4.77439 43.812C-5.62506 42.8733 -6.05039 41.6267 -6.05039 40.072V38.752C-6.05039 37.7107 -5.85972 36.8087 -5.47839 36.046C-5.09706 35.2833 -4.55439 34.6893 -3.85039 34.264C-3.14639 33.8387 -2.31772 33.626 -1.36439 33.626C-0.587057 33.626 0.138943 33.7873 0.81361 34.11C1.50294 34.418 2.06028 34.9093 2.48561 35.584C2.92561 36.244 3.14561 37.0947 3.14561 38.136C3.14561 38.444 3.12361 38.774 3.07961 39.126C3.03561 39.4633 2.96228 39.8227 2.85961 40.204H-3.60839C-3.57906 41.1133 -3.35172 41.7953 -2.92639 42.25C-2.50106 42.7047 -1.81906 42.932 -0.88039 42.932C-0.381724 42.932 0.13161 42.8733 0.65961 42.756C1.20228 42.6387 1.75961 42.4627 2.33161 42.228L3.05761 44.362ZM-1.36439 35.76C-2.03906 35.76 -2.56706 35.98 -2.94839 36.42C-3.31506 36.8453 -3.52772 37.4613 -3.58639 38.268H0.637609C0.652276 38.1947 0.65961 38.1287 0.65961 38.07C0.65961 37.9967 0.65961 37.9307 0.65961 37.872C0.65961 37.168 0.46161 36.64 0.0656096 36.288C-0.33039 35.936 -0.807057 35.76 -1.36439 35.76ZM12.7703 44.626C12.3889 44.802 11.9489 44.9413 11.4503 45.044C10.9516 45.1613 10.4456 45.22 9.93227 45.22C9.0816 45.22 8.3996 45.044 7.88627 44.692C7.37293 44.34 6.99893 43.8487 6.76427 43.218C6.54427 42.5873 6.43427 41.8687 6.43427 41.062V36.046H4.63027V33.846H6.43427V30.942H8.96427V33.846H12.4403V36.046H8.96427V41.062C8.96427 41.7367 9.08893 42.206 9.33827 42.47C9.60227 42.7193 9.97627 42.844 10.4603 42.844C10.6949 42.844 10.9443 42.822 11.2083 42.778C11.4869 42.7193 11.7949 42.624 12.1323 42.492L12.7703 44.626ZM17.4004 31.734H14.7384V29.116H17.4004V31.734ZM17.3344 45H14.8044V33.846H17.3344V45ZM27.53 44.626C27.1487 44.802 26.7087 44.9413 26.21 45.044C25.7114 45.1613 25.2054 45.22 24.692 45.22C23.8414 45.22 23.1594 45.044 22.646 44.692C22.1327 44.34 21.7587 43.8487 21.524 43.218C21.304 42.5873 21.194 41.8687 21.194 41.062V36.046H19.39V33.846H21.194V30.942H23.724V33.846H27.2V36.046H23.724V41.062C23.724 41.7367 23.8487 42.206 24.098 42.47C24.362 42.7193 24.736 42.844 25.22 42.844C25.4547 42.844 25.704 42.822 25.968 42.778C26.2467 42.7193 26.5547 42.624 26.892 42.492L27.53 44.626ZM32.1602 31.734H29.4982V29.116H32.1602V31.734ZM32.0942 45H29.5642V33.846H32.0942V45ZM44.7098 38.752V40.072C44.7098 41.6267 44.2845 42.8733 43.4338 43.812C42.5831 44.7507 41.3805 45.22 39.8258 45.22C38.2711 45.22 37.0685 44.7507 36.2178 43.812C35.3671 42.8733 34.9418 41.6267 34.9418 40.072V38.752C34.9418 37.1973 35.3598 35.958 36.1958 35.034C37.0465 34.0953 38.2565 33.626 39.8258 33.626C41.3951 33.626 42.5978 34.0953 43.4338 35.034C44.2845 35.958 44.7098 37.1973 44.7098 38.752ZM42.1138 38.752C42.1138 37.8573 41.9158 37.1607 41.5198 36.662C41.1238 36.1487 40.5591 35.892 39.8258 35.892C39.0925 35.892 38.5278 36.1487 38.1318 36.662C37.7358 37.1607 37.5378 37.8573 37.5378 38.752V40.072C37.5378 40.9667 37.7358 41.6707 38.1318 42.184C38.5278 42.6973 39.0925 42.954 39.8258 42.954C40.5591 42.954 41.1238 42.6973 41.5198 42.184C41.9158 41.6707 42.1138 40.9667 42.1138 40.072V38.752ZM53.0026 35.98C52.6359 35.98 52.2179 36.068 51.7486 36.244C51.2793 36.42 50.7219 36.7647 50.0766 37.278V45H47.5466V33.846H49.9446V35.342C50.6339 34.7407 51.2866 34.308 51.9026 34.044C52.5186 33.7653 53.1419 33.626 53.7726 33.626C54.8433 33.626 55.6573 33.9707 56.2146 34.66C56.7719 35.3347 57.0506 36.288 57.0506 37.52V45H54.5206V37.828C54.5206 36.596 54.0146 35.98 53.0026 35.98Z" fill="#352D24"/>
<path fill-rule="evenodd" clip-rule="evenodd" d="M1176.09 25.0862C1176.09 24.4863 1175.6 24 1175 24C1174.4 24 1173.91 24.4863 1173.91 25.0862V32.412L1171.17 25.6197C1170.94 25.0635 1170.31 24.7947 1169.76 25.0195C1169.2 25.2442 1168.93 25.8773 1169.16 26.4335L1171.99 33.4568L1166.64 28.1005C1166.21 27.6763 1165.52 27.6763 1165.1 28.1005C1164.68 28.5247 1164.68 29.2124 1165.1 29.6366L1170.28 34.8168L1163.54 31.9543C1162.99 31.7199 1162.35 31.9776 1162.11 32.5298C1161.88 33.082 1162.14 33.7197 1162.69 33.9541L1169.66 36.9138H1162.09C1161.49 36.9138 1161 37.4001 1161 38C1161 38.5999 1161.49 39.0862 1162.09 39.0862H1169.41L1162.62 41.8305C1162.06 42.0552 1161.79 42.6883 1162.02 43.2445C1162.24 43.8007 1162.88 44.0695 1163.43 43.8447L1170.46 41.0071L1165.1 46.3634C1164.68 46.7875 1164.68 47.4753 1165.1 47.8995C1165.52 48.3237 1166.21 48.3237 1166.64 47.8995L1171.82 42.7194L1168.95 49.4628C1168.72 50.015 1168.98 50.6527 1169.53 50.8871C1170.08 51.1215 1170.72 50.8639 1170.95 50.3116L1173.91 43.3389V50.9138C1173.91 51.5137 1174.4 52 1175 52C1175.6 52 1176.09 51.5137 1176.09 50.9138V43.5881L1178.83 50.3804C1179.06 50.9366 1179.69 51.2053 1180.24 50.9806C1180.8 50.7559 1181.07 50.1228 1180.84 49.5666L1178.01 42.5432L1183.36 47.8995C1183.79 48.3237 1184.48 48.3237 1184.9 47.8995C1185.32 47.4753 1185.32 46.7876 1184.9 46.3634L1179.72 41.1833L1186.46 44.0457C1187.02 44.2801 1187.65 44.0225 1187.89 43.4703C1188.12 42.9181 1187.86 42.2804 1187.31 42.046L1180.34 39.0862H1187.91C1188.51 39.0862 1189 38.5999 1189 38C1189 37.4001 1188.51 36.9138 1187.91 36.9138H1180.59L1187.38 34.1696C1187.94 33.9448 1188.21 33.3118 1187.98 32.7555C1187.76 32.1993 1187.12 31.9306 1186.57 32.1553L1179.54 34.993L1184.9 29.6366C1185.32 29.2124 1185.32 28.5247 1184.9 28.1005C1184.48 27.6763 1183.79 27.6763 1183.36 28.1005L1178.18 33.2805L1181.05 26.5372C1181.28 25.985 1181.02 25.3474 1180.47 25.113C1179.92 24.8786 1179.28 25.1362 1179.05 25.6884L1176.09 32.6612V25.0862Z" fill="#352D24"/>
<path fill-rule="evenodd" clip-rule="evenodd" d="M804.086 25.0862C804.086 24.4863 803.6 24 803 24C802.4 24 801.914 24.4863 801.914 25.0862V32.412L799.17 25.6197C798.945 25.0635 798.312 24.7947 797.756 25.0195C797.199 25.2442 796.931 25.8773 797.155 26.4335L799.993 33.4568L794.637 28.1005C794.212 27.6763 793.525 27.6763 793.101 28.1005C792.676 28.5247 792.676 29.2124 793.101 29.6366L798.281 34.8168L791.537 31.9543C790.985 31.7199 790.347 31.9776 790.113 32.5298C789.879 33.082 790.136 33.7197 790.688 33.9541L797.661 36.9138H790.086C789.486 36.9138 789 37.4001 789 38C789 38.5999 789.486 39.0862 790.086 39.0862H797.412L790.62 41.8305C790.063 42.0552 789.795 42.6883 790.019 43.2445C790.244 43.8007 790.877 44.0695 791.433 43.8447L798.457 41.0071L793.101 46.3634C792.676 46.7875 792.676 47.4753 793.101 47.8995C793.525 48.3237 794.212 48.3237 794.637 47.8995L799.817 42.7194L796.954 49.4628C796.72 50.015 796.978 50.6527 797.53 50.8871C798.082 51.1215 798.72 50.8639 798.954 50.3116L801.914 43.3389V50.9138C801.914 51.5137 802.4 52 803 52C803.6 52 804.086 51.5137 804.086 50.9138V43.5881L806.83 50.3804C807.055 50.9366 807.688 51.2053 808.245 50.9806C808.801 50.7559 809.069 50.1228 808.845 49.5666L806.007 42.5432L811.363 47.8995C811.788 48.3237 812.475 48.3237 812.9 47.8995C813.324 47.4753 813.324 46.7876 812.9 46.3634L807.719 41.1833L814.463 44.0457C815.015 44.2801 815.653 44.0225 815.887 43.4703C816.121 42.9181 815.864 42.2804 815.312 42.046L808.339 39.0862H815.914C816.514 39.0862 817 38.5999 817 38C817 37.4001 816.514 36.9138 815.914 36.9138H808.588L815.38 34.1696C815.937 33.9448 816.205 33.3118 815.981 32.7555C815.756 32.1993 815.123 31.9306 814.567 32.1553L807.543 34.993L812.9 29.6366C813.324 29.2124 813.324 28.5247 812.9 28.1005C812.475 27.6763 811.788 27.6763 811.363 28.1005L806.183 33.2805L809.046 26.5372C809.28 25.985 809.022 25.3474 808.47 25.113C807.918 24.8786 807.28 25.1362 807.046 25.6884L804.086 32.6612V25.0862Z" fill="#352D24"/>
<path fill-rule="evenodd" clip-rule="evenodd" d="M488.086 25.0862C488.086 24.4863 487.6 24 487 24C486.4 24 485.914 24.4863 485.914 25.0862V32.412L483.17 25.6197C482.945 25.0635 482.312 24.7947 481.756 25.0195C481.199 25.2442 480.931 25.8773 481.155 26.4335L483.993 33.4568L478.637 28.1005C478.212 27.6763 477.525 27.6763 477.101 28.1005C476.676 28.5247 476.676 29.2124 477.101 29.6366L482.281 34.8168L475.537 31.9543C474.985 31.7199 474.347 31.9776 474.113 32.5298C473.879 33.082 474.136 33.7197 474.688 33.9541L481.661 36.9138H474.086C473.486 36.9138 473 37.4001 473 38C473 38.5999 473.486 39.0862 474.086 39.0862H481.412L474.62 41.8305C474.063 42.0552 473.795 42.6883 474.019 43.2445C474.244 43.8007 474.877 44.0695 475.433 43.8447L482.457 41.0071L477.101 46.3634C476.676 46.7875 476.676 47.4753 477.101 47.8995C477.525 48.3237 478.212 48.3237 478.637 47.8995L483.817 42.7194L480.954 49.4628C480.72 50.015 480.978 50.6527 481.53 50.8871C482.082 51.1215 482.72 50.8639 482.954 50.3116L485.914 43.3389V50.9138C485.914 51.5137 486.4 52 487 52C487.6 52 488.086 51.5137 488.086 50.9138V43.5881L490.83 50.3804C491.055 50.9366 491.688 51.2053 492.245 50.9806C492.801 50.7559 493.069 50.1228 492.845 49.5666L490.007 42.5432L495.363 47.8995C495.788 48.3237 496.475 48.3237 496.9 47.8995C497.324 47.4753 497.324 46.7876 496.9 46.3634L491.719 41.1833L498.463 44.0457C499.015 44.2801 499.653 44.0225 499.887 43.4703C500.121 42.9181 499.864 42.2804 499.312 42.046L492.339 39.0862H499.914C500.514 39.0862 501 38.5999 501 38C501 37.4001 500.514 36.9138 499.914 36.9138H492.588L499.38 34.1696C499.937 33.9448 500.205 33.3118 499.981 32.7555C499.756 32.1993 499.123 31.9306 498.567 32.1553L491.543 34.993L496.9 29.6366C497.324 29.2124 497.324 28.5247 496.9 28.1005C496.475 27.6763 495.788 27.6763 495.363 28.1005L490.183 33.2805L493.046 26.5372C493.28 25.985 493.022 25.3474 492.47 25.113C491.918 24.8786 491.28 25.1362 491.046 25.6884L488.086 32.6612V25.0862Z" fill="#352D24"/>
<path fill-rule="evenodd" clip-rule="evenodd" d="M144.086 25.0862C144.086 24.4863 143.6 24 143 24C142.4 24 141.914 24.4863 141.914 25.0862V32.412L139.17 25.6197C138.945 25.0635 138.312 24.7947 137.756 25.0195C137.199 25.2442 136.931 25.8773 137.155 26.4335L139.993 33.4568L134.637 28.1005C134.212 27.6763 133.525 27.6763 133.101 28.1005C132.676 28.5247 132.676 29.2124 133.101 29.6366L138.281 34.8168L131.537 31.9543C130.985 31.7199 130.347 31.9776 130.113 32.5298C129.879 33.082 130.136 33.7197 130.688 33.9541L137.661 36.9138H130.086C129.486 36.9138 129 37.4001 129 38C129 38.5999 129.486 39.0862 130.086 39.0862H137.412L130.62 41.8305C130.063 42.0552 129.795 42.6883 130.019 43.2445C130.244 43.8007 130.877 44.0695 131.433 43.8447L138.457 41.0071L133.101 46.3634C132.676 46.7875 132.676 47.4753 133.101 47.8995C133.525 48.3237 134.212 48.3237 134.637 47.8995L139.817 42.7194L136.954 49.4628C136.72 50.015 136.978 50.6527 137.53 50.8871C138.082 51.1215 138.72 50.8639 138.954 50.3116L141.914 43.3389V50.9138C141.914 51.5137 142.4 52 143 52C143.6 52 144.086 51.5137 144.086 50.9138V43.5881L146.83 50.3804C147.055 50.9366 147.688 51.2053 148.245 50.9806C148.801 50.7559 149.069 50.1228 148.845 49.5666L146.007 42.5432L151.363 47.8995C151.788 48.3237 152.475 48.3237 152.9 47.8995C153.324 47.4753 153.324 46.7876 152.9 46.3634L147.719 41.1833L154.463 44.0457C155.015 44.2801 155.653 44.0225 155.887 43.4703C156.121 42.9181 155.864 42.2804 155.312 42.046L148.339 39.0862H155.914C156.514 39.0862 157 38.5999 157 38C157 37.4001 156.514 36.9138 155.914 36.9138H148.588L155.38 34.1696C155.937 33.9448 156.205 33.3118 155.981 32.7555C155.756 32.1993 155.123 31.9306 154.567 32.1553L147.543 34.993L152.9 29.6366C153.324 29.2124 153.324 28.5247 152.9 28.1005C152.475 27.6763 151.788 27.6763 151.363 28.1005L146.183 33.2805L149.046 26.5372C149.28 25.985 149.022 25.3474 148.47 25.113C147.918 24.8786 147.28 25.1362 147.046 25.6884L144.086 32.6612V25.0862Z" fill="#352D24"/>
<path d="M1261.84 41.98C1263.39 41.98 1264.16 41.4067 1264.16 40.26C1264.16 39.7933 1264.04 39.4267 1263.8 39.16C1263.57 38.8933 1263.15 38.66 1262.52 38.46L1260.88 37.92C1258.92 37.28 1257.94 35.9933 1257.94 34.06C1257.94 32.94 1258.29 32.02 1258.98 31.3C1259.69 30.5667 1260.79 30.2 1262.28 30.2C1262.91 30.2 1263.53 30.2733 1264.14 30.42C1264.75 30.5533 1265.41 30.7733 1266.1 31.08L1265.36 33.14C1264.72 32.8867 1264.17 32.7067 1263.72 32.6C1263.28 32.48 1262.83 32.42 1262.36 32.42C1261.75 32.42 1261.26 32.5333 1260.9 32.76C1260.55 32.9733 1260.38 33.3667 1260.38 33.94C1260.38 34.3667 1260.5 34.72 1260.74 35C1260.99 35.2667 1261.41 35.4933 1261.98 35.68L1263.62 36.22C1264.61 36.5533 1265.35 37.04 1265.84 37.68C1266.35 38.3067 1266.6 39.14 1266.6 40.18C1266.6 41.38 1266.22 42.3533 1265.46 43.1C1264.7 43.8333 1263.51 44.2 1261.88 44.2C1261.24 44.2 1260.57 44.1267 1259.88 43.98C1259.2 43.82 1258.45 43.5533 1257.64 43.18L1258.38 41.12C1259.13 41.44 1259.76 41.6667 1260.28 41.8C1260.81 41.92 1261.33 41.98 1261.84 41.98ZM1273.27 44.2C1272.94 44.2 1272.6 44.1667 1272.25 44.1C1271.92 44.0333 1271.58 43.94 1271.23 43.82V48.26H1268.93V33.86H1271.11V35.24C1271.74 34.6133 1272.27 34.1933 1272.71 33.98C1273.15 33.7667 1273.61 33.66 1274.09 33.66C1275.2 33.66 1276.05 34.0733 1276.65 34.9C1277.25 35.7267 1277.55 36.8867 1277.55 38.38V39.46C1277.55 40.9133 1277.18 42.0667 1276.45 42.92C1275.72 43.7733 1274.66 44.2 1273.27 44.2ZM1273.47 35.8C1273.16 35.8 1272.84 35.8933 1272.49 36.08C1272.16 36.2533 1271.74 36.5933 1271.23 37.1V41.74C1271.88 42.0067 1272.48 42.14 1273.03 42.14C1273.8 42.14 1274.36 41.9 1274.69 41.42C1275.02 40.94 1275.19 40.2867 1275.19 39.46V38.38C1275.19 37.4867 1275.04 36.8333 1274.73 36.42C1274.44 36.0067 1274.02 35.8 1273.47 35.8ZM1287.9 44.1C1287.22 44.1 1286.67 43.96 1286.26 43.68C1285.86 43.4 1285.57 43.0533 1285.38 42.64C1284.81 43.1733 1284.25 43.5667 1283.72 43.82C1283.19 44.0733 1282.61 44.2 1282 44.2C1281.11 44.2 1280.45 43.9133 1280.02 43.34C1279.61 42.7667 1279.4 42.04 1279.4 41.16C1279.4 40.5733 1279.51 40.06 1279.72 39.62C1279.95 39.1667 1280.31 38.8133 1280.82 38.56C1281.33 38.3067 1282.02 38.18 1282.9 38.18C1283.25 38.18 1283.61 38.2067 1283.98 38.26C1284.35 38.3 1284.73 38.3533 1285.1 38.42V37.24C1285.1 36.68 1284.95 36.3 1284.64 36.1C1284.33 35.8867 1283.92 35.78 1283.4 35.78C1283 35.78 1282.56 35.8333 1282.08 35.94C1281.61 36.0467 1281.11 36.2133 1280.56 36.44L1279.9 34.48C1281.25 33.9333 1282.47 33.66 1283.56 33.66C1284.55 33.66 1285.31 33.8267 1285.84 34.16C1286.39 34.4933 1286.77 34.9333 1286.98 35.48C1287.19 36.0267 1287.3 36.6133 1287.3 37.24V41.14C1287.3 41.34 1287.35 41.5333 1287.46 41.72C1287.58 41.8933 1287.81 41.98 1288.14 41.98H1288.36V44.1H1287.9ZM1281.62 41.12C1281.62 41.48 1281.7 41.7667 1281.86 41.98C1282.02 42.18 1282.25 42.28 1282.56 42.28C1282.87 42.28 1283.21 42.2 1283.6 42.04C1283.99 41.88 1284.49 41.5067 1285.1 40.92V40.06C1284.41 39.94 1283.73 39.88 1283.06 39.88C1282.54 39.88 1282.17 39.9867 1281.94 40.2C1281.73 40.4133 1281.62 40.72 1281.62 41.12ZM1292.12 38.34V39.52C1292.12 40.3733 1292.27 41.0133 1292.58 41.44C1292.88 41.8667 1293.38 42.08 1294.06 42.08C1294.39 42.08 1294.76 42.04 1295.18 41.96C1295.6 41.8667 1296.06 41.7267 1296.56 41.54L1297.22 43.48C1296.62 43.72 1296.05 43.9 1295.52 44.02C1294.98 44.14 1294.46 44.2 1293.94 44.2C1292.6 44.2 1291.58 43.7733 1290.88 42.92C1290.17 42.0667 1289.82 40.9333 1289.82 39.52V38.34C1289.82 36.9133 1290.17 35.78 1290.88 34.94C1291.58 34.0867 1292.6 33.66 1293.94 33.66C1294.44 33.66 1294.96 33.72 1295.48 33.84C1296 33.96 1296.54 34.1333 1297.12 34.36L1296.46 36.34C1295.5 35.9667 1294.7 35.78 1294.06 35.78C1293.38 35.78 1292.88 35.9933 1292.58 36.42C1292.27 36.8333 1292.12 37.4733 1292.12 38.34ZM1307.02 43.42C1306.33 43.7 1305.68 43.9 1305.06 44.02C1304.45 44.14 1303.87 44.2 1303.32 44.2C1301.82 44.2 1300.68 43.7733 1299.9 42.92C1299.13 42.0667 1298.74 40.9333 1298.74 39.52V38.32C1298.74 37.3733 1298.92 36.5533 1299.26 35.86C1299.61 35.1667 1300.1 34.6267 1300.74 34.24C1301.38 33.8533 1302.14 33.66 1303 33.66C1303.71 33.66 1304.37 33.8067 1304.98 34.1C1305.61 34.38 1306.12 34.8267 1306.5 35.44C1306.9 36.04 1307.1 36.8133 1307.1 37.76C1307.1 38.04 1307.08 38.34 1307.04 38.66C1307 38.9667 1306.94 39.2933 1306.84 39.64H1300.96C1300.99 40.4667 1301.2 41.0867 1301.58 41.5C1301.97 41.9133 1302.59 42.12 1303.44 42.12C1303.9 42.12 1304.36 42.0667 1304.84 41.96C1305.34 41.8533 1305.84 41.6933 1306.36 41.48L1307.02 43.42ZM1303 35.6C1302.39 35.6 1301.91 35.8 1301.56 36.2C1301.23 36.5867 1301.04 37.1467 1300.98 37.88H1304.82C1304.84 37.8133 1304.84 37.7533 1304.84 37.7C1304.84 37.6333 1304.84 37.5733 1304.84 37.52C1304.84 36.88 1304.66 36.4 1304.3 36.08C1303.94 35.76 1303.51 35.6 1303 35.6ZM1315.69 44V42.62C1315.08 43.2333 1314.55 43.6533 1314.09 43.88C1313.65 44.0933 1313.19 44.2 1312.71 44.2C1311.62 44.2 1310.77 43.7867 1310.15 42.96C1309.55 42.1333 1309.25 40.9733 1309.25 39.48V38.4C1309.25 36.9467 1309.62 35.7933 1310.35 34.94C1311.09 34.0867 1312.15 33.66 1313.53 33.66C1313.88 33.66 1314.22 33.6933 1314.55 33.76C1314.9 33.8267 1315.24 33.92 1315.57 34.04V29.2H1317.87V44H1315.69ZM1311.61 39.48C1311.61 40.3733 1311.76 41.0267 1312.05 41.44C1312.36 41.8533 1312.79 42.06 1313.33 42.06C1313.64 42.06 1313.97 41.9733 1314.31 41.8C1314.66 41.6133 1315.08 41.2667 1315.57 40.76V36.12C1314.92 35.8533 1314.32 35.72 1313.77 35.72C1313 35.72 1312.45 35.96 1312.11 36.44C1311.78 36.92 1311.61 37.5733 1311.61 38.4V39.48ZM1330.9 35.86H1327.74V44H1325.44V35.86H1323.8V33.86H1325.44V32.8C1325.44 31.6933 1325.72 30.7867 1326.28 30.08C1326.84 29.36 1327.74 29 1328.98 29C1329.44 29 1329.9 29.0467 1330.38 29.14C1330.86 29.2333 1331.3 29.3533 1331.68 29.5L1331.12 31.48C1330.48 31.2667 1329.91 31.16 1329.4 31.16C1328.87 31.16 1328.46 31.28 1328.16 31.52C1327.88 31.7467 1327.74 32.1733 1327.74 32.8V33.86H1330.9V35.86ZM1340.88 38.32V39.52C1340.88 40.9333 1340.5 42.0667 1339.72 42.92C1338.95 43.7733 1337.86 44.2 1336.44 44.2C1335.03 44.2 1333.94 43.7733 1333.16 42.92C1332.39 42.0667 1332 40.9333 1332 39.52V38.32C1332 36.9067 1332.38 35.78 1333.14 34.94C1333.92 34.0867 1335.02 33.66 1336.44 33.66C1337.87 33.66 1338.96 34.0867 1339.72 34.94C1340.5 35.78 1340.88 36.9067 1340.88 38.32ZM1338.52 38.32C1338.52 37.5067 1338.34 36.8733 1337.98 36.42C1337.62 35.9533 1337.11 35.72 1336.44 35.72C1335.78 35.72 1335.26 35.9533 1334.9 36.42C1334.54 36.8733 1334.36 37.5067 1334.36 38.32V39.52C1334.36 40.3333 1334.54 40.9733 1334.9 41.44C1335.26 41.9067 1335.78 42.14 1336.44 42.14C1337.11 42.14 1337.62 41.9067 1337.98 41.44C1338.34 40.9733 1338.52 40.3333 1338.52 39.52V38.32ZM1349.18 35.96C1348.56 35.96 1347.96 36.06 1347.38 36.26C1346.82 36.4467 1346.28 36.7533 1345.76 37.18V44H1343.46V33.86H1345.64V35.42C1346.32 34.78 1346.93 34.3267 1347.46 34.06C1348 33.7933 1348.57 33.66 1349.18 33.66V35.96ZM1358.46 41.98C1360.01 41.98 1360.78 41.4067 1360.78 40.26C1360.78 39.7933 1360.66 39.4267 1360.42 39.16C1360.19 38.8933 1359.77 38.66 1359.14 38.46L1357.5 37.92C1355.54 37.28 1354.56 35.9933 1354.56 34.06C1354.56 32.94 1354.91 32.02 1355.6 31.3C1356.31 30.5667 1357.41 30.2 1358.9 30.2C1359.53 30.2 1360.15 30.2733 1360.76 30.42C1361.37 30.5533 1362.03 30.7733 1362.72 31.08L1361.98 33.14C1361.34 32.8867 1360.79 32.7067 1360.34 32.6C1359.9 32.48 1359.45 32.42 1358.98 32.42C1358.37 32.42 1357.88 32.5333 1357.52 32.76C1357.17 32.9733 1357 33.3667 1357 33.94C1357 34.3667 1357.12 34.72 1357.36 35C1357.61 35.2667 1358.03 35.4933 1358.6 35.68L1360.24 36.22C1361.23 36.5533 1361.97 37.04 1362.46 37.68C1362.97 38.3067 1363.22 39.14 1363.22 40.18C1363.22 41.38 1362.84 42.3533 1362.08 43.1C1361.32 43.8333 1360.13 44.2 1358.5 44.2C1357.86 44.2 1357.19 44.1267 1356.5 43.98C1355.82 43.82 1355.07 43.5533 1354.26 43.18L1355 41.12C1355.75 41.44 1356.38 41.6667 1356.9 41.8C1357.43 41.92 1357.95 41.98 1358.46 41.98ZM1371.59 44V42.66C1370.98 43.1933 1370.41 43.5867 1369.87 43.84C1369.34 44.08 1368.8 44.2 1368.25 44.2C1367.35 44.2 1366.65 43.8933 1366.15 43.28C1365.66 42.6533 1365.41 41.78 1365.41 40.66V33.86H1367.71V40.38C1367.71 41.5 1368.13 42.06 1368.95 42.06C1369.29 42.06 1369.65 41.98 1370.03 41.82C1370.43 41.66 1370.91 41.3533 1371.47 40.9V33.86H1373.77V44H1371.59ZM1378.7 38.34V39.52C1378.7 40.3733 1378.85 41.0133 1379.16 41.44C1379.47 41.8667 1379.96 42.08 1380.64 42.08C1380.97 42.08 1381.35 42.04 1381.76 41.96C1382.19 41.8667 1382.65 41.7267 1383.14 41.54L1383.8 43.48C1383.2 43.72 1382.63 43.9 1382.1 44.02C1381.57 44.14 1381.04 44.2 1380.52 44.2C1379.19 44.2 1378.17 43.7733 1377.46 42.92C1376.75 42.0667 1376.4 40.9333 1376.4 39.52V38.34C1376.4 36.9133 1376.75 35.78 1377.46 34.94C1378.17 34.0867 1379.19 33.66 1380.52 33.66C1381.03 33.66 1381.54 33.72 1382.06 33.84C1382.58 33.96 1383.13 34.1333 1383.7 34.36L1383.04 36.34C1382.08 35.9667 1381.28 35.78 1380.64 35.78C1379.96 35.78 1379.47 35.9933 1379.16 36.42C1378.85 36.8333 1378.7 37.4733 1378.7 38.34ZM1387.66 38.34V39.52C1387.66 40.3733 1387.82 41.0133 1388.12 41.44C1388.43 41.8667 1388.92 42.08 1389.6 42.08C1389.94 42.08 1390.31 42.04 1390.72 41.96C1391.15 41.8667 1391.61 41.7267 1392.1 41.54L1392.76 43.48C1392.16 43.72 1391.6 43.9 1391.06 44.02C1390.53 44.14 1390 44.2 1389.48 44.2C1388.15 44.2 1387.13 43.7733 1386.42 42.92C1385.72 42.0667 1385.36 40.9333 1385.36 39.52V38.34C1385.36 36.9133 1385.72 35.78 1386.42 34.94C1387.13 34.0867 1388.15 33.66 1389.48 33.66C1389.99 33.66 1390.5 33.72 1391.02 33.84C1391.54 33.96 1392.09 34.1333 1392.66 34.36L1392 36.34C1391.04 35.9667 1390.24 35.78 1389.6 35.78C1388.92 35.78 1388.43 35.9933 1388.12 36.42C1387.82 36.8333 1387.66 37.4733 1387.66 38.34ZM1402.57 43.42C1401.88 43.7 1401.22 43.9 1400.61 44.02C1400 44.14 1399.42 44.2 1398.87 44.2C1397.36 44.2 1396.22 43.7733 1395.45 42.92C1394.68 42.0667 1394.29 40.9333 1394.29 39.52V38.32C1394.29 37.3733 1394.46 36.5533 1394.81 35.86C1395.16 35.1667 1395.65 34.6267 1396.29 34.24C1396.93 33.8533 1397.68 33.66 1398.55 33.66C1399.26 33.66 1399.92 33.8067 1400.53 34.1C1401.16 34.38 1401.66 34.8267 1402.05 35.44C1402.45 36.04 1402.65 36.8133 1402.65 37.76C1402.65 38.04 1402.63 38.34 1402.59 38.66C1402.55 38.9667 1402.48 39.2933 1402.39 39.64H1396.51C1396.54 40.4667 1396.74 41.0867 1397.13 41.5C1397.52 41.9133 1398.14 42.12 1398.99 42.12C1399.44 42.12 1399.91 42.0667 1400.39 41.96C1400.88 41.8533 1401.39 41.6933 1401.91 41.48L1402.57 43.42ZM1398.55 35.6C1397.94 35.6 1397.46 35.8 1397.11 36.2C1396.78 36.5867 1396.58 37.1467 1396.53 37.88H1400.37C1400.38 37.8133 1400.39 37.7533 1400.39 37.7C1400.39 37.6333 1400.39 37.5733 1400.39 37.52C1400.39 36.88 1400.21 36.4 1399.85 36.08C1399.49 35.76 1399.06 35.6 1398.55 35.6ZM1408.14 42.2C1408.63 42.2 1409.04 42.12 1409.36 41.96C1409.68 41.7867 1409.84 41.5333 1409.84 41.2C1409.84 40.9067 1409.73 40.68 1409.52 40.52C1409.32 40.3467 1408.95 40.1933 1408.42 40.06L1407.28 39.76C1406.4 39.5333 1405.75 39.1533 1405.32 38.62C1404.91 38.0867 1404.7 37.4533 1404.7 36.72C1404.7 35.8533 1405 35.1267 1405.6 34.54C1406.2 33.9533 1407.13 33.66 1408.38 33.66C1408.89 33.66 1409.42 33.72 1409.98 33.84C1410.54 33.96 1411.13 34.1533 1411.74 34.42L1411.08 36.38C1410.52 36.1133 1410.01 35.9267 1409.56 35.82C1409.11 35.7133 1408.71 35.66 1408.36 35.66C1407.41 35.66 1406.94 35.98 1406.94 36.62C1406.94 36.8733 1407.02 37.0733 1407.18 37.22C1407.35 37.3667 1407.67 37.5 1408.12 37.62L1409.26 37.92C1410.23 38.1733 1410.94 38.56 1411.38 39.08C1411.83 39.6 1412.06 40.2533 1412.06 41.04C1412.06 41.9733 1411.74 42.7333 1411.1 43.32C1410.47 43.9067 1409.48 44.2 1408.12 44.2C1406.96 44.2 1405.74 43.9333 1404.46 43.4L1405.08 41.5C1405.71 41.7533 1406.27 41.9333 1406.78 42.04C1407.29 42.1467 1407.74 42.2 1408.14 42.2ZM1417.26 42.2C1417.75 42.2 1418.16 42.12 1418.48 41.96C1418.8 41.7867 1418.96 41.5333 1418.96 41.2C1418.96 40.9067 1418.85 40.68 1418.64 40.52C1418.44 40.3467 1418.07 40.1933 1417.54 40.06L1416.4 39.76C1415.52 39.5333 1414.87 39.1533 1414.44 38.62C1414.03 38.0867 1413.82 37.4533 1413.82 36.72C1413.82 35.8533 1414.12 35.1267 1414.72 34.54C1415.32 33.9533 1416.25 33.66 1417.5 33.66C1418.01 33.66 1418.54 33.72 1419.1 33.84C1419.66 33.96 1420.25 34.1533 1420.86 34.42L1420.2 36.38C1419.64 36.1133 1419.13 35.9267 1418.68 35.82C1418.23 35.7133 1417.83 35.66 1417.48 35.66C1416.53 35.66 1416.06 35.98 1416.06 36.62C1416.06 36.8733 1416.14 37.0733 1416.3 37.22C1416.47 37.3667 1416.79 37.5 1417.24 37.62L1418.38 37.92C1419.35 38.1733 1420.06 38.56 1420.5 39.08C1420.95 39.6 1421.18 40.2533 1421.18 41.04C1421.18 41.9733 1420.86 42.7333 1420.22 43.32C1419.59 43.9067 1418.6 44.2 1417.24 44.2C1416.08 44.2 1414.86 43.9333 1413.58 43.4L1414.2 41.5C1414.83 41.7533 1415.39 41.9333 1415.9 42.04C1416.41 42.1467 1416.86 42.2 1417.26 42.2Z" fill="#352D24"/>
<path d="M893.84 38.78H889.28V44H886.88V30.4H894.44V32.7H889.28V36.48H893.84V38.78ZM902.007 35.96C901.38 35.96 900.78 36.06 900.207 36.26C899.647 36.4467 899.107 36.7533 898.587 37.18V44H896.287V33.86H898.467V35.42C899.147 34.78 899.754 34.3267 900.287 34.06C900.82 33.7933 901.394 33.66 902.007 33.66V35.96ZM912.321 38.32V39.52C912.321 40.9333 911.935 42.0667 911.161 42.92C910.388 43.7733 909.295 44.2 907.881 44.2C906.468 44.2 905.375 43.7733 904.601 42.92C903.828 42.0667 903.441 40.9333 903.441 39.52V38.32C903.441 36.9067 903.821 35.78 904.581 34.94C905.355 34.0867 906.455 33.66 907.881 33.66C909.308 33.66 910.401 34.0867 911.161 34.94C911.935 35.78 912.321 36.9067 912.321 38.32ZM909.961 38.32C909.961 37.5067 909.781 36.8733 909.421 36.42C909.061 35.9533 908.548 35.72 907.881 35.72C907.215 35.72 906.701 35.9533 906.341 36.42C905.981 36.8733 905.801 37.5067 905.801 38.32V39.52C905.801 40.3333 905.981 40.9733 906.341 41.44C906.701 41.9067 907.215 42.14 907.881 42.14C908.548 42.14 909.061 41.9067 909.421 41.44C909.781 40.9733 909.961 40.3333 909.961 39.52V38.32ZM917.2 36.98V44H914.9V33.86H917.08V35.2C917.707 34.6533 918.287 34.26 918.82 34.02C919.354 33.78 919.9 33.66 920.46 33.66C921.7 33.66 922.547 34.2067 923 35.3C923.667 34.7133 924.287 34.2933 924.86 34.04C925.434 33.7867 926.014 33.66 926.6 33.66C927.534 33.66 928.247 33.9733 928.74 34.6C929.234 35.2133 929.48 36.08 929.48 37.2V44H927.18V37.48C927.18 36.36 926.754 35.8 925.9 35.8C925.567 35.8 925.2 35.88 924.8 36.04C924.4 36.2 923.914 36.5133 923.34 36.98V44H921.04V37.48C921.04 36.36 920.614 35.8 919.76 35.8C919.427 35.8 919.06 35.88 918.66 36.04C918.26 36.2 917.774 36.5133 917.2 36.98ZM939.101 35.78L939.861 40.82L942.581 30.4H944.741L947.441 40.74L948.281 35.78L949.321 30.4H951.761L948.701 44H946.241L943.621 33.88L940.981 44H938.521L935.461 30.4H938.061L939.101 35.78ZM961.657 38.32V39.52C961.657 40.9333 961.271 42.0667 960.497 42.92C959.724 43.7733 958.631 44.2 957.217 44.2C955.804 44.2 954.711 43.7733 953.937 42.92C953.164 42.0667 952.777 40.9333 952.777 39.52V38.32C952.777 36.9067 953.157 35.78 953.917 34.94C954.691 34.0867 955.791 33.66 957.217 33.66C958.644 33.66 959.737 34.0867 960.497 34.94C961.271 35.78 961.657 36.9067 961.657 38.32ZM959.297 38.32C959.297 37.5067 959.117 36.8733 958.757 36.42C958.397 35.9533 957.884 35.72 957.217 35.72C956.551 35.72 956.037 35.9533 955.677 36.42C955.317 36.8733 955.137 37.5067 955.137 38.32V39.52C955.137 40.3333 955.317 40.9733 955.677 41.44C956.037 41.9067 956.551 42.14 957.217 42.14C957.884 42.14 958.397 41.9067 958.757 41.44C959.117 40.9733 959.297 40.3333 959.297 39.52V38.32ZM969.956 35.96C969.33 35.96 968.73 36.06 968.156 36.26C967.596 36.4467 967.056 36.7533 966.536 37.18V44H964.236V33.86H966.416V35.42C967.096 34.78 967.703 34.3267 968.236 34.06C968.77 33.7933 969.343 33.66 969.956 33.66V35.96ZM977.911 44V42.62C977.297 43.2333 976.764 43.6533 976.311 43.88C975.871 44.0933 975.411 44.2 974.931 44.2C973.837 44.2 972.984 43.7867 972.371 42.96C971.771 42.1333 971.471 40.9733 971.471 39.48V38.4C971.471 36.9467 971.837 35.7933 972.571 34.94C973.304 34.0867 974.364 33.66 975.751 33.66C976.097 33.66 976.437 33.6933 976.771 33.76C977.117 33.8267 977.457 33.92 977.791 34.04V29.2H980.091V44H977.911ZM973.831 39.48C973.831 40.3733 973.977 41.0267 974.271 41.44C974.577 41.8533 975.004 42.06 975.551 42.06C975.857 42.06 976.184 41.9733 976.531 41.8C976.877 41.6133 977.297 41.2667 977.791 40.76V36.12C977.137 35.8533 976.537 35.72 975.991 35.72C975.217 35.72 974.664 35.96 974.331 36.44C973.997 36.92 973.831 37.5733 973.831 38.4V39.48ZM993.364 43.66C993.017 43.82 992.617 43.9467 992.164 44.04C991.71 44.1467 991.25 44.2 990.784 44.2C990.01 44.2 989.39 44.04 988.924 43.72C988.457 43.4 988.117 42.9533 987.904 42.38C987.704 41.8067 987.604 41.1533 987.604 40.42V35.86H985.964V33.86H987.604V31.22H989.904V33.86H993.064V35.86H989.904V40.42C989.904 41.0333 990.017 41.46 990.244 41.7C990.484 41.9267 990.824 42.04 991.264 42.04C991.477 42.04 991.704 42.02 991.944 41.98C992.197 41.9267 992.477 41.84 992.784 41.72L993.364 43.66ZM1003.51 38.32V39.52C1003.51 40.9333 1003.13 42.0667 1002.35 42.92C1001.58 43.7733 1000.49 44.2 999.073 44.2C997.659 44.2 996.566 43.7733 995.793 42.92C995.019 42.0667 994.633 40.9333 994.633 39.52V38.32C994.633 36.9067 995.013 35.78 995.773 34.94C996.546 34.0867 997.646 33.66 999.073 33.66C1000.5 33.66 1001.59 34.0867 1002.35 34.94C1003.13 35.78 1003.51 36.9067 1003.51 38.32ZM1001.15 38.32C1001.15 37.5067 1000.97 36.8733 1000.61 36.42C1000.25 35.9533 999.739 35.72 999.073 35.72C998.406 35.72 997.893 35.9533 997.533 36.42C997.173 36.8733 996.993 37.5067 996.993 38.32V39.52C996.993 40.3333 997.173 40.9733 997.533 41.44C997.893 41.9067 998.406 42.14 999.073 42.14C999.739 42.14 1000.25 41.9067 1000.61 41.44C1000.97 40.9733 1001.15 40.3333 1001.15 39.52V38.32ZM1013.02 30.4L1016.82 39.7L1020.6 30.4H1023.22V44H1020.92V38.8L1021.22 34.04L1017.84 42.4H1015.7L1012.4 34.02L1012.7 38.8V44H1010.4V30.4H1013.02ZM1034.36 44.1C1033.68 44.1 1033.13 43.96 1032.72 43.68C1032.32 43.4 1032.02 43.0533 1031.84 42.64C1031.26 43.1733 1030.71 43.5667 1030.18 43.82C1029.64 44.0733 1029.07 44.2 1028.46 44.2C1027.56 44.2 1026.9 43.9133 1026.48 43.34C1026.06 42.7667 1025.86 42.04 1025.86 41.16C1025.86 40.5733 1025.96 40.06 1026.18 39.62C1026.4 39.1667 1026.77 38.8133 1027.28 38.56C1027.78 38.3067 1028.48 38.18 1029.36 38.18C1029.7 38.18 1030.06 38.2067 1030.44 38.26C1030.81 38.3 1031.18 38.3533 1031.56 38.42V37.24C1031.56 36.68 1031.4 36.3 1031.1 36.1C1030.79 35.8867 1030.38 35.78 1029.86 35.78C1029.46 35.78 1029.02 35.8333 1028.54 35.94C1028.07 36.0467 1027.56 36.2133 1027.02 36.44L1026.36 34.48C1027.7 33.9333 1028.92 33.66 1030.02 33.66C1031 33.66 1031.76 33.8267 1032.3 34.16C1032.84 34.4933 1033.22 34.9333 1033.44 35.48C1033.65 36.0267 1033.76 36.6133 1033.76 37.24V41.14C1033.76 41.34 1033.81 41.5333 1033.92 41.72C1034.04 41.8933 1034.26 41.98 1034.6 41.98H1034.82V44.1H1034.36ZM1028.08 41.12C1028.08 41.48 1028.16 41.7667 1028.32 41.98C1028.48 42.18 1028.71 42.28 1029.02 42.28C1029.32 42.28 1029.67 42.2 1030.06 42.04C1030.44 41.88 1030.94 41.5067 1031.56 40.92V40.06C1030.86 39.94 1030.18 39.88 1029.52 39.88C1029 39.88 1028.62 39.9867 1028.4 40.2C1028.18 40.4133 1028.08 40.72 1028.08 41.12ZM1039.65 42.2C1040.15 42.2 1040.55 42.12 1040.87 41.96C1041.19 41.7867 1041.35 41.5333 1041.35 41.2C1041.35 40.9067 1041.25 40.68 1041.03 40.52C1040.83 40.3467 1040.47 40.1933 1039.93 40.06L1038.79 39.76C1037.91 39.5333 1037.26 39.1533 1036.83 38.62C1036.42 38.0867 1036.21 37.4533 1036.21 36.72C1036.21 35.8533 1036.51 35.1267 1037.11 34.54C1037.71 33.9533 1038.64 33.66 1039.89 33.66C1040.4 33.66 1040.93 33.72 1041.49 33.84C1042.05 33.96 1042.64 34.1533 1043.25 34.42L1042.59 36.38C1042.03 36.1133 1041.53 35.9267 1041.07 35.82C1040.62 35.7133 1040.22 35.66 1039.87 35.66C1038.93 35.66 1038.45 35.98 1038.45 36.62C1038.45 36.8733 1038.53 37.0733 1038.69 37.22C1038.87 37.3667 1039.18 37.5 1039.63 37.62L1040.77 37.92C1041.75 38.1733 1042.45 38.56 1042.89 39.08C1043.35 39.6 1043.57 40.2533 1043.57 41.04C1043.57 41.9733 1043.25 42.7333 1042.61 43.32C1041.99 43.9067 1040.99 44.2 1039.63 44.2C1038.47 44.2 1037.25 43.9333 1035.97 43.4L1036.59 41.5C1037.22 41.7533 1037.79 41.9333 1038.29 42.04C1038.8 42.1467 1039.25 42.2 1039.65 42.2ZM1052.04 43.66C1051.69 43.82 1051.29 43.9467 1050.84 44.04C1050.38 44.1467 1049.92 44.2 1049.46 44.2C1048.68 44.2 1048.06 44.04 1047.6 43.72C1047.13 43.4 1046.79 42.9533 1046.58 42.38C1046.38 41.8067 1046.28 41.1533 1046.28 40.42V35.86H1044.64V33.86H1046.28V31.22H1048.58V33.86H1051.74V35.86H1048.58V40.42C1048.58 41.0333 1048.69 41.46 1048.92 41.7C1049.16 41.9267 1049.5 42.04 1049.94 42.04C1050.15 42.04 1050.38 42.02 1050.62 41.98C1050.87 41.9267 1051.15 41.84 1051.46 41.72L1052.04 43.66ZM1061.58 43.42C1060.89 43.7 1060.24 43.9 1059.62 44.02C1059.01 44.14 1058.43 44.2 1057.88 44.2C1056.38 44.2 1055.24 43.7733 1054.46 42.92C1053.69 42.0667 1053.3 40.9333 1053.3 39.52V38.32C1053.3 37.3733 1053.48 36.5533 1053.82 35.86C1054.17 35.1667 1054.66 34.6267 1055.3 34.24C1055.94 33.8533 1056.7 33.66 1057.56 33.66C1058.27 33.66 1058.93 33.8067 1059.54 34.1C1060.17 34.38 1060.68 34.8267 1061.06 35.44C1061.46 36.04 1061.66 36.8133 1061.66 37.76C1061.66 38.04 1061.64 38.34 1061.6 38.66C1061.56 38.9667 1061.5 39.2933 1061.4 39.64H1055.52C1055.55 40.4667 1055.76 41.0867 1056.14 41.5C1056.53 41.9133 1057.15 42.12 1058 42.12C1058.46 42.12 1058.92 42.0667 1059.4 41.96C1059.9 41.8533 1060.4 41.6933 1060.92 41.48L1061.58 43.42ZM1057.56 35.6C1056.95 35.6 1056.47 35.8 1056.12 36.2C1055.79 36.5867 1055.6 37.1467 1055.54 37.88H1059.38C1059.4 37.8133 1059.4 37.7533 1059.4 37.7C1059.4 37.6333 1059.4 37.5733 1059.4 37.52C1059.4 36.88 1059.22 36.4 1058.86 36.08C1058.5 35.76 1058.07 35.6 1057.56 35.6ZM1070.03 35.96C1069.41 35.96 1068.81 36.06 1068.23 36.26C1067.67 36.4467 1067.13 36.7533 1066.61 37.18V44H1064.31V33.86H1066.49V35.42C1067.17 34.78 1067.78 34.3267 1068.31 34.06C1068.85 33.7933 1069.42 33.66 1070.03 33.66V35.96ZM1076.15 45C1075.71 46.2267 1075.15 47.1067 1074.47 47.64C1073.79 48.1867 1072.86 48.46 1071.67 48.46V46.16C1072.38 46.1333 1072.93 45.9733 1073.33 45.68C1073.74 45.4 1074.05 45.0067 1074.25 44.5L1074.43 44.04L1070.81 33.86H1073.09L1074.83 38.92L1075.51 41.06L1076.17 38.92L1077.83 33.86H1080.11L1076.15 45Z" fill="#352D24"/>
<path d="M569.26 32.7V30.4H579.26V32.7H575.46V44H573.06V32.7H569.26ZM586.222 35.96C585.595 35.96 584.995 36.06 584.422 36.26C583.862 36.4467 583.322 36.7533 582.802 37.18V44H580.502V33.86H582.682V35.42C583.362 34.78 583.969 34.3267 584.502 34.06C585.035 33.7933 585.609 33.66 586.222 33.66V35.96ZM595.916 44.1C595.236 44.1 594.69 43.96 594.276 43.68C593.876 43.4 593.583 43.0533 593.396 42.64C592.823 43.1733 592.27 43.5667 591.736 43.82C591.203 44.0733 590.63 44.2 590.016 44.2C589.123 44.2 588.463 43.9133 588.036 43.34C587.623 42.7667 587.416 42.04 587.416 41.16C587.416 40.5733 587.523 40.06 587.736 39.62C587.963 39.1667 588.33 38.8133 588.836 38.56C589.343 38.3067 590.036 38.18 590.916 38.18C591.263 38.18 591.623 38.2067 591.996 38.26C592.37 38.3 592.743 38.3533 593.116 38.42V37.24C593.116 36.68 592.963 36.3 592.656 36.1C592.35 35.8867 591.936 35.78 591.416 35.78C591.016 35.78 590.576 35.8333 590.096 35.94C589.63 36.0467 589.123 36.2133 588.576 36.44L587.916 34.48C589.263 33.9333 590.483 33.66 591.576 33.66C592.563 33.66 593.323 33.8267 593.856 34.16C594.403 34.4933 594.783 34.9333 594.996 35.48C595.21 36.0267 595.316 36.6133 595.316 37.24V41.14C595.316 41.34 595.37 41.5333 595.476 41.72C595.596 41.8933 595.823 41.98 596.156 41.98H596.376V44.1H595.916ZM589.636 41.12C589.636 41.48 589.716 41.7667 589.876 41.98C590.036 42.18 590.27 42.28 590.576 42.28C590.883 42.28 591.23 42.2 591.616 42.04C592.003 41.88 592.503 41.5067 593.116 40.92V40.06C592.423 39.94 591.743 39.88 591.076 39.88C590.556 39.88 590.183 39.9867 589.956 40.2C589.743 40.4133 589.636 40.72 589.636 41.12ZM600.733 31.94H598.313V29.56H600.733V31.94ZM600.673 44H598.373V33.86H600.673V44ZM608.802 35.8C608.468 35.8 608.088 35.88 607.662 36.04C607.235 36.2 606.728 36.5133 606.142 36.98V44H603.842V33.86H606.022V35.22C606.648 34.6733 607.242 34.28 607.802 34.04C608.362 33.7867 608.928 33.66 609.502 33.66C610.475 33.66 611.215 33.9733 611.722 34.6C612.228 35.2133 612.482 36.08 612.482 37.2V44H610.182V37.48C610.182 36.36 609.722 35.8 608.802 35.8ZM628.765 30.4L624.605 38.54V44H622.205V38.58L618.005 30.4H620.565L623.505 36.2L626.285 30.4H628.765ZM637.708 38.32V39.52C637.708 40.9333 637.321 42.0667 636.548 42.92C635.775 43.7733 634.681 44.2 633.268 44.2C631.855 44.2 630.761 43.7733 629.988 42.92C629.215 42.0667 628.828 40.9333 628.828 39.52V38.32C628.828 36.9067 629.208 35.78 629.968 34.94C630.741 34.0867 631.841 33.66 633.268 33.66C634.695 33.66 635.788 34.0867 636.548 34.94C637.321 35.78 637.708 36.9067 637.708 38.32ZM635.348 38.32C635.348 37.5067 635.168 36.8733 634.808 36.42C634.448 35.9533 633.935 35.72 633.268 35.72C632.601 35.72 632.088 35.9533 631.728 36.42C631.368 36.8733 631.188 37.5067 631.188 38.32V39.52C631.188 40.3333 631.368 40.9733 631.728 41.44C632.088 41.9067 632.601 42.14 633.268 42.14C633.935 42.14 634.448 41.9067 634.808 41.44C635.168 40.9733 635.348 40.3333 635.348 39.52V38.32ZM646.327 44V42.66C645.714 43.1933 645.14 43.5867 644.607 43.84C644.074 44.08 643.534 44.2 642.987 44.2C642.08 44.2 641.38 43.8933 640.887 43.28C640.394 42.6533 640.147 41.78 640.147 40.66V33.86H642.447V40.38C642.447 41.5 642.86 42.06 643.687 42.06C644.02 42.06 644.38 41.98 644.767 41.82C645.167 41.66 645.647 41.3533 646.207 40.9V33.86H648.507V44H646.327ZM657.394 35.96C656.767 35.96 656.167 36.06 655.594 36.26C655.034 36.4467 654.494 36.7533 653.974 37.18V44H651.674V33.86H653.854V35.42C654.534 34.78 655.14 34.3267 655.674 34.06C656.207 33.7933 656.78 33.66 657.394 33.66V35.96ZM663.712 44V30.4H667.852C668.865 30.4 669.665 30.5467 670.252 30.84C670.852 31.1333 671.279 31.5467 671.532 32.08C671.799 32.6133 671.932 33.24 671.932 33.96V34.52C671.932 35.5733 671.479 36.38 670.572 36.94C671.212 37.1933 671.699 37.56 672.032 38.04C672.365 38.52 672.532 39.0933 672.532 39.76V40.32C672.532 41.0533 672.399 41.7 672.132 42.26C671.865 42.8067 671.425 43.2333 670.812 43.54C670.199 43.8467 669.379 44 668.352 44H663.712ZM667.852 32.6H666.112V36H667.852C668.385 36 668.785 35.88 669.052 35.64C669.332 35.3867 669.472 35.0467 669.472 34.62V33.96C669.472 33.5333 669.332 33.2 669.052 32.96C668.785 32.72 668.385 32.6 667.852 32.6ZM668.352 38.2H666.112V41.8H668.352C668.912 41.8 669.339 41.6667 669.632 41.4C669.925 41.1333 670.072 40.7733 670.072 40.32V39.66C670.072 39.2067 669.925 38.8533 669.632 38.6C669.339 38.3333 668.912 38.2 668.352 38.2ZM680.831 35.96C680.205 35.96 679.605 36.06 679.031 36.26C678.471 36.4467 677.931 36.7533 677.411 37.18V44H675.111V33.86H677.291V35.42C677.971 34.78 678.578 34.3267 679.111 34.06C679.645 33.7933 680.218 33.66 680.831 33.66V35.96ZM690.526 44.1C689.846 44.1 689.299 43.96 688.886 43.68C688.486 43.4 688.192 43.0533 688.006 42.64C687.432 43.1733 686.879 43.5667 686.346 43.82C685.812 44.0733 685.239 44.2 684.626 44.2C683.732 44.2 683.072 43.9133 682.646 43.34C682.232 42.7667 682.026 42.04 682.026 41.16C682.026 40.5733 682.132 40.06 682.346 39.62C682.572 39.1667 682.939 38.8133 683.446 38.56C683.952 38.3067 684.646 38.18 685.526 38.18C685.872 38.18 686.232 38.2067 686.606 38.26C686.979 38.3 687.352 38.3533 687.726 38.42V37.24C687.726 36.68 687.572 36.3 687.266 36.1C686.959 35.8867 686.546 35.78 686.026 35.78C685.626 35.78 685.186 35.8333 684.706 35.94C684.239 36.0467 683.732 36.2133 683.186 36.44L682.526 34.48C683.872 33.9333 685.092 33.66 686.186 33.66C687.172 33.66 687.932 33.8267 688.466 34.16C689.012 34.4933 689.392 34.9333 689.606 35.48C689.819 36.0267 689.926 36.6133 689.926 37.24V41.14C689.926 41.34 689.979 41.5333 690.086 41.72C690.206 41.8933 690.432 41.98 690.766 41.98H690.986V44.1H690.526ZM684.246 41.12C684.246 41.48 684.326 41.7667 684.486 41.98C684.646 42.18 684.879 42.28 685.186 42.28C685.492 42.28 685.839 42.2 686.226 42.04C686.612 41.88 687.112 41.5067 687.726 40.92V40.06C687.032 39.94 686.352 39.88 685.686 39.88C685.166 39.88 684.792 39.9867 684.566 40.2C684.352 40.4133 684.246 40.72 684.246 41.12ZM695.342 31.94H692.922V29.56H695.342V31.94ZM695.282 44H692.982V33.86H695.282V44ZM703.411 35.8C703.078 35.8 702.698 35.88 702.271 36.04C701.844 36.2 701.338 36.5133 700.751 36.98V44H698.451V33.86H700.631V35.22C701.258 34.6733 701.851 34.28 702.411 34.04C702.971 33.7867 703.538 33.66 704.111 33.66C705.084 33.66 705.824 33.9733 706.331 34.6C706.838 35.2133 707.091 36.08 707.091 37.2V44H704.791V37.48C704.791 36.36 704.331 35.8 703.411 35.8Z" fill="#352D24"/>
<path d="M228.068 45V30.04H232.622C233.737 30.04 234.617 30.2013 235.262 30.524C235.922 30.8467 236.391 31.3013 236.67 31.888C236.963 32.4747 237.11 33.164 237.11 33.956V34.572C237.11 35.7307 236.611 36.618 235.614 37.234C236.318 37.5127 236.853 37.916 237.22 38.444C237.587 38.972 237.77 39.6027 237.77 40.336V40.952C237.77 41.7587 237.623 42.47 237.33 43.086C237.037 43.6873 236.553 44.1567 235.878 44.494C235.203 44.8313 234.301 45 233.172 45H228.068ZM232.622 32.46H230.708V36.2H232.622C233.209 36.2 233.649 36.068 233.942 35.804C234.25 35.5253 234.404 35.1513 234.404 34.682V33.956C234.404 33.4867 234.25 33.12 233.942 32.856C233.649 32.592 233.209 32.46 232.622 32.46ZM233.172 38.62H230.708V42.58H233.172C233.788 42.58 234.257 42.4333 234.58 42.14C234.903 41.8467 235.064 41.4507 235.064 40.952V40.226C235.064 39.7273 234.903 39.3387 234.58 39.06C234.257 38.7667 233.788 38.62 233.172 38.62ZM249.737 38.752V40.072C249.737 41.6267 249.312 42.8733 248.461 43.812C247.61 44.7507 246.408 45.22 244.853 45.22C243.298 45.22 242.096 44.7507 241.245 43.812C240.394 42.8733 239.969 41.6267 239.969 40.072V38.752C239.969 37.1973 240.387 35.958 241.223 35.034C242.074 34.0953 243.284 33.626 244.853 33.626C246.422 33.626 247.625 34.0953 248.461 35.034C249.312 35.958 249.737 37.1973 249.737 38.752ZM247.141 38.752C247.141 37.8573 246.943 37.1607 246.547 36.662C246.151 36.1487 245.586 35.892 244.853 35.892C244.12 35.892 243.555 36.1487 243.159 36.662C242.763 37.1607 242.565 37.8573 242.565 38.752V40.072C242.565 40.9667 242.763 41.6707 243.159 42.184C243.555 42.6973 244.12 42.954 244.853 42.954C245.586 42.954 246.151 42.6973 246.547 42.184C246.943 41.6707 247.141 40.9667 247.141 40.072V38.752ZM261.704 38.752V40.072C261.704 41.6267 261.279 42.8733 260.428 43.812C259.577 44.7507 258.375 45.22 256.82 45.22C255.265 45.22 254.063 44.7507 253.212 43.812C252.361 42.8733 251.936 41.6267 251.936 40.072V38.752C251.936 37.1973 252.354 35.958 253.19 35.034C254.041 34.0953 255.251 33.626 256.82 33.626C258.389 33.626 259.592 34.0953 260.428 35.034C261.279 35.958 261.704 37.1973 261.704 38.752ZM259.108 38.752C259.108 37.8573 258.91 37.1607 258.514 36.662C258.118 36.1487 257.553 35.892 256.82 35.892C256.087 35.892 255.522 36.1487 255.126 36.662C254.73 37.1607 254.532 37.8573 254.532 38.752V40.072C254.532 40.9667 254.73 41.6707 255.126 42.184C255.522 42.6973 256.087 42.954 256.82 42.954C257.553 42.954 258.118 42.6973 258.514 42.184C258.91 41.6707 259.108 40.9667 259.108 40.072V38.752ZM267.665 43.02C268.207 43.02 268.655 42.932 269.007 42.756C269.359 42.5653 269.535 42.2867 269.535 41.92C269.535 41.5973 269.417 41.348 269.183 41.172C268.963 40.9813 268.559 40.8127 267.973 40.666L266.719 40.336C265.751 40.0867 265.032 39.6687 264.563 39.082C264.108 38.4953 263.881 37.7987 263.881 36.992C263.881 36.0387 264.211 35.2393 264.871 34.594C265.531 33.9487 266.55 33.626 267.929 33.626C268.486 33.626 269.073 33.692 269.689 33.824C270.305 33.956 270.95 34.1687 271.625 34.462L270.899 36.618C270.283 36.3247 269.725 36.1193 269.227 36.002C268.728 35.8847 268.288 35.826 267.907 35.826C266.865 35.826 266.345 36.178 266.345 36.882C266.345 37.1607 266.433 37.3807 266.609 37.542C266.799 37.7033 267.144 37.85 267.643 37.982L268.897 38.312C269.967 38.5907 270.745 39.016 271.229 39.588C271.727 40.16 271.977 40.8787 271.977 41.744C271.977 42.7707 271.625 43.6067 270.921 44.252C270.231 44.8973 269.139 45.22 267.643 45.22C266.367 45.22 265.025 44.9267 263.617 44.34L264.299 42.25C264.988 42.5287 265.611 42.7267 266.169 42.844C266.726 42.9613 267.225 43.02 267.665 43.02ZM281.284 44.626C280.903 44.802 280.463 44.9413 279.964 45.044C279.465 45.1613 278.959 45.22 278.446 45.22C277.595 45.22 276.913 45.044 276.4 44.692C275.887 44.34 275.513 43.8487 275.278 43.218C275.058 42.5873 274.948 41.8687 274.948 41.062V36.046H273.144V33.846H274.948V30.942H277.478V33.846H280.954V36.046H277.478V41.062C277.478 41.7367 277.603 42.206 277.852 42.47C278.116 42.7193 278.49 42.844 278.974 42.844C279.209 42.844 279.458 42.822 279.722 42.778C280.001 42.7193 280.309 42.624 280.646 42.492L281.284 44.626ZM297.886 30.04L293.31 38.994V45H290.67V39.038L286.05 30.04H288.866L292.1 36.42L295.158 30.04H297.886ZM307.723 38.752V40.072C307.723 41.6267 307.298 42.8733 306.447 43.812C305.597 44.7507 304.394 45.22 302.839 45.22C301.285 45.22 300.082 44.7507 299.231 43.812C298.381 42.8733 297.955 41.6267 297.955 40.072V38.752C297.955 37.1973 298.373 35.958 299.209 35.034C300.06 34.0953 301.27 33.626 302.839 33.626C304.409 33.626 305.611 34.0953 306.447 35.034C307.298 35.958 307.723 37.1973 307.723 38.752ZM305.127 38.752C305.127 37.8573 304.929 37.1607 304.533 36.662C304.137 36.1487 303.573 35.892 302.839 35.892C302.106 35.892 301.541 36.1487 301.145 36.662C300.749 37.1607 300.551 37.8573 300.551 38.752V40.072C300.551 40.9667 300.749 41.6707 301.145 42.184C301.541 42.6973 302.106 42.954 302.839 42.954C303.573 42.954 304.137 42.6973 304.533 42.184C304.929 41.6707 305.127 40.9667 305.127 40.072V38.752ZM317.204 45V43.526C316.53 44.1127 315.899 44.5453 315.312 44.824C314.726 45.088 314.132 45.22 313.53 45.22C312.533 45.22 311.763 44.8827 311.22 44.208C310.678 43.5187 310.406 42.558 310.406 41.326V33.846H312.936V41.018C312.936 42.25 313.391 42.866 314.3 42.866C314.667 42.866 315.063 42.778 315.488 42.602C315.928 42.426 316.456 42.0887 317.072 41.59V33.846H319.602V45H317.204ZM329.378 36.156C328.688 36.156 328.028 36.266 327.398 36.486C326.782 36.6913 326.188 37.0287 325.616 37.498V45H323.086V33.846H325.484V35.562C326.232 34.858 326.899 34.3593 327.486 34.066C328.072 33.7727 328.703 33.626 329.378 33.626V36.156ZM338.836 35.958L339.672 41.502L342.664 30.04H345.04L348.01 41.414L348.934 35.958L350.078 30.04H352.762L349.396 45H346.69L343.808 33.868L340.904 45H338.198L334.832 30.04H337.692L338.836 35.958ZM363.647 38.752V40.072C363.647 41.6267 363.222 42.8733 362.371 43.812C361.521 44.7507 360.318 45.22 358.763 45.22C357.209 45.22 356.006 44.7507 355.155 43.812C354.305 42.8733 353.879 41.6267 353.879 40.072V38.752C353.879 37.1973 354.297 35.958 355.133 35.034C355.984 34.0953 357.194 33.626 358.763 33.626C360.333 33.626 361.535 34.0953 362.371 35.034C363.222 35.958 363.647 37.1973 363.647 38.752ZM361.051 38.752C361.051 37.8573 360.853 37.1607 360.457 36.662C360.061 36.1487 359.497 35.892 358.763 35.892C358.03 35.892 357.465 36.1487 357.069 36.662C356.673 37.1607 356.475 37.8573 356.475 38.752V40.072C356.475 40.9667 356.673 41.6707 357.069 42.184C357.465 42.6973 358.03 42.954 358.763 42.954C359.497 42.954 360.061 42.6973 360.457 42.184C360.853 41.6707 361.051 40.9667 361.051 40.072V38.752ZM372.776 36.156C372.087 36.156 371.427 36.266 370.796 36.486C370.18 36.6913 369.586 37.0287 369.014 37.498V45H366.484V33.846H368.882V35.562C369.63 34.858 370.297 34.3593 370.884 34.066C371.471 33.7727 372.101 33.626 372.776 33.626V36.156ZM381.526 45V43.482C380.851 44.1567 380.265 44.6187 379.766 44.868C379.282 45.1027 378.776 45.22 378.248 45.22C377.045 45.22 376.107 44.7653 375.432 43.856C374.772 42.9467 374.442 41.6707 374.442 40.028V38.84C374.442 37.2413 374.845 35.9727 375.652 35.034C376.459 34.0953 377.625 33.626 379.15 33.626C379.531 33.626 379.905 33.6627 380.272 33.736C380.653 33.8093 381.027 33.912 381.394 34.044V28.72H383.924V45H381.526ZM377.038 40.028C377.038 41.0107 377.199 41.7293 377.522 42.184C377.859 42.6387 378.329 42.866 378.93 42.866C379.267 42.866 379.627 42.7707 380.008 42.58C380.389 42.3747 380.851 41.9933 381.394 41.436V36.332C380.675 36.0387 380.015 35.892 379.414 35.892C378.563 35.892 377.955 36.156 377.588 36.684C377.221 37.212 377.038 37.9307 377.038 38.84V40.028ZM390.534 43.02C391.077 43.02 391.524 42.932 391.876 42.756C392.228 42.5653 392.404 42.2867 392.404 41.92C392.404 41.5973 392.287 41.348 392.052 41.172C391.832 40.9813 391.429 40.8127 390.842 40.666L389.588 40.336C388.62 40.0867 387.901 39.6687 387.432 39.082C386.977 38.4953 386.75 37.7987 386.75 36.992C386.75 36.0387 387.08 35.2393 387.74 34.594C388.4 33.9487 389.419 33.626 390.798 33.626C391.355 33.626 391.942 33.692 392.558 33.824C393.174 33.956 393.819 34.1687 394.494 34.462L393.768 36.618C393.152 36.3247 392.595 36.1193 392.096 36.002C391.597 35.8847 391.157 35.826 390.776 35.826C389.735 35.826 389.214 36.178 389.214 36.882C389.214 37.1607 389.302 37.3807 389.478 37.542C389.669 37.7033 390.013 37.85 390.512 37.982L391.766 38.312C392.837 38.5907 393.614 39.016 394.098 39.588C394.597 40.16 394.846 40.8787 394.846 41.744C394.846 42.7707 394.494 43.6067 393.79 44.252C393.101 44.8973 392.008 45.22 390.512 45.22C389.236 45.22 387.894 44.9267 386.486 44.34L387.168 42.25C387.857 42.5287 388.481 42.7267 389.038 42.844C389.595 42.9613 390.094 43.02 390.534 43.02Z" fill="#352D24"/>
</svg>
