<svg width="314" height="156" viewBox="0 0 314 156" fill="none" xmlns="http://www.w3.org/2000/svg">
<g filter="url(#filter0_d_13_109)">
<ellipse cx="156.514" cy="77.6946" rx="146.621" ry="46.4517" transform="rotate(-0.538717 156.514 77.6946)" fill="#6CA96F"/>
<path d="M98.6043 82.0995C100.692 82.0883 101.732 81.3087 101.724 79.7607C101.72 79.1307 101.556 78.6366 101.23 78.2784C100.922 77.92 100.344 77.6081 99.4968 77.3426L97.2789 76.6255C94.6283 75.7757 93.296 74.0458 93.282 71.4359C93.2739 69.9239 93.7353 68.6794 94.666 67.7024C95.6147 66.7073 97.097 66.2043 99.113 66.1935C99.959 66.189 100.797 66.2835 101.626 66.4771C102.455 66.6526 103.338 66.9449 104.276 67.3539L103.292 70.1402C102.426 69.8028 101.687 69.5638 101.074 69.4231C100.479 69.2643 99.8671 69.1865 99.2371 69.1899C98.4091 69.1943 97.7529 69.3509 97.2686 69.6595C96.8021 69.95 96.571 70.4822 96.5751 71.2562C96.5782 71.8322 96.7428 72.3083 97.0688 72.6846C97.4127 73.0427 97.9723 73.3457 98.7477 73.5936L100.966 74.3107C102.3 74.7536 103.302 75.4052 103.973 76.2656C104.662 77.1079 105.01 78.2311 105.017 79.6351C105.026 81.2551 104.52 82.5718 103.499 83.5853C102.479 84.5808 100.87 85.0844 98.6743 85.0962C97.8103 85.1008 96.9098 85.0066 95.9728 84.8136C95.0536 84.6026 94.0437 84.248 92.943 83.7499L93.9271 80.9635C94.9374 81.3901 95.794 81.6915 96.497 81.8678C97.2179 82.0259 97.9203 82.1032 98.6043 82.0995ZM110.527 77.1215L110.536 78.7145C110.542 79.8665 110.754 80.7293 111.171 81.3031C111.588 81.8769 112.255 82.1613 113.173 82.1564C113.623 82.154 114.127 82.0973 114.685 81.9863C115.26 81.8572 115.88 81.6649 116.544 81.4093L117.449 84.0235C116.641 84.3518 115.878 84.5989 115.158 84.7648C114.439 84.9307 113.729 85.0155 113.027 85.0192C111.227 85.0289 109.847 84.4603 108.887 83.3134C107.926 82.1665 107.441 80.6391 107.431 78.7311L107.422 77.1381C107.412 75.2122 107.881 73.6796 108.829 72.5405C109.777 71.3834 111.15 70.8001 112.95 70.7904C113.634 70.7868 114.328 70.864 115.031 71.0223C115.734 71.1805 116.473 71.4106 117.248 71.7124L116.372 74.3901C115.073 73.8931 113.992 73.6469 113.128 73.6515C112.21 73.6564 111.545 73.948 111.134 74.5262C110.723 75.0864 110.521 75.9515 110.527 77.1215ZM126.931 73.6045C126.481 73.6069 125.969 73.7177 125.394 73.9368C124.819 74.1559 124.137 74.5825 123.349 75.2168L123.4 84.6936L120.295 84.7103L120.188 64.7305L123.293 64.7139L123.335 72.7058C124.16 71.9994 124.931 71.4912 125.649 71.1814C126.368 70.8715 127.105 70.7146 127.861 70.7105C129.175 70.7035 130.176 71.1211 130.865 71.9634C131.553 72.7877 131.901 73.9559 131.909 75.4679L131.959 84.6477L128.854 84.6644L128.806 75.8625C128.798 74.3505 128.173 73.5979 126.931 73.6045ZM146.453 83.787C145.519 84.17 144.638 84.4448 143.811 84.6112C142.984 84.7776 142.201 84.8628 141.463 84.8668C139.429 84.8777 137.887 84.31 136.837 83.1636C135.787 82.0172 135.257 80.49 135.247 78.582L135.238 76.9621C135.231 75.6841 135.459 74.5758 135.922 73.6373C136.385 72.6988 137.047 71.9663 137.908 71.4397C138.77 70.913 139.785 70.6466 140.955 70.6403C141.909 70.6352 142.801 70.8284 143.631 71.22C144.479 71.5934 145.167 72.1928 145.693 73.018C146.237 73.825 146.513 74.8676 146.52 76.1456C146.522 76.5236 146.497 76.9287 146.445 77.361C146.394 77.7753 146.306 78.2167 146.182 78.6854L138.244 78.728C138.286 79.8438 138.57 80.6792 139.095 81.2344C139.62 81.7896 140.458 82.0641 141.61 82.058C142.222 82.0547 142.852 81.9793 143.499 81.8318C144.164 81.6843 144.847 81.4646 145.548 81.1729L146.453 83.787ZM140.969 73.2593C140.141 73.2637 139.495 73.5372 139.03 74.0797C138.582 74.6041 138.325 75.3615 138.259 76.3519L143.443 76.3241C143.46 76.234 143.469 76.1529 143.468 76.0809C143.468 75.9909 143.467 75.9099 143.467 75.8379C143.462 74.9739 143.216 74.3273 142.728 73.8979C142.239 73.4685 141.653 73.2556 140.969 73.2593ZM158.161 84.5073L158.151 82.6443C157.327 83.4767 156.61 84.0476 156 84.3569C155.408 84.6481 154.787 84.7954 154.139 84.7989C152.663 84.8068 151.508 84.2549 150.674 83.1434C149.858 82.0318 149.445 80.4679 149.434 78.452L149.426 76.994C149.416 75.032 149.903 73.4724 150.886 72.3151C151.87 71.1578 153.298 70.5742 155.17 70.5641C155.638 70.5616 156.097 70.6042 156.548 70.6917C157.016 70.7792 157.476 70.9028 157.927 71.0624L157.892 64.5284L160.997 64.5118L161.104 84.4915L158.161 84.5073ZM152.62 78.4349C152.627 79.6409 152.829 80.5218 153.228 81.0777C153.645 81.6335 154.223 81.9094 154.961 81.9054C155.375 81.9032 155.815 81.7838 156.282 81.5473C156.749 81.2928 157.313 80.8218 157.975 80.1342L157.942 73.8703C157.058 73.515 156.247 73.3394 155.509 73.3433C154.465 73.3489 153.72 73.6769 153.273 74.3273C152.827 74.9777 152.606 75.8609 152.612 76.9769L152.62 78.4349ZM173.536 84.4249L173.526 82.6159C172.702 83.3403 171.931 83.8755 171.213 84.2213C170.494 84.5492 169.766 84.7151 169.028 84.719C167.804 84.7256 166.857 84.3167 166.187 83.4923C165.516 82.6498 165.177 81.4726 165.169 79.9607L165.12 70.7808L168.225 70.7641L168.272 79.566C168.28 81.078 168.842 81.831 169.958 81.825C170.408 81.8226 170.893 81.712 171.414 81.4932C171.953 81.2743 172.599 80.8568 173.351 80.2408L173.3 70.7369L176.405 70.7203L176.479 84.4091L173.536 84.4249ZM180.652 80.5257L180.566 64.4069L183.671 64.3903L183.757 80.509C183.759 80.779 183.823 81.0397 183.95 81.291C184.096 81.5242 184.366 81.6398 184.762 81.6377L185.194 81.6353L185.209 84.4973L184.453 84.5014C183.427 84.5069 182.643 84.3131 182.101 83.92C181.559 83.5269 181.179 83.0249 180.959 82.4141C180.758 81.8031 180.656 81.1737 180.652 80.5257ZM191.314 68.0483L188.047 68.0659L188.03 64.8529L191.297 64.8354L191.314 68.0483ZM191.321 84.3295L188.216 84.3462L188.142 70.6574L191.247 70.6407L191.321 84.3295ZM202.235 73.2009C201.785 73.2033 201.272 73.314 200.698 73.5331C200.123 73.7522 199.441 74.1789 198.652 74.8131L198.703 84.29L195.598 84.3066L195.525 70.6178L198.468 70.602L198.478 72.438C199.32 71.6955 200.118 71.1602 200.872 70.8322C201.626 70.4861 202.39 70.311 203.164 70.3069C204.478 70.2998 205.48 70.7175 206.168 71.5598C206.857 72.3841 207.205 73.5522 207.213 75.0642L207.262 84.2441L204.157 84.2607L204.11 75.4589C204.102 73.9469 203.477 73.1942 202.235 73.2009ZM222.74 85.5382C222.748 86.9961 222.178 88.1332 221.03 88.9494C219.901 89.7834 218.319 90.2059 216.285 90.2168C215.331 90.2219 214.322 90.1193 213.259 89.909C212.196 89.6987 211.213 89.344 210.31 88.8448L211.188 86.3831C212.055 86.8104 212.911 87.1119 213.758 87.2873C214.605 87.4808 215.434 87.5753 216.244 87.571C217.378 87.5649 218.241 87.4073 218.833 87.0981C219.426 86.7889 219.72 86.3823 219.718 85.8784C219.714 85.1044 219.252 84.7198 218.334 84.7248L215.095 84.7421C214.213 84.7468 213.501 84.6067 212.959 84.3216C212.418 84.0365 212.02 83.6696 211.765 83.2209C211.511 82.7543 211.382 82.269 211.38 81.765C211.377 81.243 211.482 80.7564 211.696 80.3053C211.927 79.836 212.24 79.4023 212.634 79.0042C211.984 78.6117 211.459 78.0835 211.059 77.4196C210.678 76.7557 210.484 75.9557 210.479 75.0197C210.474 73.9577 210.694 73.0745 211.14 72.3701C211.586 71.6657 212.196 71.1405 212.968 70.7943C213.758 70.4301 214.63 70.2454 215.584 70.2403L216.043 70.2378C216.403 70.2359 216.754 70.261 217.096 70.3132C217.438 70.3474 217.763 70.4086 218.069 70.497L222.956 70.4708L222.97 73.1167L220.268 72.6992C220.54 72.9858 220.749 73.3447 220.895 73.7759C221.059 74.189 221.143 74.7016 221.146 75.3135C221.151 76.2315 220.921 77.0248 220.457 77.6933C220.01 78.3437 219.401 78.851 218.629 79.2151C217.875 79.5611 217.03 79.7367 216.094 79.7417L215.635 79.7442C215.275 79.7461 214.933 79.7209 214.608 79.6687C214.411 79.8857 214.269 80.1115 214.18 80.346C214.091 80.5624 214.047 80.7697 214.048 80.9677C214.052 81.5977 214.458 81.9105 215.268 81.9061L218.562 81.8885C219.804 81.8818 220.805 82.2005 221.564 82.8444C222.342 83.4703 222.734 84.3682 222.74 85.5382ZM216.08 77.2037C216.638 77.2007 217.123 77.0091 217.535 76.6289C217.965 76.2486 218.178 75.6985 218.174 74.9785C218.17 74.2585 217.951 73.7106 217.517 73.335C217.101 72.9592 216.614 72.7728 216.056 72.7758L215.597 72.7783C215.021 72.7813 214.518 72.973 214.088 73.3533C213.676 73.7336 213.472 74.2837 213.476 75.0037C213.48 75.7236 213.69 76.2715 214.106 76.6473C214.54 77.023 215.045 77.2093 215.621 77.2062L216.08 77.2037Z" fill="#FFF6E3"/>
</g>
<defs>
<filter id="filter0_d_13_109" x="5.8982" y="31.2241" width="301.231" height="100.941" filterUnits="userSpaceOnUse" color-interpolation-filters="sRGB">
<feFlood flood-opacity="0" result="BackgroundImageFix"/>
<feColorMatrix in="SourceAlpha" type="matrix" values="0 0 0 0 0 0 0 0 0 0 0 0 0 0 0 0 0 0 127 0" result="hardAlpha"/>
<feOffset dy="4"/>
<feGaussianBlur stdDeviation="2"/>
<feComposite in2="hardAlpha" operator="out"/>
<feColorMatrix type="matrix" values="0 0 0 0 0 0 0 0 0 0 0 0 0 0 0 0 0 0 0.25 0"/>
<feBlend mode="normal" in2="BackgroundImageFix" result="effect1_dropShadow_13_109"/>
<feBlend mode="normal" in="SourceGraphic" in2="effect1_dropShadow_13_109" result="shape"/>
</filter>
</defs>
</svg>
