<svg width="132" height="131" viewBox="0 0 132 131" fill="none" xmlns="http://www.w3.org/2000/svg">
<g filter="url(#filter0_d_13_108)">
<path d="M56.252 10.4138L80.3467 43.0082L118.98 41.0142L96.7052 72.7142L109.261 110.128L71.7669 98.4423L40.5268 122.243L39.5354 82.7903L7.76518 60.6157L45.747 47.7666L56.252 10.4138Z" fill="#FBC95C"/>
<path d="M72.9576 75.976C69.8182 76.8177 66.8801 77.0171 64.1434 76.5743C63.6134 74.6977 62.9144 72.6212 62.0463 70.3448C61.2081 68.0149 60.2652 65.8721 59.2176 63.9166L59.6474 63.525C62.0705 63.336 64.283 62.9588 66.2847 62.3934C67.911 61.9341 69.1626 61.423 70.0393 60.8602C70.9042 60.2557 71.2483 59.6407 71.0717 59.0151C70.895 58.3896 70.2024 58.0899 68.994 58.116C67.8273 58.1303 66.3474 58.3907 64.5542 58.8971C63.5117 59.1916 62.0131 59.7049 60.0585 60.437L56.527 53.1943C57.227 52.0059 57.9945 51.1362 58.8295 50.5852C59.6944 49.9807 60.669 49.5253 61.7533 49.2191C64.2971 48.5006 66.6305 48.472 68.7535 49.1332C70.9181 49.7826 72.7242 50.9161 74.1717 52.5335C75.6191 54.151 76.6314 55.9815 77.2085 58.0249C78.1037 61.1942 78.0805 63.9024 77.1392 66.1496C76.2278 68.3432 74.4698 70.0105 71.8652 71.1514L73.1821 75.5749L72.9576 75.976ZM72.799 90.0022C71.3394 90.4144 70.0481 90.3063 68.925 89.6779C67.7901 89.0078 67.0048 87.9013 66.569 86.3583C66.1921 85.0239 66.312 83.7742 66.9286 82.6095C67.587 81.4329 68.5834 80.6562 69.9178 80.2793C71.294 79.8906 72.5703 80.0254 73.7469 80.6837C74.9652 81.3303 75.7627 82.3208 76.1396 83.6553C76.5754 85.1982 76.4642 86.558 75.8058 87.7346C75.1774 88.8577 74.1751 89.6135 72.799 90.0022Z" fill="#352D24"/>
</g>
<defs>
<filter id="filter0_d_13_108" x="3.76514" y="10.4138" width="119.215" height="119.829" filterUnits="userSpaceOnUse" color-interpolation-filters="sRGB">
<feFlood flood-opacity="0" result="BackgroundImageFix"/>
<feColorMatrix in="SourceAlpha" type="matrix" values="0 0 0 0 0 0 0 0 0 0 0 0 0 0 0 0 0 0 127 0" result="hardAlpha"/>
<feOffset dy="4"/>
<feGaussianBlur stdDeviation="2"/>
<feComposite in2="hardAlpha" operator="out"/>
<feColorMatrix type="matrix" values="0 0 0 0 0 0 0 0 0 0 0 0 0 0 0 0 0 0 0.25 0"/>
<feBlend mode="normal" in2="BackgroundImageFix" result="effect1_dropShadow_13_108"/>
<feBlend mode="normal" in="SourceGraphic" in2="effect1_dropShadow_13_108" result="shape"/>
</filter>
</defs>
</svg>
