<svg width="336" height="90" viewBox="0 0 336 90" fill="none" xmlns="http://www.w3.org/2000/svg">
<path d="M28.9483 53V36.68H34.4683C36.4203 36.68 37.9083 37.224 38.9323 38.312C39.9563 39.4 40.4683 41 40.4683 43.112V46.544C40.4683 48.672 39.9563 50.28 38.9323 51.368C37.9083 52.456 36.4203 53 34.4683 53H28.9483ZM34.3483 39.44H31.8283V50.24H34.3483C35.4843 50.24 36.2923 49.96 36.7723 49.4C37.2683 48.84 37.5163 47.888 37.5163 46.544V43.112C37.5163 41.784 37.2683 40.84 36.7723 40.28C36.2923 39.72 35.4843 39.44 34.3483 39.44ZM53.8764 46.184V47.624C53.8764 49.32 53.4124 50.68 52.4844 51.704C51.5564 52.728 50.2444 53.24 48.5484 53.24C46.8524 53.24 45.5404 52.728 44.6124 51.704C43.6844 50.68 43.2204 49.32 43.2204 47.624V46.184C43.2204 44.488 43.6764 43.136 44.5884 42.128C45.5164 41.104 46.8364 40.592 48.5484 40.592C50.2604 40.592 51.5724 41.104 52.4844 42.128C53.4124 43.136 53.8764 44.488 53.8764 46.184ZM51.0444 46.184C51.0444 45.208 50.8284 44.448 50.3964 43.904C49.9644 43.344 49.3484 43.064 48.5484 43.064C47.7484 43.064 47.1324 43.344 46.7004 43.904C46.2684 44.448 46.0524 45.208 46.0524 46.184V47.624C46.0524 48.6 46.2684 49.368 46.7004 49.928C47.1324 50.488 47.7484 50.768 48.5484 50.768C49.3484 50.768 49.9644 50.488 50.3964 49.928C50.8284 49.368 51.0444 48.6 51.0444 47.624V46.184ZM62.9231 43.16C62.5231 43.16 62.0671 43.256 61.5551 43.448C61.0431 43.64 60.4351 44.016 59.7311 44.576V53H56.9711V40.832H59.5871V42.464C60.3391 41.808 61.0511 41.336 61.7231 41.048C62.3951 40.744 63.0751 40.592 63.7631 40.592C64.9311 40.592 65.8191 40.968 66.4271 41.72C67.0351 42.456 67.3391 43.496 67.3391 44.84V53H64.5791V45.176C64.5791 43.832 64.0271 43.16 62.9231 43.16ZM73.4108 36.68V37.136C73.4108 38.304 73.2428 39.416 72.9068 40.472C72.5708 41.528 72.0028 42.68 71.2028 43.928L69.4748 42.992C69.8588 42.208 70.1388 41.512 70.3148 40.904C70.4908 40.296 70.6028 39.664 70.6508 39.008C70.6988 38.352 70.7228 37.576 70.7228 36.68H73.4108ZM83.3693 52.592C82.9533 52.784 82.4733 52.936 81.9293 53.048C81.3853 53.176 80.8333 53.24 80.2733 53.24C79.3453 53.24 78.6013 53.048 78.0413 52.664C77.4813 52.28 77.0733 51.744 76.8173 51.056C76.5773 50.368 76.4573 49.584 76.4573 48.704V43.232H74.4893V40.832H76.4573V37.664H79.2173V40.832H83.0093V43.232H79.2173V48.704C79.2173 49.44 79.3533 49.952 79.6253 50.24C79.9133 50.512 80.3213 50.648 80.8493 50.648C81.1053 50.648 81.3773 50.624 81.6653 50.576C81.9693 50.512 82.3053 50.408 82.6733 50.264L83.3693 52.592ZM97.665 53L94.665 47.936C94.185 48.416 93.681 48.896 93.153 49.376V53H90.393V35.24H93.153V46.328C94.065 45.4 94.849 44.512 95.505 43.664C96.177 42.8 96.793 41.856 97.353 40.832H100.521C99.993 41.792 99.417 42.704 98.793 43.568C98.169 44.432 97.481 45.304 96.729 46.184L101.001 53H97.665ZM109.118 43.16C108.718 43.16 108.262 43.256 107.75 43.448C107.238 43.64 106.63 44.016 105.926 44.576V53H103.166V40.832H105.782V42.464C106.534 41.808 107.246 41.336 107.918 41.048C108.59 40.744 109.27 40.592 109.958 40.592C111.126 40.592 112.014 40.968 112.622 41.72C113.23 42.456 113.534 43.496 113.534 44.84V53H110.774V45.176C110.774 43.832 110.222 43.16 109.118 43.16ZM127.142 46.184V47.624C127.142 49.32 126.678 50.68 125.75 51.704C124.822 52.728 123.51 53.24 121.814 53.24C120.118 53.24 118.806 52.728 117.878 51.704C116.95 50.68 116.486 49.32 116.486 47.624V46.184C116.486 44.488 116.942 43.136 117.854 42.128C118.782 41.104 120.102 40.592 121.814 40.592C123.526 40.592 124.838 41.104 125.75 42.128C126.678 43.136 127.142 44.488 127.142 46.184ZM124.31 46.184C124.31 45.208 124.094 44.448 123.662 43.904C123.23 43.344 122.614 43.064 121.814 43.064C121.014 43.064 120.398 43.344 119.966 43.904C119.534 44.448 119.318 45.208 119.318 46.184V47.624C119.318 48.6 119.534 49.368 119.966 49.928C120.398 50.488 121.014 50.768 121.814 50.768C122.614 50.768 123.23 50.488 123.662 49.928C124.094 49.368 124.31 48.6 124.31 47.624V46.184ZM145.146 40.832L142.026 53H139.026L137.01 43.856L134.874 53H131.874L128.754 40.832H131.586L132.762 45.656L133.578 50.048L135.642 40.832H138.426L140.562 50.144L141.33 45.68L142.482 40.832H145.146ZM158.454 43.16C158.054 43.16 157.598 43.256 157.086 43.448C156.574 43.64 155.966 44.016 155.262 44.576V53H152.502V35.24H155.262V42.344C155.998 41.72 156.686 41.272 157.326 41C157.966 40.728 158.622 40.592 159.294 40.592C160.462 40.592 161.35 40.968 161.958 41.72C162.566 42.456 162.87 43.496 162.87 44.84V53H160.11V45.176C160.11 43.832 159.558 43.16 158.454 43.16ZM176.478 46.184V47.624C176.478 49.32 176.014 50.68 175.086 51.704C174.158 52.728 172.846 53.24 171.15 53.24C169.454 53.24 168.142 52.728 167.214 51.704C166.286 50.68 165.822 49.32 165.822 47.624V46.184C165.822 44.488 166.278 43.136 167.19 42.128C168.118 41.104 169.438 40.592 171.15 40.592C172.862 40.592 174.174 41.104 175.086 42.128C176.014 43.136 176.478 44.488 176.478 46.184ZM173.646 46.184C173.646 45.208 173.43 44.448 172.998 43.904C172.566 43.344 171.95 43.064 171.15 43.064C170.35 43.064 169.734 43.344 169.302 43.904C168.87 44.448 168.654 45.208 168.654 46.184V47.624C168.654 48.6 168.87 49.368 169.302 49.928C169.734 50.488 170.35 50.768 171.15 50.768C171.95 50.768 172.566 50.488 172.998 49.928C173.43 49.368 173.646 48.6 173.646 47.624V46.184ZM194.482 40.832L191.362 53H188.362L186.346 43.856L184.21 53H181.21L178.09 40.832H180.922L182.098 45.656L182.914 50.048L184.978 40.832H187.762L189.898 50.144L190.666 45.68L191.818 40.832H194.482ZM209.158 52.592C208.742 52.784 208.262 52.936 207.718 53.048C207.174 53.176 206.622 53.24 206.062 53.24C205.134 53.24 204.39 53.048 203.83 52.664C203.27 52.28 202.862 51.744 202.606 51.056C202.366 50.368 202.246 49.584 202.246 48.704V43.232H200.278V40.832H202.246V37.664H205.006V40.832H208.798V43.232H205.006V48.704C205.006 49.44 205.142 49.952 205.414 50.24C205.702 50.512 206.11 50.648 206.638 50.648C206.894 50.648 207.166 50.624 207.454 50.576C207.758 50.512 208.094 50.408 208.462 50.264L209.158 52.592ZM221.337 46.184V47.624C221.337 49.32 220.873 50.68 219.945 51.704C219.017 52.728 217.705 53.24 216.009 53.24C214.313 53.24 213.001 52.728 212.073 51.704C211.145 50.68 210.681 49.32 210.681 47.624V46.184C210.681 44.488 211.137 43.136 212.049 42.128C212.977 41.104 214.297 40.592 216.009 40.592C217.721 40.592 219.033 41.104 219.945 42.128C220.873 43.136 221.337 44.488 221.337 46.184ZM218.505 46.184C218.505 45.208 218.289 44.448 217.857 43.904C217.425 43.344 216.809 43.064 216.009 43.064C215.209 43.064 214.593 43.344 214.161 43.904C213.729 44.448 213.513 45.208 213.513 46.184V47.624C213.513 48.6 213.729 49.368 214.161 49.928C214.593 50.488 215.209 50.768 216.009 50.768C216.809 50.768 217.425 50.488 217.857 49.928C218.289 49.368 218.505 48.6 218.505 47.624V46.184ZM232.645 50.84C233.237 50.84 233.725 50.744 234.109 50.552C234.493 50.344 234.685 50.04 234.685 49.64C234.685 49.288 234.557 49.016 234.301 48.824C234.061 48.616 233.621 48.432 232.981 48.272L231.613 47.912C230.557 47.64 229.773 47.184 229.261 46.544C228.765 45.904 228.517 45.144 228.517 44.264C228.517 43.224 228.877 42.352 229.597 41.648C230.317 40.944 231.429 40.592 232.933 40.592C233.541 40.592 234.181 40.664 234.853 40.808C235.525 40.952 236.229 41.184 236.965 41.504L236.173 43.856C235.501 43.536 234.893 43.312 234.349 43.184C233.805 43.056 233.325 42.992 232.909 42.992C231.773 42.992 231.205 43.376 231.205 44.144C231.205 44.448 231.301 44.688 231.493 44.864C231.701 45.04 232.077 45.2 232.621 45.344L233.989 45.704C235.157 46.008 236.005 46.472 236.533 47.096C237.077 47.72 237.349 48.504 237.349 49.448C237.349 50.568 236.965 51.48 236.197 52.184C235.445 52.888 234.253 53.24 232.621 53.24C231.229 53.24 229.765 52.92 228.229 52.28L228.973 50C229.725 50.304 230.405 50.52 231.013 50.648C231.621 50.776 232.165 50.84 232.645 50.84ZM247.502 52.592C247.086 52.784 246.606 52.936 246.062 53.048C245.518 53.176 244.966 53.24 244.406 53.24C243.478 53.24 242.734 53.048 242.174 52.664C241.614 52.28 241.206 51.744 240.95 51.056C240.71 50.368 240.59 49.584 240.59 48.704V43.232H238.622V40.832H240.59V37.664H243.35V40.832H247.142V43.232H243.35V48.704C243.35 49.44 243.486 49.952 243.758 50.24C244.046 50.512 244.454 50.648 244.982 50.648C245.238 50.648 245.51 50.624 245.798 50.576C246.102 50.512 246.438 50.408 246.806 50.264L247.502 52.592ZM258.937 53.12C258.121 53.12 257.465 52.952 256.969 52.616C256.489 52.28 256.137 51.864 255.913 51.368C255.225 52.008 254.561 52.48 253.921 52.784C253.281 53.088 252.593 53.24 251.857 53.24C250.785 53.24 249.993 52.896 249.481 52.208C248.985 51.52 248.737 50.648 248.737 49.592C248.737 48.888 248.865 48.272 249.121 47.744C249.393 47.2 249.833 46.776 250.441 46.472C251.049 46.168 251.881 46.016 252.937 46.016C253.353 46.016 253.785 46.048 254.233 46.112C254.681 46.16 255.129 46.224 255.577 46.304V44.888C255.577 44.216 255.393 43.76 255.025 43.52C254.657 43.264 254.161 43.136 253.537 43.136C253.057 43.136 252.529 43.2 251.953 43.328C251.393 43.456 250.785 43.656 250.129 43.928L249.337 41.576C250.953 40.92 252.417 40.592 253.729 40.592C254.913 40.592 255.825 40.792 256.465 41.192C257.121 41.592 257.577 42.12 257.833 42.776C258.089 43.432 258.217 44.136 258.217 44.888V49.568C258.217 49.808 258.281 50.04 258.409 50.264C258.553 50.472 258.825 50.576 259.225 50.576H259.489V53.12H258.937ZM251.401 49.544C251.401 49.976 251.497 50.32 251.689 50.576C251.881 50.816 252.161 50.936 252.529 50.936C252.897 50.936 253.313 50.84 253.777 50.648C254.241 50.456 254.841 50.008 255.577 49.304V48.272C254.745 48.128 253.929 48.056 253.129 48.056C252.505 48.056 252.057 48.184 251.785 48.44C251.529 48.696 251.401 49.064 251.401 49.544ZM268.749 43.352C267.997 43.352 267.277 43.472 266.589 43.712C265.917 43.936 265.269 44.304 264.645 44.816V53H261.885V40.832H264.501V42.704C265.317 41.936 266.045 41.392 266.685 41.072C267.325 40.752 268.013 40.592 268.749 40.592V43.352ZM278.486 52.592C278.07 52.784 277.59 52.936 277.046 53.048C276.502 53.176 275.95 53.24 275.39 53.24C274.462 53.24 273.718 53.048 273.158 52.664C272.598 52.28 272.19 51.744 271.934 51.056C271.694 50.368 271.574 49.584 271.574 48.704V43.232H269.606V40.832H271.574V37.664H274.334V40.832H278.126V43.232H274.334V48.704C274.334 49.44 274.47 49.952 274.742 50.24C275.03 50.512 275.438 50.648 275.966 50.648C276.222 50.648 276.494 50.624 276.782 50.576C277.086 50.512 277.422 50.408 277.79 50.264L278.486 52.592ZM288.078 48.224H285.918L285.63 41.96V36.68H288.39V41.96L288.078 48.224ZM288.438 53H285.534V50.144H288.438V53ZM295.26 39.008C294.716 39.008 294.148 39.08 293.556 39.224C292.964 39.368 292.276 39.6 291.492 39.92L290.604 37.544C291.516 37.128 292.372 36.84 293.172 36.68C293.988 36.52 294.748 36.44 295.452 36.44C296.684 36.44 297.668 36.624 298.404 36.992C299.156 37.36 299.7 37.864 300.036 38.504C300.372 39.128 300.54 39.848 300.54 40.664V41.096C300.54 41.944 300.412 42.68 300.156 43.304C299.9 43.912 299.452 44.504 298.812 45.08L297.948 45.872C297.42 46.352 297.108 46.744 297.012 47.048C296.916 47.336 296.868 47.656 296.868 48.008V48.224H293.988V47.792C293.988 47.184 294.084 46.624 294.276 46.112C294.468 45.6 294.924 45.016 295.644 44.36L296.532 43.544C296.996 43.112 297.308 42.736 297.468 42.416C297.628 42.096 297.708 41.736 297.708 41.336V40.904C297.708 40.344 297.524 39.888 297.156 39.536C296.788 39.184 296.156 39.008 295.26 39.008ZM296.892 53H293.988V50.144H296.892V53Z" fill="#352D24"/>
<rect x="0.5" y="0.5" width="335" height="89" rx="44.5" stroke="black"/>
</svg>
