<svg width="102" height="111" viewBox="0 0 102 111" fill="none" xmlns="http://www.w3.org/2000/svg">
<path d="M20.4288 31.9118C31.7112 14.2876 54.2942 8.60191 70.8694 19.2125C77.4547 23.4281 82.0977 29.5834 84.5986 36.575L96.6977 46.1558L86.7056 50.8768C86.3947 57.5094 84.3576 64.2387 80.4534 70.3374C69.171 87.9618 46.5872 93.6471 30.0119 83.0362C13.4369 72.4252 9.14637 49.5361 20.4288 31.9118Z" fill="#C71D1D"/>
<path d="M46.1424 64.2399C46.0491 60.4132 45.7224 52.6665 45.1624 40.9999L44.9524 36.1699L56.2924 35.5399C56.3391 36.4732 56.3624 37.8499 56.3624 39.6699C56.3624 44.5232 56.1291 50.2632 55.6624 56.8899C55.4757 59.8765 55.3591 61.7899 55.3124 62.6299C53.0724 63.8899 50.1324 64.5432 46.4924 64.5899L46.1424 64.2399ZM50.5524 80.4799C49.0124 80.4799 47.7291 79.9899 46.7024 79.0099C45.7224 77.9832 45.2324 76.6065 45.2324 74.8799C45.2324 73.3865 45.7457 72.1265 46.7724 71.0999C47.8457 70.0732 49.1524 69.5599 50.6924 69.5599C52.1857 69.5599 53.4224 70.0732 54.4024 71.0999C55.4291 72.1265 55.9424 73.3865 55.9424 74.8799C55.9424 76.6065 55.4524 77.9832 54.4724 79.0099C53.4924 79.9899 52.1857 80.4799 50.5524 80.4799Z" fill="#FFE0E0"/>
</svg>
