<svg width="386" height="106" viewBox="0 0 386 106" fill="none" xmlns="http://www.w3.org/2000/svg">
<g filter="url(#filter0_d_13_113)">
<path d="M350.944 7.1796C368.061 7.53607 381.601 21.7001 381.185 38.8159L380.728 57.6317C380.542 65.2939 377.589 72.2475 372.85 77.5607L374.4 97.8892L349.762 87.9826C349.503 87.9836 349.243 87.9825 348.982 87.9771L35.221 81.4429C18.104 81.0864 4.56488 66.9222 4.98032 49.8066L5.43725 30.9909C5.85291 13.8751 20.066 0.288975 37.1831 0.645444L350.944 7.1796Z" fill="#458DD1"/>
</g>
<path d="M78.7765 47.4048C81.096 47.4531 82.2767 46.6175 82.3184 44.898C82.3354 44.1982 82.1688 43.6446 81.8186 43.2372C81.4884 42.8303 80.857 42.467 79.9245 42.1475L77.4847 41.2866C74.5686 40.2656 73.1458 38.3056 73.2162 35.4065C73.257 33.727 73.8104 32.3582 74.8764 31.3002C75.9629 30.2225 77.6259 29.7071 79.8654 29.7537C80.8052 29.7733 81.7323 29.9026 82.6468 30.1417C83.5617 30.3608 84.5335 30.7111 85.5621 31.1926L84.3773 34.2586C83.4267 33.8587 82.6135 33.5717 81.9375 33.3976C81.282 33.2039 80.6043 33.0998 79.9045 33.0852C78.9847 33.0661 78.2507 33.2208 77.7026 33.5495C77.1749 33.8586 76.9007 34.443 76.8798 35.3027C76.8643 35.9425 77.0313 36.4761 77.3811 36.9035C77.7513 37.3113 78.3629 37.6641 79.2159 37.9619L81.6557 38.8229C83.1233 39.3536 84.2153 40.1065 84.9318 41.0816C85.6688 42.0371 86.0184 43.2947 85.9805 44.8542C85.9368 46.6537 85.3315 48.1014 84.1646 49.1973C82.9981 50.2733 81.1951 50.7858 78.7557 50.735C77.7959 50.715 76.7988 50.5842 75.7643 50.3427C74.7504 50.0815 73.6403 49.6583 72.4342 49.0731L73.619 46.0071C74.7271 46.5103 75.6686 46.8699 76.4436 47.0861C77.2391 47.2827 78.0167 47.3889 78.7765 47.4048ZM95.8393 51.0908C95.3394 51.0804 94.8307 51.0198 94.3133 50.909C93.8158 50.7986 93.3093 50.648 92.7938 50.4573L92.6321 57.1153L89.1829 57.0435L89.7073 35.4498L92.9766 35.5179L92.9263 37.5873C93.8889 36.6671 94.704 36.054 95.3717 35.7478C96.0393 35.4417 96.733 35.2961 97.4529 35.3111C99.1125 35.3456 100.377 35.9921 101.247 37.2505C102.117 38.5088 102.524 40.2577 102.47 42.497L102.431 44.1166C102.378 46.2959 101.786 48.014 100.655 49.2707C99.5241 50.5274 97.9189 51.1341 95.8393 51.0908ZM96.4451 38.5008C95.9852 38.4912 95.492 38.6209 94.9653 38.89C94.4591 39.1395 93.8168 39.6363 93.0385 40.3802L92.8696 47.3382C93.8396 47.7585 94.7346 47.9771 95.5544 47.9942C96.7142 48.0184 97.5527 47.6758 98.0701 46.9664C98.5875 46.257 98.8612 45.2825 98.8913 44.0429L98.9306 42.4233C98.9632 41.0837 98.757 40.0992 98.3122 39.4698C97.8873 38.8409 97.265 38.5178 96.4451 38.5008ZM117.782 51.3977C116.762 51.3765 115.947 51.1495 115.338 50.7167C114.748 50.2843 114.321 49.7553 114.056 49.1297C113.177 49.9115 112.332 50.4841 111.523 50.8473C110.714 51.2105 109.85 51.3826 108.93 51.3634C107.59 51.3355 106.611 50.885 105.992 50.012C105.393 49.1393 105.11 48.0432 105.142 46.7236C105.163 45.8438 105.342 45.0774 105.678 44.4242C106.034 43.7515 106.597 43.2331 107.366 42.8691C108.135 42.505 109.179 42.3367 110.499 42.3642C111.019 42.375 111.558 42.4262 112.116 42.5179C112.674 42.5895 113.232 42.6812 113.79 42.7928L113.833 41.0233C113.853 40.1836 113.637 39.6089 113.184 39.2994C112.732 38.97 112.116 38.7971 111.336 38.7809C110.736 38.7684 110.075 38.8346 109.351 38.9796C108.647 39.1249 107.881 39.359 107.053 39.6819L106.135 36.7221C108.174 35.9444 110.014 35.5726 111.653 35.6068C113.133 35.6376 114.267 35.9113 115.054 36.4278C115.862 36.9447 116.416 37.6164 116.716 38.4428C117.016 39.2692 117.155 40.1523 117.132 41.092L116.99 46.9403C116.982 47.2402 117.055 47.5318 117.209 47.815C117.382 48.0787 117.719 48.2157 118.219 48.2262L118.549 48.233L118.472 51.4121L117.782 51.3977ZM108.472 46.7329C108.459 47.2727 108.569 47.7051 108.801 48.03C109.034 48.3349 109.38 48.4922 109.84 48.5018C110.3 48.5113 110.823 48.4022 111.408 48.1743C111.994 47.9465 112.757 47.4023 113.699 46.5417L113.73 45.2521C112.694 45.0505 111.677 44.9392 110.677 44.9184C109.897 44.9022 109.333 45.0505 108.986 45.3633C108.658 45.6766 108.487 46.1331 108.472 46.7329ZM124.315 42.892L124.272 44.6614C124.241 45.9411 124.448 46.9056 124.892 47.555C125.337 48.2043 126.069 48.5397 127.088 48.5609C127.588 48.5713 128.15 48.523 128.772 48.4159C129.416 48.2893 130.111 48.0937 130.857 47.8292L131.776 50.759C130.868 51.1001 130.012 51.3523 129.207 51.5156C128.403 51.6789 127.611 51.7525 126.831 51.7362C124.832 51.6946 123.318 51.0229 122.289 49.7212C121.26 48.4195 120.772 46.709 120.823 44.5896L120.866 42.8201C120.918 40.6808 121.489 38.9923 122.579 37.7547C123.67 36.4972 125.216 35.8892 127.215 35.9309C127.975 35.9467 128.743 36.0527 129.518 36.2489C130.293 36.4451 131.107 36.7221 131.959 37.0799L130.897 40.0284C129.471 39.4386 128.278 39.1337 127.318 39.1137C126.298 39.0924 125.55 39.3969 125.075 40.0272C124.6 40.6374 124.347 41.5923 124.315 42.892ZM146.483 50.9752C145.433 51.3734 144.446 51.6529 143.521 51.8137C142.597 51.9745 141.725 52.0464 140.905 52.0293C138.646 51.9823 136.952 51.3068 135.823 50.0031C134.695 48.6993 134.156 46.9877 134.207 44.8683L134.251 43.0689C134.286 41.6493 134.575 40.4251 135.121 39.3962C135.666 38.3673 136.425 37.573 137.399 37.0131C138.373 36.4533 139.51 36.1869 140.809 36.214C141.869 36.236 142.854 36.4766 143.763 36.9356C144.692 37.3751 145.436 38.0607 145.993 38.9925C146.571 39.9047 146.843 41.0706 146.809 42.4902C146.799 42.9101 146.758 43.3593 146.686 43.8379C146.615 44.2966 146.503 44.7843 146.35 45.3013L137.532 45.1176C137.542 46.3581 137.83 47.2943 138.394 47.9262C138.959 48.5581 139.881 48.8873 141.161 48.914C141.841 48.9281 142.543 48.8627 143.267 48.7178C144.01 48.5732 144.776 48.3491 145.564 48.0455L146.483 50.9752ZM140.739 39.1231C139.819 39.104 139.092 39.3889 138.557 39.9779C138.043 40.5473 137.733 41.381 137.626 42.479L143.385 42.599C143.408 42.4994 143.42 42.4096 143.422 42.3297C143.424 42.2297 143.426 42.1397 143.428 42.0597C143.452 41.1 143.199 40.3746 142.671 39.8835C142.143 39.3924 141.499 39.1389 140.739 39.1231ZM159.463 52.1157L159.514 50.0463C158.571 50.9469 157.756 51.5601 157.068 51.8858C156.401 52.192 155.707 52.3376 154.987 52.3226C153.347 52.2884 152.083 51.6419 151.193 50.3832C150.323 49.1248 149.916 47.3759 149.97 45.1366L150.009 43.5171C150.062 41.3377 150.654 39.6197 151.785 38.3629C152.916 37.1062 154.521 36.4995 156.601 36.5428C157.12 36.5537 157.629 36.6143 158.127 36.7246C158.644 36.8354 159.15 36.986 159.646 37.1764L159.822 29.9185L163.272 29.9903L162.733 52.1838L159.463 52.1157ZM153.509 45.2103C153.477 46.5499 153.673 47.5342 154.098 48.1632C154.543 48.7926 155.175 49.1158 155.995 49.1329C156.455 49.1424 156.948 49.0227 157.474 48.7736C158.001 48.5045 158.643 47.9978 159.401 47.2534L159.57 40.2955C158.6 39.8752 157.705 39.6565 156.885 39.6394C155.726 39.6153 154.887 39.9579 154.37 40.6673C153.852 41.3766 153.579 42.3511 153.549 43.5908L153.509 45.2103ZM177.721 44.9944L177.539 52.4921L173.94 52.4172L174.435 32.0232L181.243 32.165C183.303 32.2079 184.87 32.7706 185.944 33.8532C187.038 34.9162 187.564 36.3275 187.521 38.087L187.49 39.3766C187.462 40.5362 187.187 41.5507 186.666 42.4201C186.145 43.2894 185.409 43.9442 184.458 44.3845C186.029 47.2178 187.362 49.9962 188.456 52.7195L184.347 52.6339C183.408 50.1139 182.279 47.5898 180.96 45.0618L177.721 44.9944ZM181.163 35.464L177.954 35.3972L177.801 41.6953L181.01 41.7622C181.89 41.7805 182.565 41.5745 183.036 41.1442C183.527 40.6943 183.782 40.0795 183.801 39.2997L183.832 38.0101C183.851 37.2504 183.625 36.6455 183.156 36.1957C182.707 35.7262 182.043 35.4823 181.163 35.464ZM203.336 52.1592C202.286 52.5574 201.299 52.8369 200.374 52.9977C199.45 53.1585 198.578 53.2304 197.758 53.2133C195.499 53.1662 193.805 52.4908 192.676 51.187C191.547 49.8833 191.009 48.1717 191.06 46.0523L191.104 44.2528C191.138 42.8333 191.428 41.609 191.973 40.5802C192.519 39.5513 193.278 38.757 194.252 38.1971C195.226 37.6373 196.363 37.3709 197.662 37.398C198.722 37.42 199.707 37.6606 200.616 38.1196C201.545 38.559 202.289 39.2447 202.846 40.1765C203.424 41.0887 203.696 42.2546 203.662 43.6742C203.651 44.0941 203.611 44.5433 203.539 45.0219C203.468 45.4805 203.356 45.9683 203.203 46.4852L194.385 46.3016C194.395 47.5421 194.682 48.4782 195.247 49.1101C195.812 49.742 196.734 50.0713 198.014 50.098C198.694 50.1121 199.396 50.0467 200.119 49.9017C200.863 49.7572 201.629 49.5331 202.416 49.2294L203.336 52.1592ZM197.592 40.3071C196.672 40.2879 195.945 40.5729 195.41 41.1619C194.896 41.7313 194.586 42.565 194.479 43.663L200.238 43.7829C200.26 43.6834 200.273 43.5936 200.275 43.5136C200.277 43.4137 200.279 43.3237 200.281 43.2437C200.304 42.284 200.052 41.5586 199.524 41.0675C198.996 40.5764 198.352 40.3229 197.592 40.3071ZM213.909 53.5496C213.41 53.5392 212.901 53.4786 212.383 53.3678C211.886 53.2574 211.379 53.1069 210.864 52.9161L210.702 59.5741L207.253 59.5023L207.777 37.9087L211.047 37.9767L210.996 40.0461C211.959 39.126 212.774 38.5128 213.442 38.2067C214.109 37.9005 214.803 37.7549 215.523 37.7699C217.183 37.8045 218.447 38.4509 219.317 39.7093C220.187 40.9677 220.594 42.7165 220.54 44.9559L220.501 46.5754C220.448 48.7548 219.856 50.4728 218.725 51.7295C217.594 52.9862 215.989 53.5929 213.909 53.5496ZM214.515 40.9596C214.055 40.95 213.562 41.0798 213.035 41.3489C212.529 41.5984 211.887 42.0951 211.109 42.8391L210.94 49.797C211.91 50.2173 212.805 50.436 213.625 50.4531C214.784 50.4772 215.623 50.1346 216.14 49.4252C216.658 48.7158 216.931 47.7413 216.961 46.5017L217.001 44.8822C217.033 43.5426 216.827 42.5581 216.382 41.9287C215.957 41.2997 215.335 40.9767 214.515 40.9596ZM235.907 52.8375C234.857 53.2357 233.87 53.5152 232.945 53.676C232.021 53.8368 231.149 53.9087 230.329 53.8916C228.07 53.8445 226.376 53.1691 225.247 51.8653C224.119 50.5616 223.58 48.85 223.631 46.7306L223.675 44.9312C223.71 43.5116 223.999 42.2873 224.544 41.2585C225.09 40.2296 225.849 39.4353 226.823 38.8754C227.797 38.3156 228.934 38.0492 230.233 38.0763C231.293 38.0983 232.278 38.3389 233.187 38.7979C234.116 39.2373 234.86 39.923 235.417 40.8548C235.995 41.767 236.267 42.9329 236.233 44.3525C236.223 44.7724 236.182 45.2216 236.11 45.7002C236.039 46.1588 235.927 46.6466 235.774 47.1635L226.956 46.9799C226.966 48.2204 227.254 49.1565 227.818 49.7884C228.383 50.4203 229.305 50.7496 230.585 50.7763C231.265 50.7904 231.967 50.725 232.691 50.5801C233.434 50.4355 234.2 50.2114 234.988 49.9077L235.907 52.8375ZM230.163 40.9854C229.243 40.9662 228.516 41.2512 227.981 41.8402C227.467 42.4096 227.157 43.2433 227.05 44.3413L232.809 44.4612C232.832 44.3617 232.844 44.2719 232.846 44.1919C232.848 44.092 232.85 44.002 232.852 43.922C232.876 42.9623 232.623 42.2369 232.095 41.7458C231.567 41.2547 230.923 41.0012 230.163 40.9854ZM249.14 53.4731C248.614 53.7022 248.009 53.8797 247.326 54.0055C246.642 54.1513 245.951 54.2169 245.251 54.2023C244.091 54.1782 243.167 53.9189 242.479 53.4245C241.791 52.93 241.297 52.2496 240.998 51.3832C240.719 50.5172 240.593 49.5344 240.619 48.4347L240.785 41.5967L238.326 41.5455L238.399 38.5464L240.858 38.5976L240.954 34.6388L244.404 34.7106L244.308 38.6694L249.047 38.7681L248.974 41.7672L244.235 41.6685L244.069 48.5065C244.046 49.4262 244.201 50.0696 244.532 50.4366C244.884 50.784 245.389 50.9645 246.049 50.9783C246.369 50.9849 246.71 50.962 247.071 50.9095C247.453 50.8375 247.876 50.7163 248.34 50.5459L249.14 53.4731ZM255.879 36.0298L252.25 35.9542L252.336 32.3853L255.965 32.4608L255.879 36.0298ZM255.35 54.1126L251.9 54.0407L252.27 38.8352L255.719 38.9071L255.35 54.1126ZM269.262 53.8922C268.736 54.1213 268.132 54.2988 267.449 54.4246C266.765 54.5704 266.073 54.636 265.373 54.6214C264.214 54.5972 263.29 54.3379 262.601 53.8435C261.913 53.3491 261.42 52.6687 261.121 51.8022C260.841 50.9363 260.715 49.9534 260.742 48.8537L260.908 42.0158L258.449 41.9645L258.521 38.9654L260.981 39.0166L261.077 35.0578L264.526 35.1296L264.43 39.0885L269.169 39.1872L269.096 42.1863L264.357 42.0876L264.191 48.9256C264.169 49.8453 264.323 50.4887 264.655 50.8556C265.006 51.203 265.512 51.3836 266.172 51.3973C266.492 51.404 266.832 51.3811 267.194 51.3286C267.576 51.2565 267.999 51.1353 268.463 50.9649L269.262 53.8922ZM276.001 36.4488L272.372 36.3733L272.459 32.8043L276.088 32.8799L276.001 36.4488ZM275.472 54.5316L272.023 54.4598L272.392 39.2543L275.842 39.3261L275.472 54.5316ZM292.878 46.3723L292.835 48.1718C292.783 50.2912 292.162 51.9786 290.971 53.2341C289.781 54.4895 288.125 55.0952 286.006 55.0511C283.886 55.0069 282.262 54.333 281.133 53.0292C280.005 51.7254 279.466 50.0138 279.518 47.8945L279.561 46.095C279.613 43.9756 280.224 42.298 281.394 41.0621C282.585 39.8066 284.25 39.2012 286.39 39.2457C288.529 39.2903 290.153 39.9642 291.262 41.2676C292.391 42.5514 292.93 44.253 292.878 46.3723ZM289.339 46.2986C289.369 45.079 289.122 44.1236 288.599 43.4326C288.076 42.7216 287.314 42.3556 286.315 42.3348C285.315 42.314 284.537 42.6479 283.98 43.3364C283.423 44.005 283.13 44.9491 283.101 46.1687L283.057 47.9682C283.027 49.1878 283.274 50.1532 283.797 50.8642C284.32 51.5752 285.081 51.9412 286.081 51.962C287.081 51.9828 287.859 51.6489 288.416 50.9604C288.973 50.2718 289.266 49.3177 289.296 48.0981L289.339 46.2986ZM304.276 42.8289C303.776 42.8185 303.203 42.9266 302.558 43.1532C301.912 43.3798 301.141 43.8338 300.244 44.5153L299.988 55.0422L296.539 54.9704L296.908 39.7648L300.178 39.8329L300.128 41.8723C301.088 41.0721 301.992 40.5008 302.841 40.1584C303.69 39.796 304.544 39.6238 305.404 39.6417C306.864 39.6721 307.962 40.1651 308.699 41.1206C309.436 42.0562 309.785 43.3637 309.744 45.0432L309.496 55.2402L306.047 55.1684L306.285 45.3912C306.325 43.7117 305.656 42.8576 304.276 42.8289Z" fill="#EDF6FF"/>
<defs>
<filter id="filter0_d_13_113" x="0.971008" y="0.638588" width="384.223" height="105.251" filterUnits="userSpaceOnUse" color-interpolation-filters="sRGB">
<feFlood flood-opacity="0" result="BackgroundImageFix"/>
<feColorMatrix in="SourceAlpha" type="matrix" values="0 0 0 0 0 0 0 0 0 0 0 0 0 0 0 0 0 0 127 0" result="hardAlpha"/>
<feOffset dy="4"/>
<feGaussianBlur stdDeviation="2"/>
<feComposite in2="hardAlpha" operator="out"/>
<feColorMatrix type="matrix" values="0 0 0 0 0 0 0 0 0 0 0 0 0 0 0 0 0 0 0.25 0"/>
<feBlend mode="normal" in2="BackgroundImageFix" result="effect1_dropShadow_13_113"/>
<feBlend mode="normal" in="SourceGraphic" in2="effect1_dropShadow_13_113" result="shape"/>
</filter>
</defs>
</svg>
