<svg width="86" height="86" viewBox="0 0 86 86" fill="none" xmlns="http://www.w3.org/2000/svg">
<g filter="url(#filter0_d_13_74)">
<circle cx="43" cy="39" r="39" fill="#FCB3CB"/>
<path d="M43 64.5851C39.4181 64.5851 36.0707 63.9135 32.9579 62.5703C29.845 61.2271 27.1373 59.4041 24.8346 57.1015C22.5319 54.7988 20.7197 52.0804 19.3978 48.9462C18.0759 45.812 17.4149 42.454 17.4149 38.8721C17.4149 35.2902 18.0759 31.9534 19.3978 28.8619C20.7197 25.7704 22.5319 23.0733 24.8346 20.7706C27.1373 18.468 29.845 16.6663 32.9579 15.3658C36.0707 14.0652 39.4181 13.4149 43 13.4149C46.5819 13.4149 49.9293 14.0652 53.0422 15.3658C56.155 16.6663 58.8628 18.468 61.1654 20.7706C63.4681 23.0733 65.2804 25.7704 66.6023 28.8619C67.9242 31.9534 68.5851 35.2902 68.5851 38.8721C68.5851 42.454 67.9242 45.812 66.6023 48.9462C65.2804 52.0804 63.4681 54.7988 61.1654 57.1015C58.8628 59.4041 56.155 61.2271 53.0422 62.5703C49.9293 63.9135 46.5819 64.5851 43 64.5851ZM43 60.8753C44.4925 59.3402 45.7398 57.5812 46.7418 55.5983C47.7439 53.6155 48.5648 51.2595 49.2044 48.5305H36.8596C37.4566 51.089 38.2561 53.3916 39.2582 55.4384C40.2603 57.4852 41.5076 59.2975 43 60.8753ZM37.5632 60.1077C36.4971 58.4873 35.5803 56.739 34.8128 54.8628C34.0452 52.9865 33.4056 50.8758 32.8939 48.5305H23.2995C24.9199 51.558 26.7961 53.9353 28.9282 55.6623C31.0603 57.3893 33.9386 58.8711 37.5632 60.1077ZM48.5008 60.0438C51.571 59.063 54.3321 57.5918 56.784 55.6303C59.2359 53.6688 61.2081 51.3022 62.7006 48.5305H53.1701C52.6158 50.8331 51.9655 52.9226 51.2192 54.7988C50.473 56.675 49.5669 58.4234 48.5008 60.0438ZM22.0202 44.6927H32.1903C32.0624 43.5414 31.9878 42.5073 31.9664 41.5905C31.9451 40.6737 31.9345 39.7676 31.9345 38.8721C31.9345 37.806 31.9558 36.8572 31.9984 36.0257C32.0411 35.1942 32.1264 34.2668 32.2543 33.2434H22.0202C21.7217 34.2668 21.5192 35.1836 21.4126 35.9937C21.306 36.8039 21.2527 37.7634 21.2527 38.8721C21.2527 39.9808 21.306 40.9722 21.4126 41.8463C21.5192 42.7205 21.7217 43.6693 22.0202 44.6927ZM36.156 44.6927H49.908C50.0786 43.3708 50.1852 42.2941 50.2278 41.4626C50.2705 40.6311 50.2918 39.7676 50.2918 38.8721C50.2918 38.0192 50.2705 37.1984 50.2278 36.4095C50.1852 35.6206 50.0786 34.5652 49.908 33.2434H36.156C35.9854 34.5652 35.8788 35.6206 35.8362 36.4095C35.7936 37.1984 35.7722 38.0192 35.7722 38.8721C35.7722 39.7676 35.7936 40.6311 35.8362 41.4626C35.8788 42.2941 35.9854 43.3708 36.156 44.6927ZM53.7458 44.6927H63.9798C64.2783 43.6693 64.4809 42.7205 64.5875 41.8463C64.6941 40.9722 64.7474 39.9808 64.7474 38.8721C64.7474 37.7634 64.6941 36.8039 64.5875 35.9937C64.4809 35.1836 64.2783 34.2668 63.9798 33.2434H53.8097C53.9377 34.7358 54.0229 35.8765 54.0656 36.6654C54.1082 37.4542 54.1295 38.1898 54.1295 38.8721C54.1295 39.8102 54.0976 40.695 54.0336 41.5265C53.9696 42.358 53.8737 43.4134 53.7458 44.6927ZM53.1061 29.4056H62.7006C61.2934 26.4633 59.3638 24.0114 56.9119 22.0499C54.46 20.0883 51.635 18.7025 48.4369 17.8923C49.5029 19.47 50.409 21.1757 51.1553 23.0093C51.9015 24.8429 52.5518 26.975 53.1061 29.4056ZM36.8596 29.4056H49.2684C48.7993 27.1456 48.0104 24.9602 46.9018 22.8494C45.7931 20.7386 44.4925 18.8731 43 17.2527C41.6355 18.404 40.4842 19.9178 39.546 21.794C38.6079 23.6703 37.7124 26.2074 36.8596 29.4056ZM23.2995 29.4056H32.9579C33.4269 27.1029 34.0239 25.0455 34.7488 23.2332C35.4737 21.4209 36.3905 19.6619 37.4992 17.9563C34.3011 18.7664 31.508 20.131 29.1201 22.0499C26.7322 23.9688 24.792 26.4207 23.2995 29.4056Z" fill="black"/>
</g>
<defs>
<filter id="filter0_d_13_74" x="0" y="0" width="86" height="86" filterUnits="userSpaceOnUse" color-interpolation-filters="sRGB">
<feFlood flood-opacity="0" result="BackgroundImageFix"/>
<feColorMatrix in="SourceAlpha" type="matrix" values="0 0 0 0 0 0 0 0 0 0 0 0 0 0 0 0 0 0 127 0" result="hardAlpha"/>
<feOffset dy="4"/>
<feGaussianBlur stdDeviation="2"/>
<feComposite in2="hardAlpha" operator="out"/>
<feColorMatrix type="matrix" values="0 0 0 0 0 0 0 0 0 0 0 0 0 0 0 0 0 0 0.25 0"/>
<feBlend mode="normal" in2="BackgroundImageFix" result="effect1_dropShadow_13_74"/>
<feBlend mode="normal" in="SourceGraphic" in2="effect1_dropShadow_13_74" result="shape"/>
</filter>
</defs>
</svg>
