<svg width="498" height="588" viewBox="0 0 498 588" fill="none" xmlns="http://www.w3.org/2000/svg">
<g filter="url(#filter0_dd_98_2)">
<rect x="14" y="23.4109" width="454.376" height="546.47" rx="52" transform="rotate(-1.69133 14 23.4109)" fill="#FFBDD3"/>
</g>
<path d="M75.7435 180.676L76.2183 196.769L64.5334 197.114L63.3567 157.231L75.1815 156.882L86.2218 172.663C87.8779 174.995 89.1499 176.966 90.0377 178.573L90.2476 178.567L90.0494 171.85L89.5953 156.457L101.21 156.114L102.387 195.997L90.4921 196.348L79.1514 179.875L75.8624 175.21L75.6525 175.216L75.7435 180.676ZM107.763 155.921L136.8 155.064L137.048 163.46L120.605 163.946L120.82 171.222L134.674 170.814L134.897 178.37L121.043 178.779L121.282 186.896L137.655 186.412L137.907 194.949L108.939 195.803L107.763 155.921ZM166.827 194.095L151.084 194.56L139.622 154.981L153.056 154.584L159.239 183.745L159.589 183.734L164.391 154.25L177.545 153.862L184.218 183.008L184.428 183.002L188.95 153.525L201.825 153.145L192.716 193.332L177.043 193.794L171.533 168.466L171.114 168.478L166.827 194.095Z" fill="#352D24"/>
<path d="M98.1926 234.414L117.184 233.854L103.472 291.283L77.3835 292.053L60.2092 235.535L79.3009 234.971L89.8122 279.281L90.312 279.266L98.1926 234.414ZM151.721 291.16C141.792 291.453 134.259 289.341 129.124 284.824C124.053 280.238 121.364 272.747 121.058 262.352C120.757 252.156 123.27 244.646 128.597 239.82C133.923 234.994 141.085 232.448 150.081 232.183C169.006 231.624 178.747 240.775 179.303 259.633C179.584 269.162 177.473 276.728 172.97 282.33C168.533 287.93 161.45 290.873 151.721 291.16ZM150.973 279.377C152.839 279.322 154.396 278.976 155.644 278.339C156.891 277.635 157.857 276.473 158.543 274.852C159.861 272.078 160.429 267.593 160.247 261.396C160.068 255.332 159.238 250.954 157.758 248.263C156.276 245.506 153.667 244.116 149.932 244.092C148.532 244.134 147.071 244.344 145.548 244.722C144.09 245.032 143.169 245.459 142.785 246.004C142.013 246.961 141.439 248.978 141.063 252.057C140.752 255.068 140.649 258.372 140.755 261.971C140.92 267.568 141.574 271.651 142.717 274.218C143.507 276.129 144.581 277.498 145.94 278.325C147.296 279.085 148.974 279.436 150.973 279.377ZM232.749 285.568C230.315 286.707 227.472 287.558 224.22 288.121C220.969 288.683 217.944 289.006 215.145 289.089C206.082 289.356 198.916 287.2 193.645 282.62C188.374 278.04 185.594 270.852 185.305 261.057C185.01 251.061 187.489 243.518 192.741 238.427C197.991 233.27 205.514 230.547 215.31 230.258C219.975 230.121 224.858 230.61 229.96 231.727C229.999 233.06 229.925 235.063 229.737 237.736C229.547 240.343 229.335 242.183 229.099 243.257L222.802 243.443C218.204 243.579 214.575 243.786 211.916 244.064C209.321 244.274 207.764 244.62 207.244 245.103C206.272 246.065 205.562 247.987 205.113 250.868C204.663 253.682 204.476 256.389 204.553 258.988C204.686 263.519 205.356 267.001 206.562 269.433C207.765 271.799 209.245 273.356 211.001 274.104C212.691 274.855 215.468 275.173 219.333 275.059C222.398 274.969 226.389 274.584 231.304 273.906L232.749 285.568ZM271.989 273.806L255.396 274.295L252.766 286.878L234.374 287.421L251.085 229.903L274.574 229.21L293.848 285.666L275.356 286.212L271.989 273.806ZM262.643 241.867L257.367 263.132L269.262 262.781L263.042 241.856L262.643 241.867ZM334.915 254.341C339.462 254.741 342.739 256.178 344.746 258.653C346.751 261.062 347.806 264.032 347.91 267.564C347.975 269.763 347.704 271.872 347.096 273.891C346.487 275.843 345.737 277.532 344.845 278.959C343.951 280.32 343.177 281.209 342.523 281.629C339.908 283.44 331.804 284.546 318.21 284.947L298.818 285.52L297.137 228.544L320.627 227.851C325.958 227.694 330.265 227.867 333.548 228.37C336.896 228.805 339.632 229.992 341.757 231.93C343.879 233.801 345 236.736 345.118 240.735C345.22 244.2 344.436 247.024 342.767 249.208C341.164 251.389 338.541 252.934 334.9 253.842L334.915 254.341ZM326.482 239.784C325.796 239.137 324.984 238.761 324.047 238.655C323.175 238.481 321.773 238.422 319.84 238.479C317.908 238.536 316.443 238.613 315.445 238.709L315.805 250.903L316.804 250.874C317.138 250.864 318.537 250.823 321.003 250.75C323.468 250.677 325.096 250.463 325.886 250.106C326.478 249.822 326.99 249.106 327.423 247.96C327.923 246.811 328.153 245.57 328.114 244.238C328.055 242.238 327.511 240.754 326.482 239.784ZM329.166 273.119C329.62 272.706 329.965 271.962 330.2 270.888C330.5 269.745 330.633 268.607 330.6 267.474C330.559 266.075 330.32 264.781 329.885 263.594C329.515 262.337 329.022 261.452 328.406 260.936C327.789 260.354 326.911 259.98 325.772 259.813C324.7 259.645 322.864 259.599 320.265 259.676C318.6 259.725 317.201 259.8 316.07 259.9L316.498 274.393C319.632 274.367 322.43 274.252 324.891 274.046C327.351 273.773 328.776 273.464 329.166 273.119Z" fill="#352D24"/>
<g filter="url(#filter1_d_98_2)">
<rect x="44.4916" y="86.5296" width="171" height="37" rx="14" transform="rotate(-1.69 44.4916 86.5296)" fill="#FFD7E4"/>
</g>
<path d="M60.3221 112.147L60.2325 111.095L61.7005 110.685C61.6965 110.549 61.6887 110.285 61.6772 109.895C61.6754 109.504 61.6721 109.059 61.6671 108.561C61.6622 108.063 61.6531 107.59 61.6399 107.141L61.5267 103.304C61.4967 102.289 61.4578 101.465 61.4098 100.831C61.3712 100.187 61.331 99.8173 61.2891 99.7209L59.7856 99.4282L59.8273 98.3571L65.5231 98.1891C68.8322 98.0915 70.521 99.2042 70.5896 101.527C70.6126 102.308 70.4085 103.008 69.9774 103.627C69.5459 104.235 68.935 104.722 68.1447 105.087C67.3641 105.452 66.4564 105.65 65.4217 105.681L63.9429 105.724L63.907 104.509L65.0637 104.475C65.9227 104.45 66.5941 104.19 67.0778 103.697C67.571 103.194 67.8054 102.528 67.7809 101.698C67.7342 100.117 66.8812 99.3507 65.2217 99.3997L64.1236 99.4321C64.0889 99.5797 64.104 100.756 64.1691 102.963L64.2901 107.062C64.3137 107.863 64.3449 108.59 64.3837 109.243C64.432 109.887 64.4747 110.34 64.5118 110.602L65.855 110.929L65.8275 111.985L60.3221 112.147ZM72.1163 112.049C70.9157 112.084 69.8963 111.806 69.0582 111.216C68.2201 110.625 67.4134 109.608 66.6381 108.165L65.1176 105.309L67.3281 104.731L70.1204 108.473C70.7104 109.267 71.2502 109.847 71.7398 110.213C72.2293 110.58 72.7786 110.818 73.3875 110.927L73.4014 111.893C73.0035 111.983 72.5751 112.035 72.1163 112.049ZM79.3181 111.763C78.3419 111.792 77.4668 111.602 76.6928 111.195C75.9184 110.779 75.3004 110.196 74.8387 109.448C74.3766 108.689 74.1307 107.803 74.1007 106.788C74.0685 105.694 74.2794 104.731 74.7335 103.897C75.1974 103.062 75.8081 102.404 76.5657 101.923C77.3331 101.441 78.1611 101.192 79.0497 101.175C80.3677 101.146 81.4002 101.536 82.147 102.344C82.8938 103.153 83.2878 104.255 83.329 105.651L83.3441 106.163L76.3013 106.371L76.2672 105.214L81.3333 105.065L81.0104 105.543L80.9905 104.87C80.9666 104.059 80.7674 103.435 80.393 102.997C80.0183 102.549 79.5186 102.334 78.8939 102.352C78.2691 102.371 77.7353 102.655 77.2924 103.206C76.8494 103.756 76.6439 104.573 76.6759 105.656L76.6876 106.052C76.7224 107.233 77.0527 108.161 77.6783 108.836C78.3134 109.501 79.1337 109.819 80.1391 109.789C80.676 109.774 81.1563 109.662 81.5801 109.454C82.0133 109.236 82.4277 108.877 82.8232 108.377L83.5003 108.972C83.0778 109.883 82.502 110.57 81.7731 111.031C81.054 111.492 80.2356 111.736 79.3181 111.763ZM88.7915 111.483C88.1082 111.503 87.5086 111.379 86.9926 111.111C86.4864 110.843 86.0905 110.503 85.8048 110.091C85.5191 109.68 85.3703 109.274 85.3585 108.873C85.3421 108.317 85.4994 107.853 85.8304 107.482C86.1614 107.111 86.7041 106.797 87.4586 106.54L91.0708 105.29L91.0418 104.309C91.026 103.772 90.773 103.311 90.2829 102.925C89.7928 102.539 89.2256 102.355 88.5813 102.374C88.2592 102.384 88.0417 102.463 87.9289 102.613C87.8158 102.753 87.7504 103.019 87.7326 103.41L87.6961 104.657C87.0077 104.834 86.4312 104.831 85.9666 104.65C85.5119 104.468 85.2778 104.152 85.2646 103.703C85.2537 103.332 85.4767 102.944 85.9337 102.54C86.3907 102.136 86.9322 101.778 87.558 101.466C88.1936 101.155 88.7691 100.957 89.2845 100.873C90.573 100.835 91.6071 101.117 92.3869 101.72C93.1765 102.322 93.5963 103.14 93.6464 104.174L93.6777 107.719C93.7013 108.52 93.7755 109.045 93.9001 109.296L95.4164 109.529L95.4428 110.422L94.097 111.004C93.8364 111.11 93.5995 111.195 93.3865 111.26C93.1735 111.325 92.9791 111.36 92.8034 111.365C92.247 111.381 91.8578 111.105 91.6358 110.535L91.2688 109.52L91.6952 109.566C90.7258 110.816 89.7579 111.455 88.7915 111.483ZM89.7052 109.668C90.242 109.653 90.7375 109.394 91.1917 108.892L91.1217 106.52L89.1003 107.048C88.392 107.216 88.0471 107.612 88.0655 108.237C88.0768 108.617 88.243 108.954 88.5643 109.248C88.8856 109.541 89.2659 109.681 89.7052 109.668ZM104.754 111.1L104.218 110.808L104.202 109.27L104.128 109.243C103.718 109.929 103.273 110.411 102.793 110.689C102.312 110.967 101.809 111.114 101.282 111.129C100.432 111.154 99.6454 110.973 98.9207 110.584C98.2055 110.185 97.6271 109.62 97.1855 108.891C96.7536 108.161 96.5231 107.303 96.494 106.317C96.4603 105.175 96.6947 104.177 97.197 103.322C97.7088 102.457 98.3777 101.782 99.2037 101.299C100.039 100.805 100.916 100.545 101.833 100.518C102.185 100.507 102.547 100.536 102.92 100.603C103.303 100.67 103.624 100.777 103.882 100.926C103.871 100.536 103.852 100.058 103.825 99.4917C103.798 98.9161 103.768 98.3747 103.733 97.8677C103.708 97.3507 103.688 96.9898 103.672 96.7851L101.877 96.5449L101.791 95.6242L105.816 94.4357L106.354 94.8008C106.344 95.7781 106.337 96.6967 106.333 97.5566C106.329 98.4164 106.341 99.3149 106.368 100.252L106.5 105.7C106.523 106.481 106.561 107.129 106.616 107.645C106.67 108.162 106.716 108.566 106.754 108.858L108.317 109.178L108.343 110.071L104.754 111.1ZM102.132 109.141C102.463 109.131 102.798 109.038 103.134 108.862C103.481 108.686 103.804 108.383 104.104 107.954L103.952 102.8C103.697 102.417 103.381 102.148 103.005 101.993C102.639 101.837 102.275 101.765 101.914 101.776C101.075 101.8 100.406 102.152 99.9083 102.831C99.4203 103.51 99.1926 104.401 99.2252 105.504C99.2606 106.705 99.5562 107.619 100.112 108.248C100.677 108.866 101.351 109.164 102.132 109.141ZM113.973 110.652L109.478 101.831L108.368 101.468L108.413 100.499L113.772 100.341L113.873 101.306L112.421 101.744L115.477 107.985L113.973 110.652ZM120.009 100.157L120.111 101.121L119.01 101.55L115.196 109.884L113.451 113.819C113.075 114.641 112.681 115.204 112.27 115.509C111.869 115.824 111.42 115.989 110.922 116.003C110.453 116.017 110.074 115.916 109.784 115.7C109.505 115.493 109.36 115.214 109.349 114.863C109.329 114.18 109.798 113.687 110.757 113.385L113.254 112.608L111.925 113.761L114.511 108.512L114.789 108.005L117.341 101.599L115.879 101.246L115.909 100.278L120.009 100.157ZM133.174 108.254C132.928 108.877 132.523 109.367 131.957 109.726C131.391 110.075 130.771 110.259 130.097 110.279C129.062 110.31 128.204 110.037 127.523 109.461C126.851 108.875 126.497 107.967 126.461 106.737L126.375 101.332L124.735 101.381L124.717 100.766L128.23 97.6432L128.83 97.6255L128.876 100.672L129 106.355C129.021 107.077 129.202 107.599 129.544 107.921C129.886 108.244 130.359 108.396 130.964 108.378C131.589 108.359 132.148 108.108 132.642 107.625L133.174 108.254ZM127.839 101.289L127.799 99.9421L132.265 99.8103L132.305 101.157L127.839 101.289ZM139.336 109.992C138.272 110.023 137.333 109.831 136.52 109.416C135.706 109 135.064 108.408 134.592 107.641C134.119 106.863 133.868 105.962 133.838 104.937C133.805 103.824 134.03 102.86 134.514 102.045C134.998 101.229 135.644 100.595 136.451 100.141C137.268 99.6774 138.16 99.4312 139.126 99.4027C140.639 99.3581 141.878 99.8051 142.844 100.744C143.81 101.683 144.315 102.918 144.36 104.451C144.39 105.466 144.188 106.39 143.753 107.224C143.318 108.047 142.713 108.71 141.936 109.212C141.169 109.703 140.302 109.963 139.336 109.992ZM139.532 108.682C140.205 108.662 140.728 108.334 141.1 107.698C141.472 107.052 141.642 106.202 141.611 105.147C141.571 103.791 141.295 102.7 140.782 101.875C140.279 101.049 139.627 100.648 138.826 100.672C138.133 100.692 137.586 101.031 137.186 101.688C136.785 102.344 136.601 103.219 136.633 104.312C136.671 105.601 136.961 106.657 137.503 107.481C138.055 108.305 138.731 108.706 139.532 108.682ZM150.415 109.489L150.312 108.496L151.839 108.084C151.861 107.849 151.876 107.346 151.882 106.574C151.889 105.802 151.877 104.913 151.847 103.907L151.76 100.935C151.738 100.193 151.711 99.4418 151.679 98.6807C151.646 97.9098 151.611 97.222 151.574 96.6174C151.546 96.0125 151.514 95.5787 151.477 95.316L149.727 95.1331L149.656 94.212L153.637 93.0247L154.234 93.3882C154.224 94.0528 154.219 94.7026 154.218 95.3377C154.217 95.9728 154.223 96.6858 154.237 97.4768C154.25 98.2579 154.274 99.2147 154.307 100.347L154.384 103.935C154.414 104.97 154.45 105.863 154.492 106.614C154.534 107.365 154.577 107.828 154.621 108.002L156.154 108.323L156.14 109.32L150.415 109.489ZM162.602 109.306C161.626 109.334 160.751 109.145 159.977 108.738C159.202 108.321 158.584 107.739 158.123 106.99C157.661 106.232 157.415 105.345 157.385 104.33C157.353 103.237 157.563 102.273 158.018 101.439C158.481 100.605 159.092 99.9469 159.85 99.4654C160.617 98.9836 161.445 98.7344 162.334 98.718C163.652 98.6889 164.684 99.0785 165.431 99.8869C166.178 100.695 166.572 101.797 166.613 103.193L166.628 103.706L159.585 103.914L159.551 102.757L164.617 102.607L164.294 103.086L164.275 102.412C164.251 101.602 164.052 100.978 163.677 100.54C163.302 100.091 162.803 99.8765 162.178 99.895C161.553 99.9134 161.019 100.198 160.576 100.748C160.133 101.299 159.928 102.116 159.96 103.199L159.972 103.594C160.006 104.776 160.337 105.704 160.962 106.379C161.598 107.044 162.418 107.362 163.423 107.332C163.96 107.316 164.44 107.204 164.864 106.997C165.297 106.779 165.712 106.42 166.107 105.919L166.784 106.515C166.362 107.426 165.786 108.112 165.057 108.574C164.338 109.034 163.52 109.278 162.602 109.306ZM172.076 109.026C171.392 109.046 170.793 108.922 170.277 108.654C169.771 108.386 169.375 108.046 169.089 107.634C168.803 107.222 168.654 106.816 168.643 106.416C168.626 105.86 168.783 105.396 169.114 105.025C169.445 104.653 169.988 104.339 170.743 104.083L174.355 102.833L174.326 101.852C174.31 101.315 174.057 100.854 173.567 100.468C173.077 100.081 172.51 99.8979 171.865 99.9169C171.543 99.9264 171.326 100.006 171.213 100.156C171.1 100.296 171.034 100.562 171.017 100.953L170.98 102.2C170.292 102.376 169.715 102.374 169.251 102.192C168.796 102.01 168.562 101.695 168.549 101.246C168.538 100.875 168.761 100.487 169.218 100.083C169.675 99.6787 170.216 99.3207 170.842 99.0092C171.478 98.6973 172.053 98.4996 172.569 98.416C173.857 98.378 174.891 98.6601 175.671 99.2624C176.461 99.8644 176.88 100.682 176.93 101.717L176.962 105.262C176.985 106.063 177.06 106.588 177.184 106.838L178.7 107.072L178.727 107.965L177.381 108.547C177.12 108.652 176.884 108.738 176.671 108.802C176.458 108.867 176.263 108.902 176.087 108.908C175.531 108.924 175.142 108.647 174.92 108.077L174.553 107.062L174.979 107.108C174.01 108.358 173.042 108.997 172.076 109.026ZM172.989 107.211C173.526 107.195 174.022 106.936 174.476 106.435L174.406 104.063L172.384 104.591C171.676 104.759 171.331 105.155 171.35 105.779C171.361 106.16 171.527 106.497 171.848 106.791C172.17 107.084 172.55 107.224 172.989 107.211ZM179.64 108.627L179.553 107.662L180.991 107.224C181.008 107.126 181.02 106.867 181.027 106.446C181.044 106.026 181.047 105.483 181.037 104.819L181.014 103.018C180.999 102.53 180.966 102.076 180.915 101.658C180.863 101.229 180.803 100.835 180.733 100.476L179.23 100.183L179.202 99.2461L182.849 98.1567L183.343 98.5085L183.311 100.429L183.385 100.442C183.808 99.5499 184.249 98.9409 184.709 98.6147C185.177 98.2785 185.646 98.1034 186.115 98.0896C186.515 98.0778 186.86 98.1751 187.149 98.3815C187.438 98.5879 187.59 98.9059 187.602 99.3354C187.615 99.7844 187.474 100.14 187.179 100.403C186.884 100.656 186.517 100.789 186.077 100.802C185.433 100.821 184.829 100.56 184.266 100.02L184.826 100.106C184.299 100.473 183.848 101.078 183.472 101.919L183.561 103.91C183.592 104.661 183.627 105.339 183.664 105.944C183.712 106.548 183.753 106.947 183.788 107.142L185.833 107.433L185.819 108.445L179.64 108.627ZM188.792 108.357L188.69 107.393L190.142 106.954C190.159 106.846 190.171 106.587 190.178 106.176C190.195 105.766 190.199 105.223 190.189 104.549L190.15 102.748C190.136 102.25 190.102 101.792 190.051 101.373C190.009 100.945 189.954 100.556 189.885 100.206L188.367 99.9136L188.339 98.9766L192.029 97.8858L192.583 98.2652L192.49 99.5868L192.549 99.6144C193.529 98.3935 194.659 97.7643 195.937 97.7265C196.865 97.6992 197.68 98.0268 198.384 98.7095C199.098 99.3919 199.475 100.416 199.515 101.783L199.589 104.272C199.605 104.819 199.63 105.326 199.663 105.794C199.696 106.252 199.739 106.544 199.792 106.669L201.253 107.022L201.208 107.991L195.805 108.15L195.733 107.185L197.053 106.75C197.077 106.554 197.092 106.251 197.1 105.84C197.117 105.42 197.118 104.951 197.102 104.433L197.037 102.222C197.009 101.266 196.764 100.594 196.304 100.207C195.852 99.81 195.358 99.6194 194.821 99.6353C193.904 99.6624 193.164 100.085 192.602 100.902L192.705 104.387C192.723 105.002 192.748 105.539 192.781 105.997C192.814 106.455 192.852 106.747 192.895 106.873L194.342 107.226L194.297 108.195L188.792 108.357Z" fill="#BF5D7D"/>
<path d="M79.7494 319.52C80.9076 319.486 82.0109 319.676 83.0568 320.092L83.4417 320.255C84.3275 320.654 85.1185 321.18 85.8125 321.834C86.6056 322.582 87.2398 323.465 87.7147 324.482C88.1907 325.502 88.4451 326.592 88.4793 327.749C88.5092 328.763 88.3674 329.734 88.0533 330.662L87.9087 331.057C87.4945 332.1 86.9136 333.019 86.1659 333.813C85.5116 334.507 84.7531 335.078 83.8923 335.529L83.5178 335.715C82.4981 336.191 81.408 336.445 80.2498 336.479C79.0919 336.513 77.9892 336.324 76.9435 335.909C75.9001 335.494 74.9809 334.914 74.1878 334.166C73.4937 333.512 72.9219 332.753 72.4715 331.892L72.2856 331.518C71.8095 330.498 71.5541 329.408 71.5199 328.25C71.4858 327.092 71.6765 325.989 72.0916 324.943L72.2551 324.558C72.654 323.672 73.1802 322.882 73.8343 322.188C74.582 321.395 75.4653 320.761 76.4825 320.286L76.8683 320.117C77.7756 319.749 78.7363 319.55 79.7494 319.52ZM79.7952 321.07C78.0107 321.123 76.4859 321.764 75.2143 322.998L74.9639 323.253C73.6436 324.653 73.014 326.301 73.07 328.204C73.1262 330.107 73.8519 331.716 75.2526 333.036L75.5175 333.276C76.8596 334.433 78.4198 334.983 80.2041 334.93C82.1075 334.874 83.716 334.148 85.0364 332.748L85.2757 332.482C86.4326 331.14 86.9829 329.58 86.9302 327.795C86.8775 326.011 86.2364 324.486 85.0023 323.214L84.7477 322.964C83.3471 321.644 81.6986 321.014 79.7952 321.07ZM80.7019 323.39L80.828 327.664L84.1921 330.855L84.3007 330.958L83.1838 332.143L83.0751 332.036L79.3405 328.374L79.2972 328.331L79.1528 323.436L80.7019 323.39Z" fill="#413928" stroke="#413928" stroke-width="0.3"/>
<path d="M100.993 322.816L104.054 320.979L105.853 320.926L106.214 333.161L104.091 333.223L103.8 323.364L101.995 324.425L100.993 322.816ZM108.924 326.76L109.109 320.83L115.37 320.645L115.43 322.678L111.076 322.807L110.994 325.51C111.411 325.39 111.859 325.323 112.339 325.309C113.526 325.274 114.465 325.558 115.155 326.162C115.845 326.754 116.207 327.649 116.243 328.849L116.257 329.335C116.277 330.006 116.157 330.628 115.898 331.2C115.639 331.772 115.208 332.235 114.606 332.589C114.016 332.942 113.224 333.134 112.228 333.163C111.676 333.18 111.099 333.131 110.495 333.016C109.903 332.902 109.249 332.699 108.532 332.408L109.143 330.535C109.787 330.768 110.326 330.938 110.761 331.046C111.208 331.14 111.654 331.181 112.097 331.168C112.769 331.148 113.269 330.996 113.596 330.71C113.936 330.424 114.097 329.987 114.08 329.399L114.066 328.913C114.05 328.385 113.882 327.97 113.561 327.668C113.252 327.365 112.761 327.223 112.09 327.243C111.79 327.252 111.479 327.303 111.158 327.396C110.836 327.478 110.491 327.596 110.124 327.751L108.924 326.76ZM124.141 326.311L124.327 332.626L122.258 332.687L121.989 323.565L123.95 323.507L123.986 324.713C124.535 324.204 125.046 323.835 125.52 323.605C125.993 323.375 126.482 323.253 126.985 323.238C128.101 323.205 128.877 323.674 129.314 324.646C129.898 324.1 130.445 323.706 130.954 323.463C131.463 323.22 131.981 323.09 132.509 323.075C133.349 323.05 133.999 323.313 134.459 323.864C134.919 324.402 135.164 325.175 135.194 326.183L135.374 332.3L133.305 332.361L133.132 326.496C133.102 325.488 132.704 324.996 131.936 325.018C131.636 325.027 131.308 325.109 130.953 325.264C130.597 325.418 130.168 325.713 129.664 326.148L129.851 332.463L127.782 332.524L127.609 326.659C127.579 325.651 127.18 325.159 126.412 325.181C126.113 325.19 125.785 325.272 125.429 325.427C125.074 325.581 124.644 325.876 124.141 326.311ZM139.91 321.308L137.733 321.372L137.669 319.231L139.846 319.167L139.91 321.308ZM140.176 332.159L138.107 332.22L137.837 323.098L139.907 323.037L140.176 332.159ZM147.271 324.566C146.971 324.575 146.631 324.657 146.252 324.812C145.872 324.967 145.425 325.263 144.909 325.698L145.095 332.013L143.026 332.074L142.757 322.952L144.718 322.895L144.754 324.118C145.304 323.61 145.827 323.24 146.324 323.009C146.821 322.767 147.328 322.638 147.844 322.622C148.719 322.596 149.393 322.859 149.866 323.409C150.338 323.947 150.589 324.72 150.618 325.728L150.799 331.845L148.73 331.906L148.557 326.041C148.527 325.033 148.098 324.542 147.271 324.566ZM158.967 331.604L158.932 330.399C158.394 330.895 157.889 331.264 157.416 331.506C156.942 331.736 156.46 331.858 155.968 331.873C155.152 331.897 154.514 331.639 154.054 331.101C153.594 330.55 153.349 329.771 153.319 328.763L153.138 322.646L155.208 322.585L155.381 328.451C155.41 329.458 155.797 329.951 156.541 329.929C156.841 329.92 157.162 329.839 157.506 329.684C157.861 329.53 158.285 329.241 158.777 328.819L158.59 322.485L160.659 322.424L160.928 331.546L158.967 331.604ZM169.256 330.994C168.948 331.148 168.592 331.272 168.186 331.368C167.781 331.476 167.369 331.536 166.949 331.549C166.253 331.569 165.691 331.442 165.263 331.166C164.835 330.891 164.517 330.498 164.31 329.988C164.115 329.477 164.007 328.892 163.988 328.233L163.867 324.13L162.392 324.174L162.338 322.375L163.814 322.331L163.744 319.956L165.813 319.895L165.883 322.27L168.726 322.186L168.779 323.985L165.936 324.069L166.057 328.172C166.073 328.723 166.187 329.104 166.397 329.314C166.619 329.512 166.928 329.605 167.323 329.593C167.515 329.587 167.719 329.563 167.934 329.521C168.16 329.466 168.41 329.381 168.682 329.265L169.256 330.994ZM177.84 330.525C177.224 330.795 176.641 330.993 176.093 331.117C175.544 331.241 175.024 331.31 174.532 331.325C173.177 331.365 172.14 331.011 171.421 330.264C170.703 329.517 170.325 328.508 170.288 327.236L170.256 326.157C170.231 325.305 170.365 324.563 170.658 323.93C170.952 323.297 171.381 322.798 171.947 322.433C172.512 322.069 173.185 321.875 173.964 321.852C174.6 321.833 175.198 321.947 175.757 322.195C176.328 322.43 176.796 322.819 177.16 323.36C177.536 323.889 177.736 324.58 177.762 325.431C177.769 325.683 177.759 325.953 177.732 326.242C177.704 326.519 177.652 326.815 177.578 327.129L172.288 327.285C172.334 328.028 172.536 328.581 172.895 328.942C173.254 329.304 173.817 329.473 174.585 329.451C174.993 329.439 175.411 329.378 175.84 329.27C176.281 329.16 176.732 329.003 177.195 328.797L177.84 330.525ZM174.016 323.597C173.464 323.613 173.038 323.806 172.736 324.175C172.447 324.532 172.288 325.04 172.259 325.702L175.714 325.6C175.724 325.539 175.728 325.485 175.727 325.437C175.725 325.377 175.724 325.323 175.722 325.275C175.705 324.7 175.53 324.272 175.198 323.994C174.866 323.716 174.472 323.583 174.016 323.597ZM182.818 329.28C183.262 329.267 183.626 329.184 183.909 329.031C184.192 328.867 184.33 328.635 184.321 328.335C184.313 328.071 184.211 327.87 184.015 327.732C183.83 327.581 183.496 327.453 183.013 327.347L181.98 327.108C181.182 326.927 180.584 326.602 180.186 326.134C179.8 325.665 179.597 325.101 179.578 324.441C179.555 323.662 179.806 323 180.33 322.456C180.854 321.912 181.68 321.624 182.807 321.591C183.263 321.577 183.744 321.617 184.251 321.71C184.758 321.803 185.291 321.962 185.85 322.185L185.308 323.966C184.798 323.741 184.337 323.586 183.926 323.503C183.515 323.419 183.154 323.381 182.842 323.39C181.991 323.416 181.573 323.716 181.59 324.292C181.597 324.52 181.674 324.697 181.822 324.825C181.982 324.953 182.267 325.064 182.678 325.16L183.712 325.4C184.594 325.602 185.24 325.931 185.65 326.387C186.072 326.843 186.293 327.424 186.314 328.132C186.338 328.972 186.071 329.664 185.511 330.209C184.962 330.753 184.077 331.043 182.853 331.079C181.81 331.11 180.705 330.903 179.539 330.457L180.047 328.731C180.617 328.942 181.132 329.089 181.59 329.172C182.049 329.254 182.458 329.29 182.818 329.28Z" fill="#413928"/>
<defs>
<filter id="filter0_dd_98_2" x="0.511658" y="0.511658" width="497.284" height="586.62" filterUnits="userSpaceOnUse" color-interpolation-filters="sRGB">
<feFlood flood-opacity="0" result="BackgroundImageFix"/>
<feColorMatrix in="SourceAlpha" type="matrix" values="0 0 0 0 0 0 0 0 0 0 0 0 0 0 0 0 0 0 127 0" result="hardAlpha"/>
<feMorphology radius="4" operator="dilate" in="SourceAlpha" result="effect1_dropShadow_98_2"/>
<feOffset dy="4"/>
<feGaussianBlur stdDeviation="2"/>
<feComposite in2="hardAlpha" operator="out"/>
<feColorMatrix type="matrix" values="0 0 0 0 0 0 0 0 0 0 0 0 0 0 0 0 0 0 0.25 0"/>
<feBlend mode="normal" in2="BackgroundImageFix" result="effect1_dropShadow_98_2"/>
<feColorMatrix in="SourceAlpha" type="matrix" values="0 0 0 0 0 0 0 0 0 0 0 0 0 0 0 0 0 0 127 0" result="hardAlpha"/>
<feMorphology radius="5" operator="dilate" in="SourceAlpha" result="effect2_dropShadow_98_2"/>
<feOffset dy="4"/>
<feGaussianBlur stdDeviation="5"/>
<feComposite in2="hardAlpha" operator="out"/>
<feColorMatrix type="matrix" values="0 0 0 0 0.954327 0 0 0 0 0.550573 0 0 0 0 0.683314 0 0 0 0.6 0"/>
<feBlend mode="normal" in2="effect1_dropShadow_98_2" result="effect2_dropShadow_98_2"/>
<feBlend mode="normal" in="SourceGraphic" in2="effect2_dropShadow_98_2" result="shape"/>
</filter>
<filter id="filter1_d_98_2" x="40.8983" y="81.8932" width="179.203" height="49.2137" filterUnits="userSpaceOnUse" color-interpolation-filters="sRGB">
<feFlood flood-opacity="0" result="BackgroundImageFix"/>
<feColorMatrix in="SourceAlpha" type="matrix" values="0 0 0 0 0 0 0 0 0 0 0 0 0 0 0 0 0 0 127 0" result="hardAlpha"/>
<feOffset dy="4"/>
<feGaussianBlur stdDeviation="2"/>
<feComposite in2="hardAlpha" operator="out"/>
<feColorMatrix type="matrix" values="0 0 0 0 0 0 0 0 0 0 0 0 0 0 0 0 0 0 0.25 0"/>
<feBlend mode="normal" in2="BackgroundImageFix" result="effect1_dropShadow_98_2"/>
<feBlend mode="normal" in="SourceGraphic" in2="effect1_dropShadow_98_2" result="shape"/>
</filter>
</defs>
</svg>
