<svg width="18" height="18" viewBox="0 0 18 18" fill="none" xmlns="http://www.w3.org/2000/svg">
<path d="M3.99951 14H5.99951V9H3.99951V14ZM11.9995 14H13.9995V4H11.9995V14ZM7.99951 14H9.99951V11H7.99951V14ZM7.99951 9H9.99951V7H7.99951V9ZM1.99951 18C1.44951 18 0.978678 17.8042 0.587012 17.4125C0.195345 17.0208 -0.000488281 16.55 -0.000488281 16V2C-0.000488281 1.45 0.195345 0.979167 0.587012 0.5875C0.978678 0.195833 1.44951 0 1.99951 0H15.9995C16.5495 0 17.0203 0.195833 17.412 0.5875C17.8037 0.979167 17.9995 1.45 17.9995 2V16C17.9995 16.55 17.8037 17.0208 17.412 17.4125C17.0203 17.8042 16.5495 18 15.9995 18H1.99951ZM1.99951 16H15.9995V2H1.99951V16Z" fill="#FFFAEF"/>
</svg>
