<svg width="18" height="18" viewBox="0 0 18 18" fill="none" xmlns="http://www.w3.org/2000/svg">
<path d="M8.99951 18C6.69951 18 4.69535 17.2375 2.98701 15.7125C1.27868 14.1875 0.299512 12.2833 0.0495117 10H2.09951C2.33284 11.7333 3.10368 13.1667 4.41201 14.3C5.72035 15.4333 7.24951 16 8.99951 16C10.9495 16 12.6037 15.3208 13.962 13.9625C15.3203 12.6042 15.9995 10.95 15.9995 9C15.9995 7.05 15.3203 5.39583 13.962 4.0375C12.6037 2.67917 10.9495 2 8.99951 2C7.84951 2 6.77451 2.26667 5.77451 2.8C4.77451 3.33333 3.93285 4.06667 3.24951 5H5.99951V7H-0.000488281V1H1.99951V3.35C2.84951 2.28333 3.88701 1.45833 5.11201 0.875C6.33701 0.291667 7.63284 0 8.99951 0C10.2495 0 11.4203 0.2375 12.512 0.7125C13.6037 1.1875 14.5537 1.82917 15.362 2.6375C16.1703 3.44583 16.812 4.39583 17.287 5.4875C17.762 6.57917 17.9995 7.75 17.9995 9C17.9995 10.25 17.762 11.4208 17.287 12.5125C16.812 13.6042 16.1703 14.5542 15.362 15.3625C14.5537 16.1708 13.6037 16.8125 12.512 17.2875C11.4203 17.7625 10.2495 18 8.99951 18ZM11.7995 13.2L7.99951 9.4V4H9.99951V8.6L13.1995 11.8L11.7995 13.2Z" fill="#FFFAEF"/>
</svg>
