<svg width="21" height="20" viewBox="0 0 21 20" fill="none" xmlns="http://www.w3.org/2000/svg">
<path d="M7.29951 20L6.89951 16.8C6.68285 16.7167 6.47868 16.6167 6.28701 16.5C6.09535 16.3833 5.90785 16.2583 5.72451 16.125L2.74951 17.375L-0.000488281 12.625L2.57451 10.675C2.55785 10.5583 2.54951 10.4458 2.54951 10.3375V9.6625C2.54951 9.55417 2.55785 9.44167 2.57451 9.325L-0.000488281 7.375L2.74951 2.625L5.72451 3.875C5.90785 3.74167 6.09951 3.61667 6.29951 3.5C6.49951 3.38333 6.69951 3.28333 6.89951 3.2L7.29951 0H12.7995L13.1995 3.2C13.4162 3.28333 13.6203 3.38333 13.812 3.5C14.0037 3.61667 14.1912 3.74167 14.3745 3.875L17.3495 2.625L20.0995 7.375L17.5245 9.325C17.5412 9.44167 17.5495 9.55417 17.5495 9.6625V10.3375C17.5495 10.4458 17.5328 10.5583 17.4995 10.675L20.0745 12.625L17.3245 17.375L14.3745 16.125C14.1912 16.2583 13.9995 16.3833 13.7995 16.5C13.5995 16.6167 13.3995 16.7167 13.1995 16.8L12.7995 20H7.29951ZM9.04951 18H11.0245L11.3745 15.35C11.8912 15.2167 12.3703 15.0208 12.812 14.7625C13.2537 14.5042 13.6578 14.1917 14.0245 13.825L16.4995 14.85L17.4745 13.15L15.3245 11.525C15.4078 11.2917 15.4662 11.0458 15.4995 10.7875C15.5328 10.5292 15.5495 10.2667 15.5495 10C15.5495 9.73333 15.5328 9.47083 15.4995 9.2125C15.4662 8.95417 15.4078 8.70833 15.3245 8.475L17.4745 6.85L16.4995 5.15L14.0245 6.2C13.6578 5.81667 13.2537 5.49583 12.812 5.2375C12.3703 4.97917 11.8912 4.78333 11.3745 4.65L11.0495 2H9.07451L8.72451 4.65C8.20784 4.78333 7.72868 4.97917 7.28701 5.2375C6.84535 5.49583 6.44118 5.80833 6.07451 6.175L3.59951 5.15L2.62451 6.85L4.77451 8.45C4.69118 8.7 4.63284 8.95 4.59951 9.2C4.56618 9.45 4.54951 9.71667 4.54951 10C4.54951 10.2667 4.56618 10.525 4.59951 10.775C4.63284 11.025 4.69118 11.275 4.77451 11.525L2.62451 13.15L3.59951 14.85L6.07451 13.8C6.44118 14.1833 6.84535 14.5042 7.28701 14.7625C7.72868 15.0208 8.20784 15.2167 8.72451 15.35L9.04951 18ZM10.0995 13.5C11.0662 13.5 11.8912 13.1583 12.5745 12.475C13.2578 11.7917 13.5995 10.9667 13.5995 10C13.5995 9.03333 13.2578 8.20833 12.5745 7.525C11.8912 6.84167 11.0662 6.5 10.0995 6.5C9.11618 6.5 8.28701 6.84167 7.61201 7.525C6.93701 8.20833 6.59951 9.03333 6.59951 10C6.59951 10.9667 6.93701 11.7917 7.61201 12.475C8.28701 13.1583 9.11618 13.5 10.0995 13.5Z" fill="#FFFAEF"/>
</svg>
