<svg width="27" height="27" viewBox="0 0 27 27" fill="none" xmlns="http://www.w3.org/2000/svg">
<g clip-path="url(#clip0_34_125)">
<path d="M26.6783 13.7527C26.6783 12.6465 26.5885 11.8393 26.3943 11.0022H13.7628V15.9949H21.1772C21.0277 17.2357 20.2205 19.1043 18.4267 20.3599L18.4015 20.527L22.3954 23.621L22.6721 23.6486C25.2133 21.3017 26.6783 17.8486 26.6783 13.7527Z" fill="#4285F4"/>
<path d="M13.7628 26.9073C17.3952 26.9073 20.4447 25.7114 22.6721 23.6485L18.4267 20.3598C17.2906 21.1521 15.7658 21.7052 13.7628 21.7052C10.2051 21.7052 7.1855 19.3583 6.10911 16.1145L5.95133 16.1279L1.79849 19.3418L1.74418 19.4928C3.95653 23.8876 8.50088 26.9073 13.7628 26.9073Z" fill="#34A853"/>
<path d="M6.10911 16.1144C5.82509 15.2773 5.66072 14.3803 5.66072 13.4536C5.66072 12.5267 5.8251 11.6298 6.09417 10.7927L6.08664 10.6144L1.88176 7.34888L1.74418 7.41432C0.832363 9.23805 0.30916 11.286 0.30916 13.4536C0.30916 15.6211 0.832363 17.669 1.74418 19.4927L6.10911 16.1144Z" fill="#FBBC05"/>
<path d="M13.7628 5.20203C16.289 5.20203 17.9931 6.29327 18.9648 7.20519L22.7617 3.49794C20.4298 1.33042 17.3952 0 13.7628 0C8.50088 0 3.95653 3.01957 1.74418 7.41438L6.09417 10.7928C7.1855 7.54897 10.2051 5.20203 13.7628 5.20203Z" fill="#EB4335"/>
</g>
<defs>
<clipPath id="clip0_34_125">
<rect width="27" height="27" fill="white"/>
</clipPath>
</defs>
</svg>
