<svg width="1544" height="1028" viewBox="0 0 1544 1028" fill="none" xmlns="http://www.w3.org/2000/svg">
<g clip-path="url(#clip0_458_553)">
<rect width="1544" height="1028" fill="#FFFCF7"/>
<g filter="url(#filter0_d_458_553)">
<path d="M173.5 895C277.053 895 361 963.724 361 1048.5C361 1133.28 277.053 1202 173.5 1202C69.9466 1202 -14 1133.28 -14 1048.5C-14 963.724 69.9466 895 173.5 895Z" fill="url(#paint0_linear_458_553)"/>
</g>
<g filter="url(#filter1_d_458_553)">
<path d="M329 36C329 150.875 221.772 244 89.5 244C-42.7722 244 -150 150.875 -150 36C-150 -78.8752 -42.7722 -172 89.5 -172C221.772 -172 329 -78.8752 329 36Z" fill="url(#paint1_linear_458_553)"/>
</g>
<g filter="url(#filter2_d_458_553)">
<path d="M295.115 877.476C310.021 898.173 305.064 927.225 284.043 942.364C263.021 957.504 233.896 952.998 218.99 932.301C204.084 911.604 209.041 882.552 230.063 867.413C251.084 852.273 280.209 856.778 295.115 877.476Z" fill="url(#paint2_linear_458_553)"/>
</g>
<g filter="url(#filter3_d_458_553)">
<path d="M44.5003 491.193C69.2381 525.542 63.6137 571.88 31.9377 594.693C0.261833 617.506 -45.4705 608.155 -70.2083 573.807C-94.9461 539.458 -89.3216 493.12 -57.6457 470.307C-25.9698 447.494 19.7626 456.845 44.5003 491.193Z" fill="url(#paint3_linear_458_553)"/>
</g>
<g filter="url(#filter4_d_458_553)">
<path d="M1640.56 897.272C1670.15 987.445 1584.67 1096.46 1449.64 1140.77C1314.62 1185.08 1181.17 1147.9 1151.58 1057.73C1121.99 967.555 1207.46 858.536 1342.49 814.228C1477.52 769.919 1610.97 807.099 1640.56 897.272Z" fill="url(#paint4_linear_458_553)"/>
</g>
<g filter="url(#filter5_d_458_553)">
<path d="M1663.66 132.269C1677.16 214.708 1620.23 292.654 1536.5 306.368C1452.77 320.081 1373.95 264.367 1360.45 181.929C1346.95 99.4897 1403.88 21.543 1487.61 7.82987C1571.34 -5.88329 1650.16 49.8299 1663.66 132.269Z" fill="url(#paint5_linear_458_553)"/>
</g>
<g filter="url(#filter6_d_458_553)">
<path d="M1364.55 61.6701C1386.39 59.6432 1405.65 74.7251 1407.57 95.3566C1409.48 115.988 1393.33 134.356 1371.48 136.383C1349.64 138.41 1330.38 123.328 1328.47 102.697C1326.55 82.0654 1342.71 63.6971 1364.55 61.6701Z" fill="url(#paint6_linear_458_553)"/>
</g>
<g filter="url(#filter7_d_458_553)">
<path d="M1250.65 979.39C1288.57 1037.49 1273.06 1114.77 1216.01 1152C1158.96 1189.23 1081.98 1172.32 1044.06 1114.22C1006.14 1056.13 1021.65 978.847 1078.7 941.614C1135.75 904.381 1212.74 921.294 1250.65 979.39Z" fill="url(#paint7_linear_458_553)"/>
</g>
</g>
<defs>
<filter id="filter0_d_458_553" x="-17" y="890" width="383" height="315" filterUnits="userSpaceOnUse" color-interpolation-filters="sRGB">
<feFlood flood-opacity="0" result="BackgroundImageFix"/>
<feColorMatrix in="SourceAlpha" type="matrix" values="0 0 0 0 0 0 0 0 0 0 0 0 0 0 0 0 0 0 127 0" result="hardAlpha"/>
<feOffset dx="1" dy="-1"/>
<feGaussianBlur stdDeviation="2"/>
<feComposite in2="hardAlpha" operator="out"/>
<feColorMatrix type="matrix" values="0 0 0 0 0 0 0 0 0 0 0 0 0 0 0 0 0 0 0.1 0"/>
<feBlend mode="normal" in2="BackgroundImageFix" result="effect1_dropShadow_458_553"/>
<feBlend mode="normal" in="SourceGraphic" in2="effect1_dropShadow_458_553" result="shape"/>
</filter>
<filter id="filter1_d_458_553" x="-153" y="-172" width="489" height="426" filterUnits="userSpaceOnUse" color-interpolation-filters="sRGB">
<feFlood flood-opacity="0" result="BackgroundImageFix"/>
<feColorMatrix in="SourceAlpha" type="matrix" values="0 0 0 0 0 0 0 0 0 0 0 0 0 0 0 0 0 0 127 0" result="hardAlpha"/>
<feOffset dx="2" dy="5"/>
<feGaussianBlur stdDeviation="2.5"/>
<feComposite in2="hardAlpha" operator="out"/>
<feColorMatrix type="matrix" values="0 0 0 0 0 0 0 0 0 0 0 0 0 0 0 0 0 0 0.1 0"/>
<feBlend mode="normal" in2="BackgroundImageFix" result="effect1_dropShadow_458_553"/>
<feBlend mode="normal" in="SourceGraphic" in2="effect1_dropShadow_458_553" result="shape"/>
</filter>
<filter id="filter2_d_458_553" x="206.388" y="858.454" width="101.329" height="100.87" filterUnits="userSpaceOnUse" color-interpolation-filters="sRGB">
<feFlood flood-opacity="0" result="BackgroundImageFix"/>
<feColorMatrix in="SourceAlpha" type="matrix" values="0 0 0 0 0 0 0 0 0 0 0 0 0 0 0 0 0 0 127 0" result="hardAlpha"/>
<feOffset dy="4"/>
<feGaussianBlur stdDeviation="2"/>
<feComposite in2="hardAlpha" operator="out"/>
<feColorMatrix type="matrix" values="0 0 0 0 0 0 0 0 0 0 0 0 0 0 0 0 0 0 0.05 0"/>
<feBlend mode="normal" in2="BackgroundImageFix" result="effect1_dropShadow_458_553"/>
<feBlend mode="normal" in="SourceGraphic" in2="effect1_dropShadow_458_553" result="shape"/>
</filter>
<filter id="filter3_d_458_553" x="-89.6296" y="457.831" width="153.551" height="157.338" filterUnits="userSpaceOnUse" color-interpolation-filters="sRGB">
<feFlood flood-opacity="0" result="BackgroundImageFix"/>
<feColorMatrix in="SourceAlpha" type="matrix" values="0 0 0 0 0 0 0 0 0 0 0 0 0 0 0 0 0 0 127 0" result="hardAlpha"/>
<feOffset dy="4"/>
<feGaussianBlur stdDeviation="2"/>
<feComposite in2="hardAlpha" operator="out"/>
<feColorMatrix type="matrix" values="0 0 0 0 0 0 0 0 0 0 0 0 0 0 0 0 0 0 0.05 0"/>
<feBlend mode="normal" in2="BackgroundImageFix" result="effect1_dropShadow_458_553"/>
<feBlend mode="normal" in="SourceGraphic" in2="effect1_dropShadow_458_553" result="shape"/>
</filter>
<filter id="filter4_d_458_553" x="1136.72" y="787.541" width="512.69" height="375.918" filterUnits="userSpaceOnUse" color-interpolation-filters="sRGB">
<feFlood flood-opacity="0" result="BackgroundImageFix"/>
<feColorMatrix in="SourceAlpha" type="matrix" values="0 0 0 0 0 0 0 0 0 0 0 0 0 0 0 0 0 0 127 0" result="hardAlpha"/>
<feOffset dx="-3" dy="-2"/>
<feGaussianBlur stdDeviation="3"/>
<feComposite in2="hardAlpha" operator="out"/>
<feColorMatrix type="matrix" values="0 0 0 0 0 0 0 0 0 0 0 0 0 0 0 0 0 0 0.05 0"/>
<feBlend mode="normal" in2="BackgroundImageFix" result="effect1_dropShadow_458_553"/>
<feBlend mode="normal" in="SourceGraphic" in2="effect1_dropShadow_458_553" result="shape"/>
</filter>
<filter id="filter5_d_458_553" x="1350.47" y="3.75528" width="319.175" height="314.687" filterUnits="userSpaceOnUse" color-interpolation-filters="sRGB">
<feFlood flood-opacity="0" result="BackgroundImageFix"/>
<feColorMatrix in="SourceAlpha" type="matrix" values="0 0 0 0 0 0 0 0 0 0 0 0 0 0 0 0 0 0 127 0" result="hardAlpha"/>
<feOffset dx="-2" dy="4"/>
<feGaussianBlur stdDeviation="3"/>
<feComposite in2="hardAlpha" operator="out"/>
<feColorMatrix type="matrix" values="0 0 0 0 0 0 0 0 0 0 0 0 0 0 0 0 0 0 0.1 0"/>
<feBlend mode="normal" in2="BackgroundImageFix" result="effect1_dropShadow_458_553"/>
<feBlend mode="normal" in="SourceGraphic" in2="effect1_dropShadow_458_553" result="shape"/>
</filter>
<filter id="filter6_d_458_553" x="1324.31" y="61.4875" width="87.4099" height="83.0784" filterUnits="userSpaceOnUse" color-interpolation-filters="sRGB">
<feFlood flood-opacity="0" result="BackgroundImageFix"/>
<feColorMatrix in="SourceAlpha" type="matrix" values="0 0 0 0 0 0 0 0 0 0 0 0 0 0 0 0 0 0 127 0" result="hardAlpha"/>
<feOffset dy="4"/>
<feGaussianBlur stdDeviation="2"/>
<feComposite in2="hardAlpha" operator="out"/>
<feColorMatrix type="matrix" values="0 0 0 0 0 0 0 0 0 0 0 0 0 0 0 0 0 0 0.08 0"/>
<feBlend mode="normal" in2="BackgroundImageFix" result="effect1_dropShadow_458_553"/>
<feBlend mode="normal" in="SourceGraphic" in2="effect1_dropShadow_458_553" result="shape"/>
</filter>
<filter id="filter7_d_458_553" x="1019.31" y="913.849" width="256.088" height="257.915" filterUnits="userSpaceOnUse" color-interpolation-filters="sRGB">
<feFlood flood-opacity="0" result="BackgroundImageFix"/>
<feColorMatrix in="SourceAlpha" type="matrix" values="0 0 0 0 0 0 0 0 0 0 0 0 0 0 0 0 0 0 127 0" result="hardAlpha"/>
<feOffset dy="-4"/>
<feGaussianBlur stdDeviation="2"/>
<feComposite in2="hardAlpha" operator="out"/>
<feColorMatrix type="matrix" values="0 0 0 0 0 0 0 0 0 0 0 0 0 0 0 0 0 0 0.05 0"/>
<feBlend mode="normal" in2="BackgroundImageFix" result="effect1_dropShadow_458_553"/>
<feBlend mode="normal" in="SourceGraphic" in2="effect1_dropShadow_458_553" result="shape"/>
</filter>
<linearGradient id="paint0_linear_458_553" x1="-37.4974" y1="1066.93" x2="337.503" y2="1066.93" gradientUnits="userSpaceOnUse">
<stop offset="0.357392" stop-color="#FFF6E3"/>
<stop offset="1" stop-color="#FCB3B4"/>
</linearGradient>
<linearGradient id="paint1_linear_458_553" x1="60.7436" y1="-198.066" x2="60.7436" y2="217.934" gradientUnits="userSpaceOnUse">
<stop offset="0.357392" stop-color="#FFF6E3"/>
<stop offset="1" stop-color="#FCB3CB"/>
</linearGradient>
<linearGradient id="paint2_linear_458_553" x1="222.11" y1="866.008" x2="276.09" y2="940.959" gradientUnits="userSpaceOnUse">
<stop offset="0.197115" stop-color="#FFF6E3"/>
<stop offset="1" stop-color="#FEC957"/>
</linearGradient>
<linearGradient id="paint3_linear_458_553" x1="-70.1454" y1="467.472" x2="19.438" y2="591.859" gradientUnits="userSpaceOnUse">
<stop offset="0.197115" stop-color="#FFF6E3"/>
<stop offset="1" stop-color="#FABAB0"/>
</linearGradient>
<linearGradient id="paint4_linear_458_553" x1="1306.42" y1="803.399" x2="1413.57" y2="1129.94" gradientUnits="userSpaceOnUse">
<stop offset="0.197115" stop-color="#FFF6E3"/>
<stop offset="1" stop-color="#FBC0D3"/>
</linearGradient>
<linearGradient id="paint5_linear_458_553" x1="1466.34" y1="-7.89516" x2="1515.23" y2="290.642" gradientUnits="userSpaceOnUse">
<stop offset="0.357392" stop-color="#FFF6E3"/>
<stop offset="1" stop-color="#FAD8B0"/>
</linearGradient>
<linearGradient id="paint6_linear_458_553" x1="1323.93" y1="107.642" x2="1403.03" y2="100.302" gradientUnits="userSpaceOnUse">
<stop offset="0.197115" stop-color="#FFF6E3"/>
<stop offset="1" stop-color="#FFD5E3"/>
</linearGradient>
<linearGradient id="paint7_linear_458_553" x1="1035.29" y1="955.329" x2="1172.6" y2="1165.71" gradientUnits="userSpaceOnUse">
<stop offset="0.254808" stop-color="#FFEAD3"/>
<stop offset="0.644231" stop-color="#FBC0D3"/>
</linearGradient>
<clipPath id="clip0_458_553">
<rect width="1544" height="1028" fill="white"/>
</clipPath>
</defs>
</svg>
